<svg xml:space="preserve" style="enable-background:new 0 0 800 800;" viewBox="0 0 800 800" y="0px" x="0px" xmlns:xlink="http://www.w3.org/1999/xlink" xmlns="http://www.w3.org/2000/svg" id="Layer_1" version="1.1">
<style type="text/css">
	.st0{fill:#FFFFFF;}
	.st1{fill-rule:evenodd;clip-rule:evenodd;fill:#FFFFFF;}
</style>
<g>
	<path d="M170.6,464.5c1.9-5.7-1.8-9.3-7.1-13.3c-29.9-22.1-34.8-64.7-11.1-93.3c11.7-14.1,26.9-22,45.3-23.6
		c6-0.5,11.8-0.1,17.6,1c2.2,0.4,3-0.1,3-2.4c-0.1-3.4,0.1-6.7,0-10.1c-0.1-2.4,0.8-3.4,3.3-2.7c2.7,0.8,5.5,1.6,8.2,2.3
		c2.2,0.6,2.9,1.9,2.8,4c-0.1,3.8,0.1,7.5-0.1,11.3c-0.1,2.3,0.8,3.7,2.8,4.9c16.8,9.9,27.5,24.3,31.5,43.3
		c4.4,21.2-0.6,40.2-14.9,56.5c-14.1,16.1-32.2,23.2-53.6,22.1c-3.3-0.2-6.7-0.9-9.9-1.6c-2.4-0.6-3.1,0.2-3,2.5c0.1,4,0,7.9,0,11.9
		c0,2.3-0.7,3.3-3.1,2.5c-0.1,0-0.2,0-0.3-0.1C170.6,477.3,170.6,477.3,170.6,464.5z M232.5,399c0,12.5,0,25,0,37.5
		c0,1-0.5,2.3,0.5,2.8c1.2,0.6,2-0.7,2.8-1.3c24.1-20.1,23.8-58.1-0.5-77.7c-0.7-0.5-1.3-1.7-2.3-1.2c-1,0.4-0.6,1.6-0.6,2.5
		C232.5,374,232.5,386.5,232.5,399z M217.6,418.9c0.2-0.1,0.4-0.1,0.5-0.2c0-0.4,0.1-0.8,0.1-1.2c0-21.1,0-42.3,0.1-63.4
		c0-2.5-0.9-3.6-3.3-4.2c-7.5-1.6-14.9-1.8-22.4-0.4c-4.4,0.8-4.4,1-2.7,5.1c5.5,12.8,11,25.6,16.6,38.4
		C210.1,401.6,213.9,410.2,217.6,418.9z M170.5,361c-1.2,0-1.6,0.6-2.1,1.1c-21.7,20.1-22.1,53.2-0.8,73.8c0.7,0.7,1.4,2,2.4,1.6
		c1.3-0.5,0.7-2,0.7-3c0-23.6,0-47.1,0-70.7C170.6,362.9,170.5,362,170.5,361z M185.7,381.4c-0.3,0.9-0.4,1.1-0.4,1.3
		c0,20.5,0,41.1-0.1,61.6c0,2.2,1.1,3,3,3.6c7.5,2.3,15.2,2.7,22.9,1.4c3.4-0.5,3.5-0.7,2.2-3.8c-4.8-11.2-9.7-22.4-14.5-33.6
		C194.6,401.9,190.3,391.9,185.7,381.4z" class="st0"></path>
	<path d="M302.6,400.1c0-9.3,0-18.5,0-27.8c0-4.3,0-4.4,4.5-4.3c7.6,0,15.3-0.5,22.9,0.3c15.7,1.8,25.5,12.7,27.2,28.6
		c1.4,13.4-5.7,27.7-18.3,32.8c-3.8,1.5-7.8,2.4-11.9,2.4c-7,0.1-14,0-21.1,0.1c-2.6,0-3.3-1.1-3.3-3.5
		C302.6,419.2,302.6,409.7,302.6,400.1z M312.4,399.7c0,6.5,0,13,0,19.5c0,2.1,0.6,3.2,3,3.2c4.1-0.1,8.1,0.1,12.2-0.1
		c11.3-0.7,19.7-9.3,20.2-20.2c0.6-13.3-6.5-22.5-18.5-24.3c-4.6-0.7-9.1-0.2-13.7-0.4c-2.4-0.1-3.2,0.8-3.2,3.2
		C312.5,386.9,312.4,393.3,312.4,399.7z" class="st0"></path>
	<path d="M440.6,389c-0.9,1.2-0.5,2.3-0.5,3.4c0,12-0.1,24,0,36c0,2.9-0.9,4-3.8,3.9c-6-0.1-6,0-6-5.9c0-18,0-36,0-54
		c0-1.7-0.9-4.1,1.7-4.6c2.6-0.5,5.3-0.8,7.3,2.1c8.9,13,17.9,26,26.9,38.9c0.6,0.8,1.2,1.6,1.9,2.6c0.9-1.2,0.6-2.3,0.6-3.3
		c0-12.2,0-24.4,0-36.6c0-3.8,0.3-3.9,5-3.9c4.2,0,4.4,0.1,4.4,3.9c0,18.8,0,37.6,0,56.4c0,1.5,0.8,3.7-1.4,4.1
		c-2.5,0.4-5.2,1.2-7.2-1.7c-5-7.4-10.2-14.7-15.3-22.1c-4.2-6-8.3-12-12.5-18.1C441.4,389.7,441,389.4,440.6,389z" class="st0"></path>
	<path d="M514.5,432.8c-17.8,0-32.4-14.8-32.4-32.8c0-18.4,14.8-33.3,32.9-33.1c17.6,0.2,32.5,15.3,32.6,33.1
		C547.6,417.7,532.4,432.9,514.5,432.8z M514.5,423c12.8,0,23.1-10.2,23.2-23c0.1-12.6-10.5-23.3-23-23.3
		c-12.7,0-22.8,10.3-22.8,23.3C491.7,412.8,501.8,423,514.5,423z" class="st0"></path>
	<path d="M552.4,399.9c0-9.6,0.1-19.1,0-28.7c0-2.7,0.9-3.9,3.7-3.8c7.7,0.3,15.5-0.6,23.2,0.5
		c10.2,1.4,16.7,8.5,17.7,18.8c0.9,9.1-4.6,17.5-13.8,20.6c-2.1,0.7-2,1.3-0.8,2.8c4.9,5.7,9.7,11.5,14.5,17.3
		c0.8,0.9,1.6,1.9,2.3,2.9c0.9,1.2,0.4,1.9-1,1.9c-2.8,0-5.7,0-8.5,0c-1.2,0-2-0.9-2.7-1.8c-6.8-8.2-13.6-16.4-20.5-24.6
		c-1-1.2-1.3-2.4-1.4-3.9c0-1.8,0.8-2.6,2.6-2.6c2.8,0,5.7,0,8.5,0c6.4-0.2,10.5-3.8,10.9-9.6c0.5-6.3-2.9-10.8-9.3-11.8
		c-4.5-0.8-9.1-0.3-13.7-0.3c-1.6,0-2,1.1-2,2.5c0,2.5,0,5.1,0,7.6c0,13.5,0,27,0,40.6c0,3.9-0.3,4.1-4.2,4.1c-0.3,0-0.6,0-0.9,0
		c-4.6,0-4.6,0-4.6-4.5C552.4,418.4,552.4,409.2,552.4,399.9z" class="st0"></path>
	<path d="M361.8,400c0-9.5,0.1-18.9-0.1-28.4c0-2.8,1-3.7,3.7-3.7c10.6,0.1,21.2,0.1,31.8,0c2.9,0,4.2,0.8,3.8,3.8
		c-0.1,0.7-0.1,1.4,0,2.1c0.3,2.7-0.9,3.6-3.5,3.5c-7.4-0.1-14.9,0.1-22.3-0.1c-2.9-0.1-3.8,1-3.6,3.7c0.2,3.5,0.2,6.9,0,10.4
		c-0.1,2.6,0.8,3.6,3.5,3.6c7.2-0.1,14.5,0.1,21.7-0.1c2.8-0.1,3.7,1,3.7,3.7c-0.1,6.2,0,6.2-6.1,6.2c-6.5,0-13,0.1-19.5,0
		c-2.4,0-3.3,0.8-3.2,3.2c0.1,3.8,0.1,7.5,0,11.3c-0.1,2.4,1,3.2,3.3,3.2c7.3-0.1,14.7,0,22,0c4,0,4.1,0.1,4.2,4.1
		c0,5.7,0,5.7-5.6,5.7c-10,0-20-0.1-29.9,0.1c-3,0-3.9-1-3.8-3.9C361.8,418.9,361.8,409.4,361.8,400z" class="st0"></path>
	<path d="M657.4,432.2c-3.1,0.8-4.9-1-6-4.2c-1.5-4.1-3.3-8.1-4.9-12.2c-0.7-1.8-1.7-2.5-3.7-2.5
		c-5.8,0.1-11.6,0.1-17.4,0c-1.9,0-3,0.7-3.7,2.5c-1.6,4.2-3.5,8.2-5,12.4c-1.1,3.1-2.8,4.2-6.1,4.1c-5.9-0.2-5.9,0-3.8-5.5
		c7.5-18.8,14.9-37.6,22.3-56.4c0.9-2.4,2.1-3.6,4.9-3.5c2.7,0,4,1,4.9,3.5c7.4,18.9,14.9,37.8,22.4,56.7
		C663.4,432.2,663.5,432.2,657.4,432.2z M634.6,383.5c-0.2,0-0.5,0-0.7,0c-2.2,6.3-4.5,12.5-6.7,18.8c-0.5,1.4,0.3,1.8,1.6,1.8
		c3.5,0,7.1,0,10.6,0c1.1,0,2.2-0.3,1.7-1.8C638.9,396,636.7,389.7,634.6,383.5z" class="st0"></path>
	<g>
		<path d="M317.5,460.4c0,5.2-3.7,7.6-7.5,7.6c-4.2,0-7.4-2.7-7.4-7.3c0-4.6,3-7.5,7.6-7.5
			C314.6,453.1,317.5,456.1,317.5,460.4z M307.2,460.5c0,2.4,1,4.3,2.9,4.3c1.7,0,2.8-1.7,2.8-4.3c0-2.1-0.8-4.3-2.8-4.3
			C308,456.3,307.2,458.4,307.2,460.5z" class="st0"></path>
		<path d="M334.8,463.1c0,1.9,0.1,3.4,0.1,4.6h-3.8l-0.2-2h-0.1c-0.6,0.9-1.9,2.3-4.4,2.3c-2.9,0-5-1.8-5-6.2v-8.3h4.4
			v7.6c0,2.1,0.7,3.3,2.2,3.3c1.2,0,1.9-0.8,2.2-1.5c0.1-0.3,0.1-0.6,0.1-1v-8.5h4.4V463.1z" class="st0"></path>
		<path d="M339.5,458.1c0-2.1-0.1-3.5-0.1-4.7h3.8l0.1,2.6h0.1c0.7-2.1,2.5-2.9,3.8-2.9c0.4,0,0.6,0,0.9,0.1v4.2
			c-0.3-0.1-0.7-0.1-1.2-0.1c-1.6,0-2.7,0.9-3,2.2c-0.1,0.3-0.1,0.6-0.1,1v7.2h-4.4V458.1z" class="st0"></path>
		<path d="M358.7,458.1c0-2.1-0.1-3.5-0.1-4.7h3.8l0.1,2.6h0.1c0.7-2.1,2.5-2.9,3.8-2.9c0.4,0,0.6,0,0.9,0.1v4.2
			c-0.3-0.1-0.7-0.1-1.2-0.1c-1.6,0-2.7,0.9-3,2.2c-0.1,0.3-0.1,0.6-0.1,1v7.2h-4.4V458.1z" class="st0"></path>
		<path d="M374.1,462c0.1,1.8,1.9,2.7,4,2.7c1.5,0,2.7-0.2,3.9-0.6l0.6,3c-1.5,0.6-3.2,0.9-5.1,0.9
			c-4.8,0-7.6-2.8-7.6-7.2c0-3.6,2.2-7.6,7.2-7.6c4.6,0,6.3,3.6,6.3,7.1c0,0.8-0.1,1.4-0.1,1.7H374.1z M379.3,458.9
			c0-1.1-0.5-2.9-2.5-2.9c-1.9,0-2.6,1.7-2.7,2.9H379.3z" class="st0"></path>
		<path d="M387.2,463.8c0.8,0.5,2.5,1.1,3.8,1.1c1.3,0,1.9-0.5,1.9-1.2c0-0.7-0.4-1.1-2.1-1.6c-2.9-1-4.1-2.6-4-4.3
			c0-2.6,2.3-4.6,5.8-4.6c1.7,0,3.1,0.4,4,0.8l-0.8,3.1c-0.6-0.3-1.9-0.8-3.1-0.8c-1.1,0-1.7,0.4-1.7,1.2c0,0.7,0.6,1,2.3,1.6
			c2.7,0.9,3.8,2.3,3.9,4.4c0,2.6-2.1,4.6-6.2,4.6c-1.9,0-3.5-0.4-4.6-1L387.2,463.8z" class="st0"></path>
		<path d="M404.4,462c0.1,1.8,1.9,2.7,4,2.7c1.5,0,2.7-0.2,3.9-0.6l0.6,3c-1.5,0.6-3.2,0.9-5.1,0.9
			c-4.8,0-7.6-2.8-7.6-7.2c0-3.6,2.2-7.6,7.2-7.6c4.6,0,6.3,3.6,6.3,7.1c0,0.8-0.1,1.4-0.1,1.7H404.4z M409.6,458.9
			c0-1.1-0.5-2.9-2.5-2.9c-1.9,0-2.6,1.7-2.7,2.9H409.6z" class="st0"></path>
		<path d="M425.6,467.7l-0.3-1.4h-0.1c-0.9,1.1-2.4,1.7-4.1,1.7c-2.9,0-4.6-2.1-4.6-4.4c0-3.7,3.3-5.5,8.3-5.4V458
			c0-0.8-0.4-1.8-2.6-1.8c-1.5,0-3,0.5-3.9,1.1l-0.8-2.8c1-0.6,2.9-1.2,5.5-1.2c4.7,0,6.2,2.8,6.2,6.1v4.9c0,1.4,0.1,2.7,0.2,3.5
			H425.6z M425,460.9c-2.3,0-4.1,0.5-4.1,2.2c0,1.1,0.8,1.7,1.7,1.7c1.1,0,2-0.7,2.3-1.6c0.1-0.2,0.1-0.5,0.1-0.8V460.9z" class="st0"></path>
		<path d="M434,458.1c0-2.1-0.1-3.5-0.1-4.7h3.8l0.1,2.6h0.1c0.7-2.1,2.5-2.9,3.8-2.9c0.4,0,0.6,0,0.9,0.1v4.2
			c-0.3-0.1-0.7-0.1-1.2-0.1c-1.6,0-2.7,0.9-3,2.2c-0.1,0.3-0.1,0.6-0.1,1v7.2H434V458.1z" class="st0"></path>
		<path d="M456.6,467.3c-0.8,0.3-2.3,0.6-4,0.6c-4.6,0-7.5-2.8-7.5-7.3c0-4.2,2.8-7.6,8.1-7.6c1.2,0,2.4,0.2,3.4,0.6
			L456,457c-0.5-0.2-1.3-0.4-2.5-0.4c-2.3,0-3.8,1.7-3.8,4c0,2.6,1.7,4,3.9,4c1,0,1.9-0.2,2.5-0.4L456.6,467.3z" class="st0"></path>
		<path d="M460.2,447h4.4v8.1h0.1c0.5-0.6,1-1.1,1.7-1.5c0.6-0.3,1.5-0.6,2.3-0.6c2.8,0,5,1.9,5,6.2v8.3h-4.4v-7.8
			c0-1.9-0.6-3.1-2.3-3.1c-1.2,0-1.9,0.8-2.2,1.5c-0.1,0.3-0.1,0.7-0.1,1v8.4h-4.4V447z" class="st0"></path>
	</g>
	<g>
		<path d="M510.8,453.4l2.1,7c0.2,0.8,0.5,1.9,0.7,2.6h0.1c0.2-0.8,0.4-1.8,0.6-2.6l1.7-7h4.7l-3.3,9.4
			c-2,5.6-3.4,7.9-5,9.3c-1.5,1.3-3.2,1.8-4.3,1.9l-0.9-3.7c0.6-0.1,1.2-0.3,1.9-0.8c0.7-0.3,1.4-1,1.8-1.8c0.1-0.2,0.2-0.4,0.2-0.6
			c0-0.1,0-0.4-0.2-0.7l-5.2-13H510.8z" class="st0"></path>
		<path d="M537.4,460.4c0,5.2-3.7,7.6-7.5,7.6c-4.2,0-7.4-2.7-7.4-7.3c0-4.6,3-7.5,7.6-7.5
			C534.5,453.1,537.4,456.1,537.4,460.4z M527.1,460.5c0,2.4,1,4.3,2.9,4.3c1.7,0,2.8-1.7,2.8-4.3c0-2.1-0.8-4.3-2.8-4.3
			C527.9,456.3,527.1,458.4,527.1,460.5z" class="st0"></path>
		<path d="M554.7,463.1c0,1.9,0.1,3.4,0.1,4.6H551l-0.2-2h-0.1c-0.6,0.9-1.9,2.3-4.4,2.3c-2.9,0-5-1.8-5-6.2v-8.3h4.4
			v7.6c0,2.1,0.7,3.3,2.2,3.3c1.2,0,1.9-0.8,2.2-1.5c0.1-0.3,0.1-0.6,0.1-1v-8.5h4.4V463.1z" class="st0"></path>
		<path d="M559.4,458.1c0-2.1-0.1-3.5-0.1-4.7h3.8l0.1,2.6h0.1c0.7-2.1,2.5-2.9,3.8-2.9c0.4,0,0.6,0,0.9,0.1v4.2
			c-0.3-0.1-0.7-0.1-1.2-0.1c-1.6,0-2.7,0.9-3,2.2c-0.1,0.3-0.1,0.6-0.1,1v7.2h-4.4V458.1z" class="st0"></path>
		<path d="M579.2,467.7v-11h-1.9v-3.3h1.9v-0.6c0-1.7,0.5-3.6,1.8-4.8c1.1-1,2.6-1.4,3.9-1.4c1,0,1.7,0.1,2.4,0.3
			l-0.2,3.4c-0.4-0.1-0.8-0.2-1.4-0.2c-1.5,0-2.1,1.1-2.1,2.5v0.7h2.8v3.3h-2.8v11H579.2z" class="st0"></path>
		<path d="M603.1,463.1c0,1.9,0.1,3.4,0.1,4.6h-3.8l-0.2-2h-0.1c-0.6,0.9-1.9,2.3-4.4,2.3c-2.9,0-5-1.8-5-6.2v-8.3h4.4
			v7.6c0,2.1,0.7,3.3,2.2,3.3c1.2,0,1.9-0.8,2.2-1.5c0.1-0.3,0.1-0.6,0.1-1v-8.5h4.4V463.1z" class="st0"></path>
		<path d="M612.8,449.4v4.1h3.2v3.3h-3.2v5.1c0,1.7,0.4,2.5,1.7,2.5c0.6,0,1-0.1,1.3-0.1l0,3.3
			c-0.6,0.2-1.6,0.4-2.9,0.4c-1.4,0-2.6-0.5-3.3-1.2c-0.8-0.8-1.2-2.2-1.2-4.2v-5.8h-1.9v-3.3h1.9v-3.1L612.8,449.4z" class="st0"></path>
		<path d="M633.1,463.1c0,1.9,0.1,3.4,0.1,4.6h-3.8l-0.2-2H629c-0.6,0.9-1.9,2.3-4.4,2.3c-2.9,0-5-1.8-5-6.2v-8.3h4.4
			v7.6c0,2.1,0.7,3.3,2.2,3.3c1.2,0,1.9-0.8,2.2-1.5c0.1-0.3,0.1-0.6,0.1-1v-8.5h4.4V463.1z" class="st0"></path>
		<path d="M637.8,458.1c0-2.1-0.1-3.5-0.1-4.7h3.8l0.1,2.6h0.1c0.7-2.1,2.5-2.9,3.8-2.9c0.4,0,0.6,0,0.9,0.1v4.2
			c-0.3-0.1-0.7-0.1-1.2-0.1c-1.6,0-2.7,0.9-3,2.2c-0.1,0.3-0.1,0.6-0.1,1v7.2h-4.4V458.1z" class="st0"></path>
		<path d="M653.1,462c0.1,1.8,1.9,2.7,4,2.7c1.5,0,2.7-0.2,3.9-0.6l0.6,3c-1.5,0.6-3.2,0.9-5.1,0.9
			c-4.8,0-7.6-2.8-7.6-7.2c0-3.6,2.2-7.6,7.2-7.6c4.6,0,6.3,3.6,6.3,7.1c0,0.8-0.1,1.4-0.1,1.7H653.1z M658.3,458.9
			c0-1.1-0.5-2.9-2.5-2.9c-1.9,0-2.6,1.7-2.7,2.9H658.3z" class="st0"></path>
	</g>
</g>
</svg>
