<svg xml:space="preserve" style="enable-background:new 0 0 800 800;" viewBox="0 0 800 800" y="0px" x="0px" xmlns:xlink="http://www.w3.org/1999/xlink" xmlns="http://www.w3.org/2000/svg" id="Layer_1" version="1.1">
<style type="text/css">
	.st0{fill:#FFFFFF;}
	.st1{fill-rule:evenodd;clip-rule:evenodd;fill:#FFFFFF;}
</style>
<g>
	<path d="M530.2,519.6c4.9,0,8.6,0.8,11.1,2.3c2.4,1.5,3.7,3.9,3.7,7.1c0,3.1-1.2,5.4-3.6,6.9
		c-2.4,1.5-6.1,2.3-11.1,2.3h-16.8v15.7h14.5c4.9,0,8.6,0.8,11.1,2.3c2.4,1.5,3.6,3.9,3.6,7c0,3.1-1.2,5.5-3.6,7
		c-2.4,1.5-6.1,2.3-11.1,2.3h-14.5v16.5h17.5c5,0,8.7,0.8,11.1,2.3c2.4,1.5,3.6,3.9,3.6,6.9c0,3.1-1.2,5.5-3.6,7
		c-2.4,1.5-6.1,2.3-11.1,2.3h-24.1c-5.4,0-9.1-0.9-11-2.7c-2-1.8-3-5.1-3-10v-61.2c0-5.3,1.1-9,3.2-11c2.1-2,5.8-3,11.1-3H530.2z
		 M433.5,572.5h21.7l-10.5-32.6L433.5,572.5z M427.6,590.9l-3.1,8.9c-1,2.9-2.3,5.2-4,6.7c-1.7,1.5-3.7,2.3-5.9,2.3
		c-2.9,0-5.2-0.9-7.1-2.7c-1.9-1.8-2.8-4.1-2.8-6.9c0-1.1,0.1-2.2,0.3-3.1c0.2-1,0.4-1.9,0.7-2.7l23.6-62.1c1.7-4.5,3.9-7.7,6.4-9.9
		c2.6-2.1,5.7-3.1,9.5-3.1c3.5,0,6.6,1,9.2,3c2.6,2,4.6,4.9,6,8.7l23,63.1c0.4,1.3,0.8,2.5,1,3.6c0.2,1.1,0.3,2,0.3,2.8
		c0,2.8-1,5-2.9,6.8c-1.9,1.8-4.4,2.6-7.3,2.6c-2.7,0-4.9-0.8-6.7-2.4c-1.8-1.6-3.2-4.1-4.2-7.4l-2.6-8.1H427.6z M363.1,561.1h8.9
		c4.7,0,8.2-1,10.6-2.9c2.4-2,3.6-4.9,3.6-8.7c0-3.9-1.2-6.8-3.5-8.7c-2.3-1.9-5.9-2.8-10.7-2.8h-8.9V561.1z M363.1,594.4
		c0,4.8-0.9,8.4-2.6,10.7c-1.7,2.3-4.3,3.5-7.8,3.5c-3.5,0-6.1-1.2-7.8-3.5c-1.7-2.3-2.6-5.9-2.6-10.7v-60.7c0-5.4,1.1-9,3.2-11
		c2.1-2,5.8-3,11.1-3h18.7c10.3,0,18.4,2.7,24.3,8.1c5.9,5.4,8.9,12.7,8.9,21.8c0,9.3-2.8,16.6-8.4,21.9c-5.6,5.3-13.3,7.9-23.2,7.9
		h-13.9V594.4z M283.2,572.5h21.7l-10.5-32.6L283.2,572.5z M277.3,590.9l-3.1,8.9c-1,2.9-2.3,5.2-4,6.7c-1.7,1.5-3.7,2.3-5.9,2.3
		c-2.9,0-5.2-0.9-7.1-2.7c-1.9-1.8-2.8-4.1-2.8-6.9c0-1.1,0.1-2.2,0.3-3.1c0.2-1,0.4-1.9,0.7-2.7l23.6-62.1c1.7-4.5,3.9-7.7,6.4-9.9
		c2.6-2.1,5.7-3.1,9.5-3.1c3.5,0,6.6,1,9.2,3c2.6,2,4.6,4.9,6,8.7l23,63.1c0.4,1.3,0.8,2.5,1,3.6c0.2,1.1,0.3,2,0.3,2.8
		c0,2.8-1,5-2.9,6.8c-1.9,1.8-4.4,2.6-7.3,2.6c-2.7,0-4.9-0.8-6.7-2.4c-1.8-1.6-3.2-4.1-4.2-7.4l-2.6-8.1H277.3z" class="st0"></path>
	<path d="M354.3,335c0,4.1,8.4,19.4,10.7,22.4c3.7,4.9,11.9,13.1,20,13.1h4.9c0.9,0,1.4-0.9,1.4-1.8
		c0-8.9-7.8-18.4-13-22.2c-3.5-2.6-6.5-4.9-10.6-7c-1.4-0.7-10.8-5.6-12-5.6C355,333.9,354.3,334.5,354.3,335 M408.8,368.7
		c0,0.6,0.5,1.3,0.7,1.8c7.3,0,8.7,0.2,14.5-2.7c3.2-1.6,7.7-5.5,9.8-8.1c2.9-3.6,11.9-18.9,11.9-24.3V335c0-0.8-0.2-1.1-1.1-1.1
		c-4.2,0-19.4,10.1-22.7,12.5C416.8,350.4,408.8,359.9,408.8,368.7z M396.5,327.8V369c0,7.2,0,14.4,0,21.6c0,5.6-1.8,17.5,3.5,17.5
		h0.4c5,0,3.2-12.9,3.2-18.2c0-7.1,0-14.2,0-21.2v-40.8H396.5z" class="st1"></path>
	<path d="M400,279.4c14.3,0,27.1-11.5,27.1-25.7v-3.2c0-6.9-5.3-13.5-8.9-17.1c-4-4.1-11.2-6.8-19.3-6.8
		c-13.6,0-26.6,12.6-26.1,26.7C373.4,267.9,385.2,279.4,400,279.4 M421.8,251.6c0,2.2-0.5,6.1-1.8,7l0.4-5.3
		c0.5-6.2-4.5-12.8-7.6-15.8c-4.2-4-9.4-5.4-17.5-5.4c0.7-0.9,1.9-1.4,3.5-1.4h1.1C411.6,230.9,421.8,240.1,421.8,251.6z" class="st1"></path>
	<path d="M430.3,255.5v1.8c0,5.9,3.5,10.4,8.5,11.2c4.9,0.7,12.1,2.9,17.2,2.9h3.9c6.9,0,10.2-8.2,10.2-15.5v-0.4
		c0-8.1-5.7-14.1-14.1-14.1c-2.2,0-5.5,1.1-8.4,1.4c-1.5,0.2-2.1,1.2-3.5,1.4c-2.5,0.3-2.2,0.2-4.2,0.7c-2.9,0.7-4.8,1.4-6.3,3.5
		C432.1,250.3,430.3,252.4,430.3,255.5 M431.3,241.8h4.2c2.5,0,9.6-3.8,12.2-4.6c4.6-1.5,7.7-2.9,9.5-7.3c3.5-8.5-5.1-19.3-13-19.3
		h-1.4c-6,0-13.1,9.4-16.6,12.9C419.5,230.2,426.1,241.8,431.3,241.8z M402.1,216.1v1.4c0,4.4,7.4,9.5,12,9.5h0.7
		c4,0,8.6-6.2,10.4-8.9c1.8-2.6,7.2-9.1,7.2-12.5v-2.5c0-5.3-8-12-12.7-12h-3.2c-5.8,0-10.3,3.5-11.3,8.4
		C404.5,203.3,402.1,212.7,402.1,216.1z M367.6,202.8v2.1c0,4.2,5.3,10.1,7.3,13.1c2.1,3.2,6.3,9.1,11.3,9.1h0.4
		c4.4,0,11.6-5.7,11.6-10.2c0-3.9-2.2-12.1-3-16.7c-0.9-4.6-5.5-9-10.7-9h-2.5C375.8,191.2,367.6,197.4,367.6,202.8z M341.9,224.9
		c0,6.6,3.5,10.8,8.8,11.9c3.9,0.9,11.4,5.3,15.8,5.3h0.4c5.9,0,10.2-6.6,10.2-12.7c0-1.2-2.4-5.8-3.4-6.5c-1.1-0.8-4-3.9-5.2-5
		c-3-3-6.8-7.8-12.2-7.8c-4.3,0-7.5,2.4-9.8,4.7C345,216.4,341.9,222,341.9,224.9z M340.9,271.7h2.5c2.6,0,15-2.2,17.2-2.9
		c6-1.9,9.2-3,9.2-11.2v-0.7c0-7-3.6-10.8-9.3-12.1c-5.3-1.2-12.5-3.7-17.7-3.7h-1.4c-6.4,0-11.1,8.4-11.6,15.1
		C329.1,263.7,334,271.7,340.9,271.7z M341.9,293.8v0.4c0,9.5,13.5,22.7,24,16.9c4.7-2.6,7.2-7.6,10.3-11.8
		c1.9-2.5,7.9-10.7,7.9-14.3v-0.4c0-6.3-7.4-14.1-13.4-14.1H369c-3.9,0-13,6.7-16.4,8.6C347.2,282.2,341.9,285.6,341.9,293.8z
		 M380.6,315.3c0,3.8,3.1,8.5,5.3,10.1c8.5,6.2,17.4,7.6,26.4,0.8c1.7-1.3,4.5-5.3,4.5-8.2v-6c0-1.2-3.2-19.2-3.5-20
		c-2.6-6.5-4.7-9.5-13.7-9.5h-1.4c-7.9,0-11.3,5-13,11.2c-0.9,3.2-4.6,16.9-4.6,19.7V315.3z M415.8,284c0,6.1,6.7,12.4,8.9,16.8
		c2.3,4.4,7.8,11.7,14.3,11.7h3.2c2.9,0,8.8-4.3,10.5-6.1c1.8-1.8,5.4-8.2,5.4-11.5v-1.4c0-8.5-6.1-10.9-11-14.6
		c-4.2-3.1-11-7.9-17.8-7.9h-1.1c-3,0-2.2,1.1-4.5,1.8c-2.1,0.7-2,1.6-3.3,3C418.5,277.7,415.8,280.5,415.8,284z" class="st1"></path>
	<path d="M304.3,237.6c0,1.3,2.1,2.6,1.7,5.5c-0.3,2.2-0.7,4.1-1.1,6.3c-0.9,4.4-1.2,8.4-2,12.7
		c-1.3,6.2-3.8,19-3.8,25.8c1.1-1.2,11.3-40.6,11.3-44.3v-1.4c0-1.8-3.1-5.3-4.6-5.3h-0.4C304.8,236.9,304.3,237.1,304.3,237.6
		 M312.7,244.6l-0.1,3.2l-4.2,25.3l0.3,0.1c1.7-1.2,3.7-9.4,4.4-12.2c0.7-3,3.7-10.3,3.7-12.8V246c0-2.4-2.5-5.6-4.2-5.6h-1.4
		C311.4,242.8,312.7,242.5,312.7,244.6z M293.4,294.2c0-3.4,2.5-13.1,3.3-16.7c1.2-5.4,1.8-11.9,3.3-16.7c1.3-4.4,2.6-11.7,3.4-16.6
		c1.1-6-0.6-12.9-6.2-12.9h-2.8c-6.9,0-8.1,7.6-9.7,13.1c-1.7,6.1-3.1,11.6-4.9,17.7c-1.7,6-3.5,11.9-5.1,17.7
		c-1.1,3.9-4.6,14-4.6,17.9v1.8c0,2.2,6.3,18.7,7.5,21.7c2.7,6.8,4.7,15.2,9.3,19.9c4.9,5,9.5,10,13.5,15.7c1.4,2,12,16.2,12,17.2
		c0,2.2-1.1,3.5-1.1,6v1.1c1.6,0.4,14.4,7.6,16.7,9c2.5,1.6,14.6,8.6,17.1,8.6c2-8.6,4.9-23.1,4.9-33.1v-1.1c0-10.1-15-36.4-19-46.1
		c-2.8-6.8-5.4-17.6-7.7-25c-1.1-3.5-2.6-9.1-4-12.2c-4.9-11.3-16.8-8.1-16.8,3.8c0,3,2.1,11.3,2.7,14.9c0.7,4.4,1.8,10.6,3.1,14.5
		c1.3,3.9,4.2,8.5,5.1,12.2c-1.2-0.4-20.1-29.5-20.1-31.3V294.2z M476,217.9v0.7c0,1,22.4,40.3,23.6,41.1
		c-1.9-8.3-19.4-39.4-19.4-43.6V214c0-1.5,0.6-1.1,0.7-2.8C477.5,211.2,476,214.5,476,217.9z M470.4,221v2.5
		c0,2.1,13.4,22.7,15.1,23.9c-0.5-5.7-11.6-22.1-11.6-27.8c0-1,0.7-0.9,0.7-3.2C472.4,216.5,470.4,218.8,470.4,221z M467.8,359.4
		c0.6,3.6,1,7,1.6,10.4c0.6,3.5,0.9,7,1.5,10.8c0.4,2.2,0.6,9.3,2.7,9.3c0.8,0,22-10.7,25.3-12c2-0.8,4.3-2,6.5-3
		c2.2-1,1.8-4.3,1.6-7.5c-0.2-5.9-0.7-11.5-0.7-17.9v-2.1c0-1.8,15.7-32.6,17.6-35.9c4.6-7.7,4.4-10.4,5.3-21.5
		c0.6-7.8,2.1-16.7,2.1-24.6v-2.1c0-3.4-15.7-27.6-18.4-31.9c-3.3-5.3-6.2-10.5-9.5-15.8c-2.6-4.1-6.3-12.7-12.2-12.7h-1.4
		c-4.7,0-8.4,3.9-8.4,8.4c0,4.3,10.4,22.9,12.7,27.4c1.3,2.6,13.4,25.8,13.4,26.4v0.4c0,1.7-4.9,15.3-5.6,18.3
		c-0.7,2.5-4.8,17-6.3,17.6l2.3-16.5c-0.2,0-1.9-20.5-2.2-22c-1-5.5,0.2-5-2.7-9.3c-1.2-1.9-4.1-4.6-7-4.6c-0.7,0-4.2,1.5-4.8,2.2
		c-1.4,1.3-2,1.9-2.7,4c-1,3.3-1.3,8.4-1.3,12.4c0.1,8.4-1.1,18.3-1.1,26.4c0,9.3-3.3,14.6-5.1,22.3c-1.6,6.6-5.1,14.3-5.1,22.4V349
		C465.8,350.5,467.3,357,467.8,359.4z" class="st1"></path>
	<path d="M497.1,398.6c0,5,3.1,13.7,7.4,13.7c3.6,0,7.4-7.6,7.4-12.7v-1.1c0-5-5.7-17.8-9.5-17.9
		C500.9,386.3,497.1,390.1,497.1,398.6 M471.4,399c-3,2-5.2,13.5-5.3,19c-0.1,5.6,4.7,15.5,8.5,15.5h0.4c2.7,0,7-7.6,7-11.3v-4.6
		C482,412.6,474.6,401.1,471.4,399z M253.3,412c0,1.5,7,6.3,8.4,7c3.4,1.8,6.3,3.9,11.6,3.9h3.2c3.6,0,10.9-4.6,10.9-7.7v-0.4
		c0-3-8.6-8.4-12.3-8.4h-6.3c-3.5,0-15.5,2.9-15.5,5.3V412z M527,422.9c5.7,0,19.7-7.5,19.7-11.3c0-2.3-11.6-5.3-14.8-5.3h-4.2
		c-3.5,0-7.3,1.1-9.4,2.5c-1.5,1-5.7,4.3-5.7,6.3c0,2.6,7.4,7.7,10.9,7.7H527z M309.2,423.9c2.3,0,5.6-4.3,6.6-6.1
		c1.6-3.1,2.2-5.6,2.2-10.1v-1.1c0-4.8-2-15.2-4.6-16.9c-4.5,3-11.3,13.6-11.3,21.4C302.2,415.5,305.7,423.9,309.2,423.9z
		 M482,408.5c0,6,4.4,15.5,9.1,15.5c2.6,0,6.7-7.4,6.7-10.5v-4.9c0-4.5-8.6-18.6-11.3-18.6c-1.7,0-4.6,13.1-4.6,16.2V408.5z
		 M325.4,433.4c4.3,0,8.4-9.6,8.4-15.5v-0.4c0-4-2.5-18.3-4.9-18.3c-1.9,0-6.5,7.4-7.4,9.1c-1.8,3.6-3.5,7.2-3.5,12.7
		C318,425.2,322.3,433.4,325.4,433.4z M341.6,439.7c4.8,0,8.8-9.8,8.8-16.2v-0.4c0-3.9-2.5-17.6-4.9-17.6
		c-2.8,0-10.9,14.5-10.9,19.7v2.8c0,3.8,4.2,11.6,6.7,11.6H341.6z M450,426c0,4.9,4.8,13.7,8.1,13.7h0.4c4,0,7.4-8.6,7.4-13.7
		c0-5.5-8-20.4-10.9-20.4h-0.4c-1.8,0-4.6,11.3-4.6,13.7V426z M287.1,442.6c6.2,0,15.1-6.1,15.1-11.3v-1.1c0-2-7.9-5.6-11.3-5.6
		h-2.8c-5.9,0-22.5,7.4-22.5,10.9c0,2.7,14.7,7,19,7H287.1z M497.8,430.6c0,5.3,8.7,12,14.4,12h4.9c3.4,0,17.2-4.7,17.2-7v-0.4
		c0-1.6-8.3-6.4-10.1-7.1c-4.1-1.8-7.7-3.4-13.5-3.4h-0.4C506.3,424.6,497.8,427.8,497.8,430.6z M359.5,444.7c1.5,0,5.5-4.6,6.2-6.1
		c1.4-2.7,2.2-5.7,2.2-9.7v-3.2c0-3.2-3-15.5-5.3-15.5c-1.1,0-5.9,7.5-6.7,8.8c-1.5,2.6-3.9,7.2-3.9,11.3v2.1
		C352.2,436.9,356.4,444.7,359.5,444.7z M432,429.2c0,3.2,1.3,7.7,2.6,9.7c1,1.6,4.3,5.8,6.2,5.8c3,0,7.4-8.3,7.4-12V431
		c0-5.7-7.9-20.7-10.9-20.7c-2.2,0-5.3,12.7-5.3,15.8V429.2z M371.5,433.8c0,4.3,4.4,12,8.1,12c3.4,0,7.7-7.6,7.7-12.3v-4.2
		c0-3.8-4.4-16.5-6.7-16.5c-1.4,0-5.7,7.4-6.3,8.8c-1.5,3.9-2.9,6.4-2.9,11.9V433.8z M421.1,445.7c2.1,0,5.2-4.7,6.1-6.6
		c1.4-2.9,1.8-6.5,1.2-10.2c-0.7-3.8-6.3-16.3-8.7-16.3h-0.4c-2.8,0-6.7,14.8-6.7,19.3C412.7,437.7,416.6,445.7,421.1,445.7z
		 M391.2,432c0,3.6,1.1,6.8,2.5,9.1c0.6,1.1,4.3,5.6,5.6,5.6h1.1c2.6,0,7.7-8.2,7.7-12V431c0-4.5-5.6-17.9-8.4-17.9
		c-1.5,0-4.9,6.6-5.6,8.1C392.5,424.2,391.2,427.4,391.2,432z M506.3,414.2c-3.7,3.3-7,6.6-11,9.4c-8.9,6.2-15.9,10-26.7,14.4
		c-9.7,4-20.7,6.6-32.5,8.6c-4.8,0.9-13.1,2.3-18.2,2.2c-2.8,0-6.4,0.4-9.8,0.4c-4.8,0-6.9,1.8-8.4,1.8c-0.1,0-2.9-1.3-3.8-1.5
		c-1.5-0.4-3-0.3-5-0.3c-4.1,0-6.3-0.1-9.6-0.6c-3-0.5-6.4-0.4-9.4-0.8c-2.5-0.3-7-1.2-8.8-1.4c-8.7-0.6-25.1-5.7-32.2-8.6
		c-17.4-6.9-38-19.9-46.2-35.4c0.7-1.4,1.4-4.2,1.4-6.3V394c0-5.6-3-10.6-5.6-13.8c-1.3-1.7-7.9-9.1-9.9-9.1c-2,0-3.2,11.6-2.7,14.7
		c0.8,5.1,1.5,9.5,4.6,12.7c1.4,1.5,3,3,4.9,3.9c1.7,0.8,5,1.4,5.8,2.6c2,3,5,7.4,7.4,9.8c12.4,12.5,23.5,20.4,41.4,27.5
		c17.1,6.8,35,10.3,57.2,11.7c6.5,0.4,7.4,2.9,7.4,9.8c0,5.6-0.4,11.9-0.4,16.9c0,5.7,0,11.5,0,17.2c0,4.8-2,13.4,3.2,13.4h1.4
		c1.7,0,3.2-1.4,3.2-3.2v-9.5c0-10.5-0.4-20.1-0.4-30.2c0-17.9,1.2-12.5,15.6-15c4.6-0.8,9.1-0.9,13.7-1.8c4.7-0.8,8.2-1.5,12.7-2.5
		c7.3-1.6,17-4.4,23.1-7.2c15.2-6.9,26-12.5,37.2-23.6c2.8-2.8,4.8-5,7.3-8.2c2.8-3.7,2.9-5.9,7.9-7.2c7.1-1.9,11.3-9.6,11.3-18.9
		v-0.4c0-3-0.5-12.7-2.8-12.7c-1.9,0-8.4,7.5-9.8,9.2c-2.1,2.7-5.7,8.8-5.7,13.3v2.5c0,2.8,1.4,4.5,1.4,6.3
		C515.4,403.5,507.5,413.1,506.3,414.2z M480.2,440.5c0,10.9,10.7,16.9,22.2,16.9c3.4,0,11.6,0.2,11.6-3.2c0-1.5-8.5-9.8-10.1-11
		c-3.2-2.4-9-6.5-14.2-6.5h-1.4c-2.3,0-8.1,1.5-8.1,3.5V440.5z M299.4,457.3c10.3,0,20.8-7.1,20.8-16.9c0-2.2-6-3.9-8.1-3.9h-1.4
		c-5.1,0-11.7,4.3-14.7,6.7c-1.8,1.4-9.9,9.5-9.9,11.5c0,2,7.9,2.5,10.6,2.5H299.4z M460.9,448.9c0,13.9,11.6,19.7,25.7,19.7h4.2
		c1,0,1-0.2,1.8-0.4v-1.4c0-2.9-7.1-11.2-9.1-13.1c-3-3-8.6-7.6-14.2-7.6h-1.1C465.5,446.1,460.9,446.4,460.9,448.9z M313.8,468.6
		c13.5,0,25.3-5.7,25.3-19v-0.4c0-2.5-3.1-3.2-5.6-3.2h-1.1c-6.8,0-12.3,4-15.7,7.5c-1.9,1.9-9.2,10.9-9.2,13.6
		c0,0.8,0.6,1.4,1.4,1.4H313.8z M333.2,479.8c4.1,0,14.3-4.8,16.9-6.7c4-2.8,8.4-8.1,8.4-14.8v-1.1c0-2.2-0.5-6-2.5-6h-3.5
		c-11.4,0-18.8,17-21.1,27.1c0.4,0.8,0.3,1.4,1.4,1.4H333.2z M441.5,458c0,6.9,4.7,12.1,8.7,15.2c2.8,2.1,12.7,6.6,17.3,6.6
		c0.4,0,1.1-0.7,1.1-1.4c0-4.5-5.3-15-7.3-18c-3.2-4.8-8.3-9.1-16.3-9.1H444C442.2,451.4,441.5,456.2,441.5,458z M360.6,489.7
		c2.2,0,11.2-7.1,13.2-8.6c2.8-2,7.9-9.4,7.9-13.9V463c0-2.1-1.9-8.4-3.9-8.4c-6.4,0-11.4,6.1-14,10.3c-2.4,3.8-5,13.2-5,19.3v3.5
		c0,0.9,0.2,1,0.4,1.8C360.2,489.6,359.8,489.7,360.6,489.7z M418.3,466.5c0,6,4.9,11.3,8,14.5c1.7,1.7,11.4,8.7,13.8,8.7
		c0.6,0,1.1-1,1.4-1.4c0-8-1.8-16.8-4.5-22.3c-2.3-4.7-8.5-11.5-14.9-11.5C419.7,454.5,418.3,463.1,418.3,466.5z M288.1,399.3
		c0,4.8,3.9,13,7.4,13h0.4c3.7,0,7-7.9,7-12.3V399c0-4.5-3.3-18.3-6-18.3C294.3,380.7,288.1,394.4,288.1,399.3z" class="st1"></path>
</g>
</svg>
