<svg xml:space="preserve" style="enable-background:new 0 0 800 800;" viewBox="0 0 800 800" y="0px" x="0px" xmlns:xlink="http://www.w3.org/1999/xlink" xmlns="http://www.w3.org/2000/svg" id="Layer_1" version="1.1">
<style type="text/css">
	.st0{fill:#FFFFFF;}
	.st1{fill-rule:evenodd;clip-rule:evenodd;fill:#FFFFFF;}
</style>
<g>
	<path d="M458,340c-6.6,0-12.2,5.3-12.2,11.7c0,6.1,5.5,11.6,11.7,11.7c6.4,0.1,11.7-5.1,11.8-11.6
		C469.3,345.3,464.3,340,458,340z" class="st0"></path>
	<path d="M570.1,340c-6.4,0-11.8,5.2-11.8,11.3c0,6.8,5.1,12,11.7,12c6.5,0,11.7-5.2,11.7-11.6
		C581.8,345.3,576.5,340,570.1,340z" class="st0"></path>
	<path d="M489.2,405.4c-1.7,1.6-2.5,3.7-2.4,6c0,2.8,0.8,4.3,2.6,4.8c1.7,0.5,3.7-0.7,4.8-2.9c1-2,1.4-4.1,0.8-6.3
		C494.2,404.1,491.4,403.3,489.2,405.4z" class="st0"></path>
	<path d="M543.2,404.2c-1.7,0.1-3.1,0.9-4,2.2c-0.5,0.6-1.2,1.4-0.7,2.2c0.4,0.8,1.4,0.5,2,0.5c1.4,0,2.8-0.1,4-0.8
		c1.1-0.6,1.4-1.6,1.2-2.8C545.3,404.4,544.3,404.2,543.2,404.2z" class="st0"></path>
	<path d="M576.3,404.2c-1.7,0.1-3.2,0.8-4.2,2.3c-0.4,0.7-1.2,1.4-0.6,2.2c0.5,0.7,1.4,0.4,2.1,0.5
		c1.5-0.1,2.9-0.2,4.1-1.1c0.9-0.7,1.1-1.7,0.8-2.7C578.2,404.3,577.2,404.2,576.3,404.2z" class="st0"></path>
	<path d="M629.1,366.8c-0.6-6.6-4.1-18.7-7.6-27.7c-0.4-1.3-0.9-2.6-1.3-3.9c-3.1-8.9-8-16.7-15.3-22.9
		c-1-0.9-1.3-1.7-0.7-2.9c5.3-11.5,2.9-27.2-10.7-35.3c-2.6-2.2-7.9-3.8-13.9-3.8c-4.5,0-8.5,0.8-11.3,2.2c-1.2,0.4-2.4,0.9-3.6,1.5
		c-7.9,3.7-14.3,9.3-19.9,15.8c-0.4,0.4-0.7,0.9-1.1,1.3c-0.6,0.5-0.8,1.7-1.8,1.5c-0.8-0.2-0.8-1.4-1.1-2.1
		c-4-13.6-18.7-22.6-34.6-18.5c-2,0.5-4,1.4-5.8,2.4c-0.7,0.4-1.6,0.4-2.4,0c-2.2-1.2-4.4-2.3-6.8-3.2c0,0,0,0,0,0
		c-2.3-0.8-5.3-1.4-8.6-1.4c-3.1,0-6,0.5-8.3,1.2c0,0,0,0,0,0c-0.1,0-0.2,0-0.2,0.1c-10.7,2.7-19.9,13.4-20.3,25.4
		c-0.1,1.8-0.6,2.5-2.4,2.7c-6.9,0.8-13.6,2.6-19.4,6.3c-0.8,0.5-1.4,0.7-2.1,0.5c-13.1-20.6-46.3-35.7-85.5-36.7
		c-28.1-0.7-53.5,5.9-70.8,17c0,0,0,0,0,0c-1.8,1-2.4,1.3-3.1,0.6c-4.2-10.4-14.4-17.8-26.3-17.8c-12.8,0-23.6,8.5-27.1,20.1
		c-0.9,2.8-1.4,5.8-1.4,8.9c0,12.2,0,24.4,0,36.7c0,0.7,0.3,1.5-0.4,1.9c-0.8,0.4-1.3-0.4-1.8-0.7c-10.5-6.7-24.4-5.3-33.5,3.1
		c-5.3,4.9-8.5,10.9-9.3,18.1c-0.6,6,1.4,11.5,4,16.8c6.1,12.7,17.5,21.8,30.8,26.6c1.6,0.6,1.8,1.7,1.8,3.2
		c0.4,16.3,3.7,32,10.2,46.9c13.7,31.7,36.2,54.7,67.8,68.8c10.6,4.8,21.7,8.1,33.1,9.8c20.8,3,41.3,1.5,61.4-5.3
		c19.4-6.6,36.8-16.7,51.3-31.3c10.3-10.3,18.8-21.9,25.1-35.1c3-6.3,6.6-12.2,12-16.8c6.1-5.2,13.3-7.8,21.3-8.6
		c10.4-1.1,20.6,0.3,30.8,2.1c14.5,2.6,28.7,6.7,43.3,8.6c8.5,1.2,17.1,1.5,25.6-0.9c9.8-2.9,15.8-9.6,19.1-19
		c2.1-6,3.4-12.3,3.5-18.7c0-1.6,0.7-2.6,2.1-3.3c6.7-3.1,11.1-8,13.6-14.5C629.2,383.2,629.9,375.5,629.1,366.8z M342.9,344.3
		c1.6-10,6.7-17.7,14.9-23.6c15.4-11,36.6-7.5,48.9,7.8c4.3,5.3,6.2,11.6,6.8,18.4c0.9,9.3,0.4,18.7,0.3,28
		c-0.1,7.5-5.8,13.4-12.5,13.8c-7.9,0.5-14.6-5.8-14.7-13.8c-0.1-8,0-15.9,0-23.9c0-2.6-0.5-4.9-2.4-6.8c-2.6-2.5-5.6-3.5-9.1-2.1
		c-3.6,1.5-5.5,4.3-5.5,8.2c-0.1,8.1,0,16.3,0,24.4c0,4-1.4,7.5-4.3,10.3c-3.9,3.7-8.6,4.8-13.6,2.8c-5.2-2-8.6-5.9-8.9-11.6
		c-0.3-4.9-0.1-9.9-0.1-16.7C342.7,355.8,342,350,342.9,344.3z M265.5,327c0.4-6.9,6.2-12.4,13-12.6c7-0.2,12.9,5,13.7,12
		c0.7,6.7,0.2,13.3,0.3,20c0,2.2-0.1,4.3,0,6.5c0.2,4,2.4,6.9,6.1,8.2c2.9,1,6.7-0.2,9-2.8c1.5-1.7,1.9-3.7,1.9-5.8
		c0-8.1,0-16.3,0-24.4c0-7.6,6.2-13.7,13.8-13.7c7,0,13,5.9,13.2,13c0.1,4.8,0,9.5,0,16.5c-0.1,3.1,0.4,8.5-0.2,13.8
		c-1.7,15.1-14.1,27.9-29.9,30.5c-20.3,3.4-39.7-11.4-40.9-32C265,346.6,265,336.8,265.5,327z M448.7,388.4c-2.5-0.6-2.7-0.3-3,2.1
		c-2.5,17.2-8.3,33.3-18,47.8c-15.2,22.7-35.8,38-62.3,45.3c-11.6,3.2-23.5,4.1-35.5,3.1c-26.9-2.2-49.5-13.3-68.1-32.7
		c-17-17.8-26.9-39.2-30.6-63.5c0-0.3-0.1-0.6-0.1-1c-0.2-2.4-0.4-2.5-2.7-2.1c-18.4,3.5-34.9-7.2-41.4-21.9c-3-6.7-1.6-12.2,4-16.4
		c5.6-4.1,13.2-3,17.6,2.5c1.4,1.8,2.5,3.8,3.8,5.7c2.6,4,5.2,5.3,9.4,4.5c4-0.7,7.6-4.1,8.4-8c0.3-1.6,0.4-3.1,0.4-4.7
		c0-16.7,0-33.5,0-50.2c0-5.2,1.8-9.5,6.3-12.4c4.2-2.8,8.7-3,13.1-0.7c4.4,2.3,7.3,6.1,7.4,11.3c0.1,9.7,0.3,46.2,0.3,54.8
		c0,2.1-0.3,5.6-0.7,7.7c-1.8,8.8-0.5,17.5,0.7,26.1c2.5,17.1,8.7,32.7,19.7,46.1c12.8,15.7,29.7,24.2,49.7,26.8
		c11,1.4,21.8,0.8,32.5-1.8c21.1-5.2,36.8-17.7,47.7-36.4c7.1-12.3,10.9-25.7,12.5-39.8c0.6-4.7,0.7-9.4,1-14.1c0.2-2.7,0-5.3-0.5-8
		c-3.5-18.3,6.6-36.3,23.9-42.8c7.1-2.7,14.4-3.1,21.8-1.4c2.5,0.6,2.6,0.4,2.6-2.1c0-4.8-0.1-9.5,0-14.3c0.1-7.7,6-13.8,13.3-13.7
		c7.5,0,13.4,6,13.4,13.8c0,18.1,0.2,36.3-0.1,54.4c-0.2,14-7.2,24.4-19.1,31.5C467.8,389.4,458.5,390.7,448.7,388.4z M479.2,403.8
		c-0.4,1.1-1.2,0.9-2,0.6c-1.2-0.4-2.4-0.8-3.7-0.6c-1.1,0.2-2.1,0.6-2.3,1.9c-0.2,1.3,0.5,2,1.6,2.5c0.5,0.2,1.1,0.4,1.6,0.6
		c2.2,0.6,3.7,1.8,3.7,4.2c0.1,2.5-0.6,4.6-3,5.9c-1.5,0.8-3.2,0.9-4.8,0.9c-1-0.1-2-0.2-3-0.3c-1.6-0.2-2.1-1.2-1.8-2.7
		c0.2-1.1,0.8-1.5,1.9-1.1c1,0.4,2,0.8,3.1,0.9c1.3,0.1,2.5,0,2.9-1.5c0.3-1.5-0.1-2.6-1.6-3.2c-0.4-0.1-0.8-0.3-1.3-0.4
		c-3.6-1.4-4-4-2.5-7.1c1.7-3.6,7-5,10.5-3.1C479.5,401.9,479.6,402.8,479.2,403.8z M494.8,418.2c-4.1,2.6-8.6,2-11.1-0.9
		c-1.4-1.6-1.5-3.4-1.5-5.4c0-6.4,4.9-11.4,10.9-11.2c2.7,0.1,4.6,1.4,5.7,3.9C501,409.5,499.3,415.4,494.8,418.2z M555.2,300.7
		c4.2-5.2,9-9.7,14.9-12.9c2.9-1.6,5.9-2.7,9.2-2.7c6.9,0,12.3,5.3,12.3,12.2c0,7.9-6.1,13.4-14.1,12.8c-5.1-0.4-10.2-0.6-15.2,0.7
		c-0.7,0.2-1.4,0.2-2.1,0.2c-2.7,0.1-5.1-0.7-6.4-3.3C552.7,305.1,553.6,302.8,555.2,300.7z M514.2,285.6
		c6.7,0.1,13.3,6.5,12.8,13.1c-0.1,7.2-5.8,12.8-13.1,12.7c-7.1-0.1-12.9-6-12.9-12.9C501.1,291.4,507.2,285.5,514.2,285.6z
		 M511.6,404.4c-0.1,0.1-0.2,0.1-0.3,0.1c-4.1,0.2-4.7,3.1-5.1,6.3c-0.3,2.3-0.8,4.5-1.2,6.7c-0.2,1.5-1,2.3-2.5,2.1
		c-1.7,0.2-2.2-0.6-1.9-2c0.9-5,1.7-10,2.7-15c0.3-1.6,1.9-2.4,3.5-1.5c1.3,0.8,2.4,0.4,3.6,0c0.8-0.3,1.9-1.1,2.3,0
		C513.2,402.3,512.7,403.6,511.6,404.4z M500.7,375.7c-0.1-4,0-8,0-12c0-3.9,0-7.9,0-11.8c0-8.1-0.1-16.2,0-24.2
		c0.1-9.3,9.3-15.9,18.2-12.7c4.2,1.5,8,6.5,8.4,10.9c0.2,1.6,0.3,3.2,0.3,4.8c0,13.3,0,26.6,0,39.9c0,2-0.1,4.1-0.3,6.1
		c-0.6,7.7-6.4,12.9-14,12.6C506.5,389,500.8,382.9,500.7,375.7z M523.7,417.1c-1.4,1.3-2.9,2.4-4.7,3.3c-1.7,0.8-2.8,0.5-3.6-1.2
		c-1-2.1-1.5-4.3-1.4-6.7c0.1-3.5,0.9-6.9,2.1-10.2c0.5-1.4,2.9-2.1,4-1.3c0.8,0.6,0.3,1.3,0.1,1.9c-1.2,3.7-2.2,7.4-2.4,11.3
		c0,0.7-0.3,1.5,0.5,1.9c0.7,0.3,1.2-0.3,1.7-0.7c3.2-2.5,5.1-5.9,7.2-9.3c0.8-1.2,1.4-2.6,2.1-3.8c0.3-0.4,0.6-0.9,1-1.2
		c1-0.6,2.2-0.7,3.1-0.1c1,0.7,0,1.6-0.3,2.3C530.8,408.6,527.8,413.2,523.7,417.1z M546.5,410.8c-2.2,1.1-4.5,1.3-6.9,1.2
		c-0.7,0-1.5-0.3-1.9,0.5c-0.3,0.7,0.2,1.3,0.5,1.9c1.2,1.8,2.9,2.2,4.8,1.9c0.8-0.1,1.5-0.4,2.2-0.5c0.7-0.1,1.8-0.8,2.1,0.4
		c0.4,1.2,0,2.3-1.3,2.8c-1.6,0.7-3.2,0.7-5,0.7c-3.1,0.2-5.9-0.8-7.4-3.8c-1.8-3.6-1.1-7.1,1-10.3c2.2-3.6,5.5-5.4,9.8-4.9
		c2.6,0.3,4.4,1.9,4.8,4.2C549.9,407.5,548.9,409.6,546.5,410.8z M562.8,402.5c-0.1,0.9-0.4,1.8-1.4,1.8c-2.8-0.1-2.9,1.8-3.2,3.7
		c-0.3,2-0.7,4-1,6c-0.2,1.2,0.1,2.2,1.5,2.4c0.7,0.1,1.2,0.4,1.1,1.2c-0.1,0.8-0.3,1.6-1.2,2c-3.2,1.4-6.1-0.5-6.1-4.5
		c0.1-2.3,0.8-5,1.3-7.7c0.2-1.2,0.4-2.2-0.7-3.3c-1-0.9-0.6-2.2,0.6-2.9c1.2-0.7,1.7-1.6,1.9-2.9c0.3-1.5,2.2-2.5,3.7-2
		c0.9,0.3,0.8,1,0.7,1.7c-0.3,1.5-0.3,2.8,1.8,2.9C562.7,401,562.9,401.8,562.8,402.5z M579.9,410.6c-2.2,1.3-4.7,1.3-7.2,1.4
		c-0.7,0-1.5-0.3-1.8,0.6c-0.3,0.7,0.2,1.4,0.6,1.9c1.4,1.7,3.3,2,5.3,1.7c0.5-0.1,1-0.3,1.5-0.3c0.8-0.1,1.9-1.1,2.3,0.2
		c0.4,1.2-0.1,2.4-1.4,3c-1.5,0.6-3.1,0.7-4.6,0.7c-7.7,0.4-10.5-6.6-7.4-13.1c1.9-4.1,6.3-6.3,10.7-5.9c2.6,0.3,3.9,1.5,4.5,3.9
		C582.8,407.2,581.9,409.5,579.9,410.6z M597.7,403.6c-0.3,1.3-1.3,1-2.1,0.8c-1.4-0.4-2.8-1-4.3-0.4c-0.9,0.4-1.7,0.8-1.8,2
		c-0.1,1.1,0.6,1.6,1.5,2c0.7,0.3,1.4,0.6,2.1,0.9c2,0.8,3.5,2,3.5,4.3c0,2.5-0.9,4.6-3.3,5.8c-1.5,0.8-3.1,0.8-4.7,0.9
		c-1-0.1-2-0.1-3-0.3c-1.7-0.4-2.2-1.3-1.7-2.9c0.5-1.7,1.6-1,2.6-0.6c1,0.4,2,0.7,3.2,0.6c1.2-0.1,2-0.7,2.2-2
		c0.2-1.2-0.2-2.1-1.4-2.6c-0.2-0.1-0.5-0.2-0.7-0.3c-3.3-1.2-4.2-2.3-4.1-4.9c0.1-3.1,2-5.3,4.9-6.1c2.1-0.5,4-0.2,6,0.3
		C597.7,401.6,597.9,402.5,597.7,403.6z M609.9,385.9c-5.3,4.9-12.8,4.8-18.4-0.2c-1.4-1.2-2.4-1.3-4-0.5
		c-14.1,7.5-31.4,5.7-42.8-5.5c-8.2-8-12.7-17.1-12.4-28.2c-0.7-18.4,14.8-35.2,32.4-37.4c15.9-2,27.9,4.5,36.8,17.3
		c2.9,4.2,4.9,8.9,6.2,13.8c2.2,8.4,4.4,16.8,6.6,25.2C616,376.5,614.5,381.7,609.9,385.9z" class="st0"></path>
</g>
</svg>
