<svg xml:space="preserve" style="enable-background:new 0 0 800 800;" viewBox="0 0 800 800" y="0px" x="0px" xmlns:xlink="http://www.w3.org/1999/xlink" xmlns="http://www.w3.org/2000/svg" id="Layer_1" version="1.1">
<style type="text/css">
	.st0{fill:#FFFFFF;}
	.st1{fill-rule:evenodd;clip-rule:evenodd;fill:#FFFFFF;}
</style>
<g>
	<path d="M223.4,349.4c0-0.1,0-0.3,0.1-0.3c0.5-0.3,0.3-0.7,0.2-1.1c-0.1-0.4-0.1-0.7,0-1.1c0.3-0.6,0-0.9-0.6-1.2
		c-2.7-1.3-5.5-2.5-8.4-3.4c-2.6-0.8-5.2-1.6-7.9-2c-2.9-0.5-5.9-0.7-8.8-0.8c-1.3-0.1-2.5-0.1-3.8,0.1c-1.3,0.2-2.6-0.1-3.8,0.3
		c-1.1,0.3-2.2,0.1-3.3,0.3c-3,0.7-6.1,1.2-9.1,2.1c-1.9,0.6-3.8,1.2-5.6,2.1c-3.8,1.8-7.4,3.7-10.8,6.3c-2.1,1.6-4.3,3.2-6.3,5.1
		c-2.5,2.5-5,5-7.2,7.8c-2.4,3.1-4.7,6.2-6.6,9.6c-2.9,5.1-5.1,10.5-6.6,16.1c-0.8,2.9-1.4,5.8-1.7,8.7c-0.2,1.8-0.7,3.6-0.6,5.5
		c0,0.2,0,0.4-0.2,0.4c0,3.4,0,6.8,0,10.3c0.3,0.2,0.2,0.5,0.2,0.7c0.1,1.5,0.1,3.1,0.4,4.6c0.8,3.9,1.7,7.8,3.3,11.5
		c8.2,18.2,21.9,28.4,42.1,29.4c4.3,0.2,8.7,0.1,13-0.7c6.7-1.2,13.1-3.4,19.4-6.2c1.4-0.6,1.8-1.5,1.9-2.8c0.2-2.3,0.4-4.5,0.6-6.8
		c0.3-2.6,0.6-5.1,0.8-7.7c0.1-1.5,0.2-3,0.5-4.5c0.3-1.7,0.4-3.4,0.6-5.2c0.2-2.1,0.4-4.3,0.7-6.4c0.1-0.5,0.2-1,0.1-1.7
		c-0.2,0.2-0.3,0.2-0.4,0.3c-2.6,2.5-5.4,4.6-8.7,6.1c-5.9,2.9-12,3.8-18.4,2.3c-5.3-1.2-9.6-4-12.8-8.4c-2.9-4-4.4-8.5-4.6-13.3
		c-0.1-1.7-0.1-3.4,0.1-5.2c0.1-1,0-2,0.1-3c0.8-4.5,2.4-8.7,5.2-12.5c3.7-5.2,8.6-9,14.5-11.4c4.3-1.7,8.6-2.5,13.3-2
		c2.8,0.3,5.4,0.8,7.9,2.1c2.6,1.4,5,3,6.9,5.4c0.3,0.4,0.5,1.2,1.4,1.3c-0.4-1.6,0.4-3.1,0.4-4.7c0-0.9,0.1-1.8,0.2-2.7
		c0.3-2.5,0.7-4.9,0.8-7.4c0.1-1.5,0.4-3,0.5-4.5c0.1-2.3,0.6-4.6,0.7-7C223,352.5,223.6,351,223.4,349.4z" class="st0"></path>
	<path d="M344.2,447.3c-0.8-3.7-1.6-7.4-2.4-11.1c-1.1-5.5-2.2-11-3.3-16.4c-0.8-4-1.7-8.1-2.6-12.1
		c-0.7-3.6-1.4-7.1-2.1-10.7c-0.3-1.4-0.5-2.9-0.8-4.3c-0.3-1.3-0.5-2.6-0.8-3.9c-0.8-3-1.3-6.1-1.9-9.2c-0.3-1.4-0.5-2.9-0.8-4.3
		c-0.3-1.3-0.5-2.6-0.8-3.9c-0.9-3.6-1.6-7.2-2.3-10.8c-1.1-5.4-2.1-10.8-3.3-16.2c-0.2-0.8,0-1.9-0.6-2.3c-0.6-0.4-1.6-0.1-2.5-0.1
		c-13.1,0-26.3,0-39.4,0c-0.7,0-1.1,0.2-1.4,0.8c-0.5,1.3-1.1,2.5-1.7,3.7c-2.3,4.8-4.7,9.6-7,14.5c-2.4,4.9-4.8,9.9-7.2,14.8
		c-1.6,3.3-3.3,6.6-4.9,10c-3.1,6.3-6.1,12.7-9.2,19c-2.9,6-5.9,12-8.8,18c-3.5,7.1-6.9,14.3-10.4,21.5c-2.3,4.8-4.7,9.6-7.1,14.5
		c0.3,0,0.4,0.1,0.5,0.1c12.3,0,24.7,0,37,0c0.6,0,0.8-0.3,1.1-0.7c2.5-4.6,5-9.2,7.5-13.9c0.4-0.7,0.8-1,1.6-1
		c11.5,0,22.9,0,34.4,0c0.9,0,1.3,0.3,1.4,1.2c0.4,2.3,0.8,4.5,1.2,6.8c0.4,2.1,0.7,4.3,1.1,6.4c0.1,0.8,0.4,1.3,1.4,1.3
		c11.8,0,23.6,0,35.4,0c0.2,0,0.4,0,0.6,0c0.4,0,0.6-0.1,0.5-0.6C345.7,454.6,344.9,451,344.2,447.3z M300.6,414.2
		c-2.9,0-5.9,0-8.8,0c-2.8,0-5.6,0-8.4,0c-1.1,0-1.1,0-0.7-1.1c1.8-4.5,3.7-9.1,5.5-13.6c2.4-5.9,4.7-11.8,7.1-17.8
		c0.1-0.2,0.2-0.4,0.3-0.6c0.1-0.2,0.2-0.6,0.5-0.5c0.3,0.1,0.2,0.4,0.2,0.6c0.2,1.1,0.5,2.2,0.6,3.3c0,2.4,1,4.7,1.1,7
		c0.1,2.3,1,4.5,1,6.8c0.1,2.2,0.8,4.2,1,6.4c0.2,2.2,0.7,4.3,1,6.5c0.1,0.7,0.2,1.4,0.4,2.1C301.5,414,301.3,414.2,300.6,414.2z" class="st0"></path>
	<path d="M667.5,458.1c-0.3-0.9-0.4-1.9-0.6-2.8c-0.9-4.1-1.6-8.2-2.5-12.3c-0.8-4.1-1.7-8.1-2.6-12.2
		c-0.8-4-1.6-8-2.4-12.1c-1-4.8-2.1-9.6-3.1-14.5c-1-4.9-1.9-9.7-2.9-14.6c-0.8-3.8-1.6-7.7-2.4-11.5c-0.6-2.9-1.2-5.8-1.8-8.6
		c-0.5-2.5-1.1-4.9-1.6-7.3c-0.6-3.1-1.2-6.1-1.8-9.2c-0.7-3.4-1.5-6.7-2.1-10.1c-0.2-0.9-0.5-1-1.2-1c-6.8,0-13.6,0-20.4,0
		c-6.9,0-13.8,0-20.6,0c-0.6,0-1,0.1-1.3,0.8c-1.6,3.3-3.3,6.6-4.9,10c-3.1,6.3-6.1,12.7-9.2,19c-2.5,5.2-5,10.3-7.5,15.5
		c-2.2,4.6-4.5,9.2-6.7,13.8c-2.9,6-5.9,12.1-8.8,18.1c-3.1,6.3-6.1,12.6-9.2,18.9c-3.2,6.5-6.4,13-9.6,19.6
		c-0.6,1.2-0.6,1.2,0.7,1.2c12,0,24,0,36,0c0.7,0,1.1-0.2,1.5-0.8c2.5-4.7,5-9.3,7.5-14c0.2-0.5,0.5-0.8,1.1-0.8
		c11.7,0,23.4,0,35.1,0c0.6,0,0.8,0.3,0.9,0.8c0.2,1,0.3,2,0.5,3c0.6,3.6,1.4,7.2,2,10.8c0.2,1,0.5,1,1.2,1c11.8,0,23.7,0,35.5,0
		c0.2,0,0.4,0,0.5,0C667.5,458.9,667.7,458.7,667.5,458.1z M621.7,414.2c-4.5,0-9.1,0-13.6,0c-1.2,0-2.4,0-3.6,0
		c-0.9,0-1.1-0.1-0.7-1c2-4.8,3.9-9.5,5.8-14.3c2.4-6.1,4.9-12.1,7.3-18.2c0.1-0.3,0.1-0.6,0.4-0.8c0.5,2.7,0.9,5.4,1.3,8.1
		c0.4,2.3,0.6,4.7,0.9,7c0.2,1.7,0.6,3.5,0.9,5.2c0.3,1.6,0.5,3.2,0.8,4.9c0.3,2.1,0.6,4.1,0.9,6.2c0.1,0.7,0,1.4,0.3,2
		C622.8,414,622.4,414.2,621.7,414.2z" class="st0"></path>
	<path d="M417,354.9c0.3-2.2,0.7-4.5,1-6.7c0.2-1.7,0.5-3.4,0.7-5.1c0.1-0.8-0.1-1.2-1-1.1c-5.9,0.1-11.9,0-17.8,0
		c-1.3,0-2.6,0-3.9,0c-4.7,0-9.5,0-14.2,0c-0.3,0-0.8-0.2-0.9,0.4c-0.2,1.8-0.8,3.5-0.9,5.4c-0.1,1.8-0.4,3.6-0.7,5.4
		c-0.2,1-0.1,2.1-0.7,3c0.7,1.4-0.3,2.7-0.3,4c0,1.8-0.6,3.6-0.7,5.4c-0.2,2.1-0.8,4.1-0.9,6.2c-0.1,1.3-0.3,2.7-0.5,4.1
		c-0.3,1.8-0.5,3.7-0.8,5.5c-0.4,2.1-0.7,4.2-0.9,6.4c-0.2,1.8-0.4,3.5-0.6,5.3c-0.3,2.4-1,4.8-1.1,7.3c0,2.1-0.7,4.1-0.9,6.2
		c-0.2,2.4-0.6,4.7-1,7.1c-0.2,1.7-0.5,3.3-0.8,5c-0.2,1.5-0.6,3-0.7,4.5c-0.1,1.5-0.3,3-0.5,4.5c-0.7,4.3-1.2,8.7-1.8,13
		c-0.2,1.2-0.3,2.4-0.5,3.6c-0.3,2.3-0.7,4.5-1,6.8c-0.3,2.2-0.6,4.5-1,6.7c-0.2,1,0,1.2,0.9,1.2c9.2,0,18.3,0,27.5,0
		c2.9,0,5.7,0,8.6,0c0.6,0,0.9,0,0.9-0.7c0.1-1,0.3-2,0.4-3c0.4-2.6,0.8-5.3,1.2-7.9c0.3-2.3,0.4-4.6,0.9-6.8
		c0.5-2.6,0.8-5.2,1.2-7.8c0.4-2.9,0.9-5.7,1.3-8.6c0.2-1.6,0.4-3.3,0.7-4.9c0.4-2.8,0.8-5.6,1.2-8.4c0.2-1.8,0.4-3.6,0.7-5.4
		c0.2-1.8,0.6-3.5,0.8-5.3c0.2-1.5,0.7-3.1,0.8-4.6c0.1-1.3,0.3-2.6,0.4-3.9c0.1-2.2,0.7-4.3,0.9-6.5c0.1-0.6,0.6-1.1,0.4-1.7
		c-0.2-0.8,0.2-1.5,0.3-2.3c0.1-0.7,0.3-1.5,0.3-2c0-0.8,0.1-1.6,0.2-2.4c0.3-2.8,0.8-5.6,1.2-8.4c0.3-2.2,0.6-4.3,0.9-6.5
		C416.3,359.5,416.7,357.2,417,354.9z" class="st0"></path>
	<path d="M448.8,368.4c0.4,0.7,0.5,1.6,0.9,2.1c1.7,2,2.6,4.4,4,6.6c0.6,0.9,0.9,2,1.5,2.8c1.6,2.1,2.5,4.5,3.9,6.6
		c1,1.5,1.7,3.1,2.6,4.5c0.7,1,1.5,1.9,1.8,3.1c0.4,1.2,1,1.8,2.2,1.8c14.6,0,29.1,0,43.7,0c0.4,0,0.8,0,1.1-0.1v0
		c0.5,0,1.1,0,1.6,0c0.3,0,0.7,0,1,0c0,0,0.1,0,0.1,0c0.7,0,1.2-0.4,1.4-0.9c0.3-0.6,0.8-1,1.1-1.5c1.2-1.6,2.5-3.1,3.8-4.6
		c1.7-2.1,3.2-4.4,5-6.4c1.6-1.8,3-3.7,4.5-5.6c0.9-1.1,1.8-2.2,2.7-3.2c1-1.2,1.9-2.5,2.8-3.7c6.9-8.7,13.8-17.3,20.7-26
		c0.4-0.5,0.8-1,1.3-1.6c-0.4,0-0.7-0.1-0.9-0.1c-15.8,0-31.6,0-47.4,0c0,0,0,0,0,0c-0.7,0-1.1,0.3-1.5,0.8
		c-5.2,6.5-10.3,13-15.5,19.5c-0.2-0.3-0.5-0.7-0.7-1c-3.6-6.3-7.3-12.6-10.9-18.9c-0.4-0.7-0.8-1-1.7-1c-14.5,0-29,0-43.6,0
		c-1.3,0-1.3,0-0.6,1.2C438.9,351.2,443.8,359.8,448.8,368.4z M495.6,359.4c4.1-5.1,8.3-10.4,12.4-15.6c0.1-0.2,0.2-0.2,0.2-0.2h0
		c0,0,0,0,0.1,0h0c12.5,0,25.2,0,37.5,0l7.9,0c-1.6,2-3.3,4.1-4.9,6.1c-5,6.3-10.2,12.8-15.3,19.2c-0.5,0.6-0.9,1.2-1.3,1.8
		c-0.5,0.7-1,1.4-1.5,2c-0.4,0.4-0.7,0.9-1.1,1.3c-0.5,0.6-1.1,1.3-1.7,2c-0.5,0.6-0.9,1.2-1.4,1.8c-1,1.3-2,2.6-3,3.8
		c-1,1.1-1.8,2.3-2.7,3.5c-0.8,1.1-1.5,2-2.3,3l-0.5,0.6c-1.1,1.3-2.3,2.7-3.3,4.1c-0.1,0.1-0.2,0.2-0.3,0.4c-0.3,0.4-0.7,0.8-1,1.4
		c0,0,0,0-0.1,0l0,0c-0.3,0-0.7,0-1.1,0c-0.3,0-0.5,0-0.8,0c-0.6-1-1.1-1.9-1.7-2.9c-1.6-2.7-3.2-5.6-4.9-8.3
		c-0.8-1.3-1.6-2.7-2.3-4c-1.1-1.8-2.1-3.7-3.2-5.6c-1.6-2.7-2.8-4.8-3.8-6.8c-0.4-0.7-0.8-1.4-1.3-2.1c-0.2-0.3-0.4-0.6-0.5-0.9
		c-0.2-0.4-0.5-0.8-0.7-1.2L495.6,359.4z" class="st0"></path>
	<path d="M524.4,432.2c-2-3.2-3.9-6.5-5.9-9.7c-3.5-5.8-7-11.7-10.6-17.5c-0.2-0.4-0.4-0.8-1-0.6
		c-0.1,0.3-0.3,0.5-0.4,0.8c-0.2,0.4-0.5,0.8-0.7,1.1c0.3-0.4,0.5-0.7,0.7-1.1c0.1-0.3,0.3-0.5,0.4-0.8c-0.7-0.2-1.4-0.3-2.1-0.3
		c0,0,0,0,0,0c-7.2,0-14.3,0-21.5,0c-7.4,0-14.9,0-22.3-0.1c0,0,0,0-0.1,0c-2,0-3.2,0.5-4.4,2.1c-6.3,8.3-12.8,16.4-19.2,24.6
		c-7,9-14.1,17.9-21.1,26.9c-0.2,0.2-0.5,0.4-0.4,0.8c0.1,0,0.1,0,0.2,0c16,0,32.1,0,48.1,0c0,0,0,0,0,0c0.6,0,0.9-0.3,1.2-0.7
		c1.9-2.4,3.8-4.8,5.7-7.2c3.2-4,6.4-8.1,9.6-12.1c3.8,6.2,7.6,12.5,11.3,18.7c0.4,0.7,0.8,0.9,1.6,0.9c15.2,0,30.3,0,45.5,0
		c0.3,0,0.7,0.1,1.1-0.1c-0.1-0.2-0.2-0.3-0.3-0.4C534.6,449.1,529.5,440.7,524.4,432.2z M503.1,407.2c-0.3,0.4-0.7,0.9-1.1,1.3
		c-0.4,0.5-0.9,1.1-1.3,1.6c-0.7,0.8-1.4,1.6-2,2.4c-0.7,0.9-1.4,1.9-2.1,2.7c-0.6,0.8-1.2,1.6-1.8,2.4c-1.9,2.6-3.9,5.1-5.9,7.6
		c-0.9,1.1-1.8,2.3-2.8,3.5c-1.6,2-3.2,4.1-4.8,6.1c-0.7,0.9-1.4,1.8-2.1,2.7l-2.8,3.6c-2.3,2.8-4.5,5.7-6.8,8.5
		c-2.1,2.6-3.9,5-5.7,7.2c0,0-0.1,0.1-0.1,0.1c-12.7,0-25.7,0-38.2,0l-7.3,0c4.3-5.4,8.5-10.8,12.8-16.3c2.4-3,4.8-6.1,7.2-9.1
		c1.6-2,3.2-4.1,4.8-6.1c4.8-6,9.7-12.3,14.5-18.5c0.9-1.2,1.7-1.6,3.3-1.6l0.1,0c6.5,0,13.4,0.1,22.3,0.1c4.3,0,8.6,0,12.9,0
		c2.8,0,5.6,0,8.4,0C504.1,406.1,503.6,406.7,503.1,407.2z" class="st0"></path>
</g>
</svg>
