<svg xml:space="preserve" style="enable-background:new 0 0 800 800;" viewBox="0 0 800 800" y="0px" x="0px" xmlns:xlink="http://www.w3.org/1999/xlink" xmlns="http://www.w3.org/2000/svg" id="Layer_1" version="1.1">
<style type="text/css">
	.st0{fill:#FFFFFF;}
	.st1{fill-rule:evenodd;clip-rule:evenodd;fill:#FFFFFF;}
</style>
<g>
	<path d="M213.6,412.6c0.4,0.3,0.8,0.4,1.2,0.5c7.5,2.5,15.1,5,22.6,7.6c0.4,0.1,0.9,0.3,1.3,0.5c0.8,0.4,1.4,1,1.4,1.9
		c0,4.2,0,8.4,0,12.6c0,1.4-1.3,2.2-2.6,1.9c-0.4-0.1-0.9-0.3-1.3-0.4c-15.7-5.2-31.4-10.5-47-15.7c-0.8-0.3-1.5-0.3-2.3,0
		c-5.4,1.8-10.7,3.6-16.1,5.4c-0.3,0.1-0.7,0.2-1,0.4c0.2,0.3,0.6,0.4,0.9,0.5c7.7,2.6,15.5,5.1,23.2,7.7
		c14.7,4.9,29.4,9.8,44.1,14.7c0.2,0.1,0.3,0.1,0.5,0.2c1.1,0.4,1.7,1.1,1.7,2.3c0,0.9,0,1.7,0,2.6c0,3,0,5.9,0,8.9
		c0,0.4,0,0.7-0.1,1c-0.2,1.2-1.4,2-2.6,1.7c-0.7-0.2-1.4-0.4-2.1-0.7c-20.3-6.8-40.5-13.5-60.8-20.3c-8.7-2.9-17.5-5.9-26.2-8.8
		c-0.5-0.2-1.1-0.3-1.6-0.5c-1.7-0.5-2.4-1.3-2.4-3.1c0-2.3,0-4.6,0-6.9c0-1.8,0-3.6,0-5.5c0-1.9,0.4-2.5,2.2-3.1
		c4.9-1.6,9.8-3.3,14.7-4.9c0.4-0.1,0.7-0.2,1-0.4c0-0.3-0.3-0.3-0.5-0.4c-4.8-1.6-9.5-3.2-14.3-4.8c-0.3-0.1-0.7-0.2-1-0.3
		c-1.3-0.3-2-1.2-2.2-2.5c0-0.3,0-0.6,0-1c0-4,0-8.1,0-12.1c0-1.7,0.4-2.3,2.1-2.9c7.8-2.6,15.6-5.2,23.4-7.8c0.3-0.1,0.7-0.2,1-0.4
		c-0.2-0.3-0.6-0.3-0.9-0.4c-7.7-2.6-15.3-5.2-23-7.7c-0.4-0.1-0.7-0.2-1.1-0.4c-0.9-0.4-1.4-1.1-1.4-2.1c0-0.2,0-0.4,0-0.7
		c0-3.6,0-7.2,0-10.7c0-0.4,0-0.7,0-1.1c0.2-1.2,1.1-1.9,2.3-1.8c0.5,0,1,0.2,1.5,0.4c15.4,5.1,30.8,10.3,46.2,15.4
		c0.1,0,0.1,0,0.2,0.1c1.1,0.5,2.2,0.4,3.4,0c5.2-1.8,10.4-3.5,15.6-5.2c0.3-0.1,0.7-0.1,1-0.4c-0.2-0.3-0.6-0.3-0.8-0.4
		c-10.4-3.5-20.7-6.9-31.1-10.4c-11.2-3.7-22.3-7.5-33.5-11.2c-1.1-0.4-2.2-0.8-3.3-1.1c-1.1-0.4-1.6-1.1-1.6-2.2c0-0.7,0-1.3,0-2
		c0-3,0-6.1,0-9.1c0-0.3,0-0.6,0-0.9c0.1-1.7,1.3-2.5,2.9-2c2.3,0.7,4.6,1.5,6.9,2.3c24.8,8.2,49.6,16.5,74.3,24.7
		c2.9,1,5.8,1.9,8.6,2.9c0.7,0.2,1.3,0.6,1.9,1.1c0.6,0.6,0.9,1.2,0.9,2.1c0,4.3,0,8.7,0,13c0,1-0.5,1.6-1.3,2.1
		c-0.4,0.2-0.8,0.3-1.2,0.5c-4.8,1.6-9.7,3.3-14.5,4.9c-0.3,0.1-0.6,0.1-0.9,0.4c0.3,0.3,0.6,0.3,1,0.4c4.7,1.6,9.4,3.1,14.1,4.7
		c0.9,0.3,1.8,0.7,2.3,1.6c0.4,0.5,0.6,1.1,0.6,1.8c0,4.3,0,8.6,0,12.8c0,1.2-0.6,1.9-1.8,2.3c-2.4,0.8-4.8,1.7-7.3,2.5
		c-5.4,1.8-10.8,3.6-16.2,5.4C214.3,412.2,213.9,412.3,213.6,412.6z M214.5,395.2c-0.1-0.2-0.3-0.3-0.4-0.3
		c-5.7-1.9-11.4-3.8-17.1-5.7c-0.5-0.2-1-0.1-1.5,0c-8.4,2.8-16.8,5.6-25.3,8.4c-0.2,0.1-0.5,0-0.5,0.4c0.3,0.3,0.6,0.3,1,0.4
		c5.4,1.8,10.8,3.6,16.2,5.4c0.7,0.2,1.4,0.3,2.1,0c8.2-2.7,16.4-5.5,24.5-8.2C213.8,395.5,214.2,395.5,214.5,395.2z" class="st0"></path>
	<path d="M571.9,381c0,0.5,0,0.8,0,1.2c0,16.5,0,33,0,49.5c0,1.8,0.1,1.7-1.7,1.7c-3.8,0-7.6,0-11.4,0
		c-0.3,0-0.5,0-0.8,0c-0.6,0-0.7-0.1-0.8-0.8c0-0.3,0-0.6,0-0.9c0-24.9,0-49.9,0-74.8c0-1.7,0-1.7,1.7-1.7c3.1,0,6.1,0,9.2,0
		c0.8,0,1.4,0.2,2,0.9c4.2,5.2,8.4,10.4,12.6,15.6c5.5,6.8,11.1,13.6,16.7,20.4c3.4,4.2,6.9,8.4,10.3,12.6c0.7,0.9,1.5,1.8,2.2,2.6
		c0.4-0.2,0.3-0.4,0.3-0.6c0-0.3,0-0.6,0-1c0-16.2,0-32.5,0-48.7c0-0.4,0-0.8,0-1.1c0-0.5,0.3-0.7,0.7-0.7c0.2,0,0.4,0,0.7,0
		c3.9,0,7.9,0,11.8,0c0.2,0,0.3,0,0.5,0c0.8,0,0.9,0.1,0.9,0.9c0,0.3,0,0.5,0,0.8c0,24.9,0,49.9,0,74.8c0,1.8,0.1,1.7-1.7,1.7
		c-3.1,0-6.2,0-9.3,0c-0.8,0-1.4-0.3-1.9-0.9c-6.1-7.5-12.2-15-18.3-22.5c-4.5-5.6-9.1-11.2-13.6-16.7c-3.1-3.8-6.2-7.6-9.3-11.4
		C572.5,381.6,572.4,381.3,571.9,381z" class="st0"></path>
	<path d="M440.4,394.3c0-12.5,0-25,0-37.5c0-1.6,0-1.6,1.6-1.6c10.4,0,20.8,0,31.2,0c4,0,7.9,0.5,11.8,1.5
		c4.8,1.3,9.2,3.3,12.9,6.7c2.9,2.7,5.1,5.9,6.4,9.7c2.2,6.3,2.3,12.7,0.3,19c-2,6.2-6,10.8-11.7,14c-0.8,0.4-1.6,0.8-2.4,1.2
		c-1,0.5-1.1,0.5-0.4,1.4c1.1,1.7,2.3,3.3,3.5,5c3.2,4.6,6.5,9.3,9.7,13.9c1.1,1.5,2.2,3.1,3.2,4.6c0.1,0.1,0.2,0.2,0.2,0.3
		c0.1,0.2,0.4,0.4,0.3,0.7c-0.1,0.3-0.4,0.2-0.7,0.2c-0.1,0-0.3,0-0.4,0c-4.4,0-8.9,0-13.3,0c-0.7,0-1.2-0.2-1.7-0.9
		c-3.9-5.6-7.8-11.1-11.6-16.7c-1-1.5-2.1-3-3.1-4.5c-0.3-0.5-0.7-0.7-1.4-0.7c-6.1,0-12.2,0-18.3,0c-0.2,0-0.3,0-0.5,0
		c-0.7,0-0.8,0.1-0.9,0.8c0,0.3,0,0.6,0,0.9c0,6.5,0,13,0,19.5c0,1.5,0,1.5-1.5,1.5c-3.9,0-7.9,0-11.8,0c-1.4,0-1.4,0-1.4-1.4
		C440.4,419.4,440.4,406.9,440.4,394.3z M455.1,383.2c0,4.7,0,9.3,0,14c0,0.3,0,0.6,0,0.9c0,0.3,0.2,0.5,0.5,0.6c0.3,0,0.6,0,0.9,0
		c4.2,0,8.5,0,12.7,0c2,0,4,0,6-0.2c2.7-0.2,5.2-0.8,7.7-1.9c4.2-1.9,6.8-5.2,7.7-9.7c0.4-2,0.5-3.9,0.2-5.9
		c-0.6-5.3-3.3-9-8.1-11.2c-2.9-1.3-6-1.9-9.1-1.9c-5.8-0.1-11.6,0-17.4,0c-0.1,0-0.3,0-0.4,0c-0.6,0-0.7,0.1-0.8,0.7
		c0,0.3,0,0.6,0,0.9C455.1,374,455.1,378.6,455.1,383.2z" class="st0"></path>
	<path d="M423,433.3c-2.1,0-4.3,0-6.4,0c-0.9,0-1.3-0.2-1.7-1.1c-2.1-5-4.3-10-6.5-15c-1-2.3-0.6-1.9-2.9-1.9
		c-11.7,0-23.3,0-35,0c-0.3,0-0.6,0-0.9,0c-0.7-0.1-1,0.2-1.3,0.9c-1.6,3.8-3.2,7.5-4.8,11.3c-0.7,1.6-1.4,3.2-2.1,4.9
		c-0.3,0.7-0.7,1-1.5,1c-4.3,0-8.6,0-12.8,0c-0.2,0-0.4,0-0.7,0c-0.3,0-0.4-0.2-0.3-0.5c0.1-0.2,0.2-0.5,0.3-0.7
		c3.6-7.9,7.1-15.9,10.7-23.8c3.3-7.3,6.6-14.7,9.9-22c3.6-8,7.2-16,10.8-24c0.9-2.1,1.9-4.1,2.8-6.2c0.3-0.7,0.7-0.9,1.5-0.9
		c4.1,0,8.2,0,12.4,0c0.8,0,1.1,0.3,1.4,0.9c4,9,8.1,17.9,12.1,26.9c4.2,9.4,8.4,18.8,12.7,28.1c3.1,6.9,6.2,13.8,9.4,20.7
		c0.7,1.4,0.7,1.4-0.9,1.4C427.1,433.3,425,433.3,423,433.3z M388.4,370.4c-0.4,0.2-0.5,0.6-0.6,0.9c-2.3,5.3-4.5,10.6-6.8,15.8
		c-2.3,5.3-4.5,10.6-6.8,15.8c-0.3,0.8-0.3,0.8,0.5,0.8c0.1,0,0.2,0,0.3,0c8.8,0,17.7,0,26.5,0c1.1,0,1.2-0.1,0.7-1.1
		c-4-9.2-7.9-18.5-11.9-27.7C389.7,373.4,389,372,388.4,370.4z" class="st0"></path>
	<path d="M297,420.9c0.4,0.2,0.9,0.1,1.3,0.1c14.7,0,29.3,0,44,0c1.6,0,1.7-0.2,1.7,1.7c0,3,0,6,0,9c0,0.3,0,0.5,0,0.8
		c0,0.8-0.1,0.9-0.9,0.9c-0.2,0-0.4,0-0.7,0c-21.2,0-42.4,0-63.6,0c-1.6,0-1.6,0-1.6-1.6c0-2.4,0-4.7,0-7.1c0-0.7,0.2-1.3,0.7-1.8
		c5.5-6.7,10.9-13.3,16.4-20c5.9-7.1,11.7-14.3,17.6-21.4c3.4-4.2,6.9-8.4,10.3-12.6c0.1-0.1,0.2-0.2,0.2-0.3
		c0.1-0.1,0.3-0.3,0.2-0.5c-0.1-0.3-0.4-0.2-0.6-0.2c-0.3,0-0.6,0-0.9,0c-13.8,0-27.7,0-41.5,0c-1.7,0-1.7,0-1.7-1.7
		c0-3.1,0-6.1,0-9.2c0-0.3,0-0.6,0-0.9c0-0.5,0.2-0.7,0.7-0.7c0.3,0,0.5,0,0.8,0c20.5,0,41,0,61.5,0c1.5,0,1.5,0,1.5,1.5
		c0,2.4,0,4.9,0,7.3c0,0.7-0.2,1.3-0.7,1.8c-3.1,3.7-6.1,7.5-9.2,11.2c-3.2,4-6.5,7.9-9.7,11.9c-4.3,5.2-8.5,10.4-12.8,15.6
		c-3.2,3.9-6.4,7.9-9.6,11.8c-1.1,1.3-2.1,2.6-3.2,3.9C297.2,420.4,297,420.5,297,420.9z" class="st0"></path>
	<path d="M536.4,394.4c0,12.5,0,24.9,0,37.4c0,1.6,0,1.6-1.6,1.6c-3.9,0-7.7,0-11.6,0c-0.3,0-0.6,0-0.9,0
		c-0.4,0-0.6-0.2-0.6-0.6c0-0.3,0-0.5,0-0.8c0-25.1,0-50.2,0-75.3c0-0.2,0-0.3,0-0.5c0-0.8,0.1-0.9,0.9-0.9c0.4,0,0.8,0,1.2,0
		c3.6,0,7.3,0,10.9,0c0.3,0,0.6,0,0.9,0c0.5,0,0.7,0.2,0.7,0.7c0,0.4,0,0.7,0,1.1C536.4,369.5,536.4,381.9,536.4,394.4z" class="st0"></path>
	<path d="M581.8,452.3c3.6-3.9,9.9-2.9,11.7,0.7c0.3,0,0.4-0.2,0.5-0.4c2.3-3,6.7-3.4,9.6-2c1.3,0.6,2.2,1.6,2.7,2.9
		c0.4,1,0.6,2.1,0.6,3.2c0,3,0,5.9,0,8.9c0,1.1-0.1,1.2-1.2,1.2c-0.2,0-0.4,0-0.7,0c-0.3,0-0.5-0.2-0.5-0.5c0-0.3,0-0.6,0-0.9
		c0-2.6,0-5.1,0-7.7c0-1-0.1-1.9-0.4-2.8c-0.6-1.6-1.8-2.5-3.5-2.7c-0.8-0.1-1.7-0.1-2.5,0.1c-2.1,0.6-3.6,2.4-3.7,4.7
		c-0.1,2,0,4,0,6c0,1,0,1.9,0,2.9c0,0.7-0.1,0.8-0.9,0.9c-1.6,0.1-1.6,0-1.6-1.5c0-2.7,0-5.4,0-8c0-0.8-0.1-1.6-0.4-2.4
		c-0.6-1.6-1.8-2.5-3.5-2.7c-0.4,0-0.8,0-1.2,0c-2.4,0.1-4.2,1.5-4.8,3.9c-0.1,0.7-0.2,1.3-0.2,2c0,2.4,0,4.8,0,7.2
		c0,0.3,0,0.5,0,0.8c0,0.1,0,0.3-0.1,0.4c-0.4,0.6-1,0.3-1.6,0.4c-0.4,0-0.8-0.1-0.8-0.6c0-0.3,0-0.6,0-0.9c0-4.6,0-9.2,0-13.8
		c0-1.5,0.2-1.6,1.6-1.5c0.6,0.1,0.8,0.2,0.8,0.8C581.7,451.2,581.6,451.7,581.8,452.3z" class="st0"></path>
	<path d="M491.8,464.1c-0.2,0.3-0.1,0.6-0.1,0.9c0,2.2,0,4.5,0,6.7c0,1-0.1,1.1-1.1,1.1c-0.1,0-0.3,0-0.4,0
		c-0.7,0-0.8-0.1-0.9-0.8c0-0.2,0-0.3,0-0.5c0-6.7,0-13.5,0-20.2c0-1.3,0.1-1.4,1.4-1.3c0.8,0,0.9,0.1,0.9,0.9c0,0.6,0,1.1,0,1.6
		c0.3,0.1,0.3,0,0.4-0.1c1.6-1.9,3.8-2.7,6.2-2.6c3.4,0.2,6,1.7,7.3,4.9c1.2,2.8,1,7.3-2,10c-2.9,2.6-8.4,3.1-11.5-0.4
		C492.1,464.3,492,464.1,491.8,464.1z M503.9,458.4c0-0.7-0.1-1.3-0.3-2c-0.6-2.5-2.6-4.1-5.2-4.4c-2.5-0.3-4.9,1-6,3.3
		c-0.7,1.4-0.8,2.8-0.6,4.4c0.9,5.2,6.3,6.1,9.3,4.2C503.2,462.5,503.8,460.6,503.9,458.4z" class="st0"></path>
	<path d="M655.7,355.3c0.1,4.5-3.4,9.3-9.4,9.3c-5.2,0-9.5-3.8-9.5-9.3c0-5.7,4.7-9.2,9.5-9.2
		C651.5,346,655.8,350.1,655.7,355.3z M639.4,355.2c0,0.3,0,0.5,0,0.8c0.2,2.6,1.5,4.6,3.8,5.8c2.4,1.2,4.9,1,7.1-0.6
		c2.2-1.6,3.1-3.9,2.8-6.6c-0.4-4.7-4.7-7.5-9.1-6.1C641.2,349.4,639.4,352,639.4,355.2z" class="st0"></path>
	<path d="M432.1,464.6c-0.3,0.3-0.6,0.5-0.8,0.7c-2.1,1.8-6.3,2-8.6,0.6c-2.4-1.5-3.1-4.7-1.3-6.9
		c1-1.2,2.4-1.6,3.9-1.8c0.6-0.1,1.3,0,1.9,0c1.3,0,2.6,0,3.8,0c0.8,0,0.9-0.1,1-0.9c0.1-2.5-1.3-4.1-3.8-4.3
		c-1.9-0.2-3.7,0.3-5.3,1.3c-0.2,0.1-0.3,0.2-0.5,0.3c-0.1,0.1-0.2,0.2-0.3,0.1c-0.6-0.1-0.7-0.7-0.9-1.1c-0.2-0.3-0.1-0.6,0.1-0.7
		c0.4-0.3,0.8-0.6,1.3-0.8c2.4-1.2,5-1.5,7.6-0.9c2.2,0.6,3.6,2,4.1,4.2c0.1,0.7,0.3,1.4,0.2,2.1c0,3,0,6,0,9c0,0.3,0,0.5,0,0.8
		c0,0.2-0.2,0.4-0.4,0.4c-0.4,0-0.9,0-1.3,0c-0.4,0-0.5-0.4-0.5-0.7C432.2,465.5,432.3,465.1,432.1,464.6z M428.7,459
		C428.7,459,428.7,459,428.7,459c-0.8,0-1.5,0-2.3,0c-0.7,0-1.3,0.2-2,0.4c-0.7,0.3-1.3,0.8-1.5,1.5c-0.5,1.8,0.4,3.1,1.8,3.6
		c1.1,0.4,2.3,0.4,3.5,0.2c2.6-0.5,3.9-2.2,3.8-4.9c0-0.8-0.1-0.9-0.9-0.9C430.3,459,429.5,459,428.7,459z" class="st0"></path>
	<path d="M381.6,464.7c-0.7,0.6-1.3,1.2-2.2,1.5c-2.7,1-5.3,1-7.7-0.7c-2.3-1.7-2.3-5.5,0-7.1c1-0.7,2.2-1.1,3.5-1.1
		c1.6,0,3.2,0,4.8,0c0.3,0,0.5,0,0.8,0c0.7,0,0.8-0.1,0.8-0.9c0.1-2.5-1.4-4.3-4-4.4c-1.9-0.1-3.7,0.3-5.3,1.3
		c-0.2,0.1-0.3,0.2-0.5,0.3c-0.1,0.1-0.3,0.1-0.3,0.1c-0.5-0.2-0.7-0.8-0.9-1.2c-0.2-0.4,0.1-0.6,0.3-0.8c0.8-0.5,1.6-0.9,2.5-1.2
		c2.1-0.7,4.3-0.9,6.4-0.3c2.5,0.7,4,2.5,4.1,5.1c0.1,3.5,0,7,0,10.5c0,0.7-0.1,0.8-0.9,0.8c-0.2,0-0.4,0-0.6,0
		c-0.7,0-0.8-0.2-0.9-0.9C381.8,465.5,381.9,465.2,381.6,464.7z M378.4,459C378.4,459,378.4,459,378.4,459c-0.8,0-1.6,0-2.4,0
		c-0.7,0-1.3,0.1-2,0.4c-1,0.4-1.6,1.3-1.6,2.4c0,1.1,0.4,2,1.5,2.6c1.2,0.6,2.4,0.7,3.6,0.5c2.1-0.3,4.7-1.9,4.2-5.1
		c-0.1-0.6-0.1-0.7-0.8-0.7C380.1,459,379.3,459,378.4,459z" class="st0"></path>
	<path d="M524.5,466.9c-4.9,0-8.5-3.6-8.5-8.6c0-4.9,3.6-8.5,8.5-8.5c5.1,0,8.6,3.5,8.6,8.6
		C533.1,463.3,529.4,466.9,524.5,466.9z M530.6,458c0-0.6-0.1-1.4-0.4-2.2c-0.9-2.3-2.6-3.6-5-3.8c-2.3-0.2-4.2,0.5-5.6,2.4
		c-1.1,1.5-1.3,3.3-1.1,5c0.3,2.3,1.5,4.1,3.8,4.9c2.3,0.8,4.5,0.5,6.3-1.2C530.1,461.9,530.6,460.2,530.6,458z" class="st0"></path>
	<path d="M445.8,457.8c0-1.1,0.3-2.6,1.1-3.9c1.2-2,2.9-3.2,5.1-3.8c2.9-0.7,5.5-0.2,7.9,1.7c1,0.8,1.8,1.9,2.2,3.1
		c0.9,2.3,1,4.7,0,7c-1.4,3.2-3.9,4.8-7.3,5c-2,0.1-3.9-0.4-5.5-1.5C446.8,463.6,445.8,461.2,445.8,457.8z M448.2,458
		c0,3.8,2,6.2,5.2,6.7c2.8,0.4,5.8-0.9,6.7-4.5c0.3-1.1,0.3-2.3,0.1-3.4c-1-5-6.2-5.7-9.1-3.9C449,454.1,448.3,456,448.2,458z" class="st0"></path>
	<path d="M336.9,458.5c0.1,1.4-0.3,2.9-1.1,4.3c-1.1,1.9-2.7,3.1-4.8,3.7c-3.3,0.9-6.4,0.3-8.8-2.3
		c-2.4-2.6-2.9-5.7-1.7-8.9c1.1-3.2,3.5-4.9,6.8-5.3c2.3-0.3,4.4,0.1,6.3,1.5c2.2,1.6,3.3,3.7,3.3,6.4
		C336.9,458,336.9,458.2,336.9,458.5z M334.6,458.4c0-2.3-0.8-4.3-2.9-5.6c-2.6-1.6-7.2-1.1-8.8,2.7c-0.5,1.3-0.7,2.7-0.5,4.1
		c0.5,2.7,2.2,4.6,4.9,5c2.5,0.4,4.6-0.2,6.1-2.4C334.3,461.1,334.6,459.8,334.6,458.4z" class="st0"></path>
	<path d="M397.9,458.3c-0.1,2,0.6,3.5,1.9,4.9c2,1.9,6.3,2.3,8.6-0.3c0.5-0.5,0.5-0.5,1.1-0.2c1.2,0.7,1.2,1,0.2,2
		c-1.1,1.1-2.4,1.7-3.9,2c-0.4,0.1-0.8,0.2-1.2,0.2c-0.5,0-0.7,0.4-0.8,0.8c-0.1,0.3,0,0.5,0.3,0.6c0.2,0.1,0.4,0.1,0.6,0.2
		c0.9,0.4,1.5,1.1,1.5,2.1c0.1,1.1-0.4,2-1.3,2.5c-1.4,0.7-2.9,0.7-4.4,0.1c-0.6-0.2-0.6-0.4-0.4-0.9c0.2-0.5,0.4-0.7,0.9-0.5
		c0.5,0.1,0.9,0.3,1.4,0.3c0.3,0,0.5,0,0.8-0.1c0.8-0.2,1.3-0.7,1.2-1.3c0-0.7-0.5-1.2-1.4-1.3c-1.3-0.2-1.3-0.2-0.9-1.4
		c0-0.1,0-0.2,0.1-0.3c0.2-0.9,0.2-0.9-0.7-1.1c-1.5-0.4-2.9-1.1-3.9-2.3c-2.4-2.6-2.9-5.7-1.8-8.9c1-3.2,3.4-4.9,6.7-5.4
		c2.5-0.4,4.7,0.1,6.7,1.6c0.4,0.3,0.7,0.7,1,1.1c0.2,0.3,0.2,0.6-0.1,0.8c-0.2,0.1-0.3,0.2-0.5,0.3c-0.8,0.5-0.8,0.6-1.4-0.1
		c-1.5-1.7-4.3-2.3-6.7-1.3c-2.4,1-3.6,2.9-3.7,5.5C397.9,458.1,397.9,458.2,397.9,458.3z" class="st0"></path>
	<path d="M295.7,452.7c0.6-0.8,1.3-1.4,2.1-1.8c1.4-0.8,3-1.1,4.6-1c1.4,0.1,2.6,0.4,3.8,1.2c0.9,0.7,1.6,1.5,2,2.5
		c0.4,1,0.6,2,0.6,3.1c0,2.9,0,5.9,0,8.8c0,0.4,0.1,0.8-0.3,1c-0.5,0.2-1.1,0.2-1.7,0c-0.2-0.1-0.2-0.3-0.3-0.5c0-0.3,0-0.6,0-0.9
		c0-2.6,0-5.2,0-7.8c0-0.5-0.1-1-0.1-1.5c-0.3-2.3-1.9-3.8-4.4-4c-1-0.1-2,0.1-2.9,0.5c-2.1,0.9-3,2.6-3.2,4.8c0,0.4,0,0.8,0,1.1
		c0,2.4,0,4.8,0,7.2c0,1-0.1,1.1-1.1,1.1c-1.1,0-1.2-0.1-1.2-1.2c0-4.8,0-9.5,0-14.3c0-1.1,0.6-1.5,1.7-1.2c0.3,0.1,0.4,0.3,0.4,0.6
		c0,0.3,0,0.6,0,1C295.5,451.9,295.4,452.3,295.7,452.7z" class="st0"></path>
	<path d="M353.6,463.7c0.5-1.1,1-2.3,1.5-3.4c1.4-3.1,2.8-6.2,4.1-9.4c0.4-0.9,1.4-1.3,2.4-1c0.3,0.1,0.2,0.3,0.1,0.6
		c-0.4,0.9-0.7,1.7-1.1,2.5c-1.7,3.9-3.5,7.9-5.3,11.8c-0.1,0.2-0.2,0.3-0.2,0.5c-0.3,1-0.9,1.3-1.9,1.3c-0.8,0-1.2-0.3-1.4-1
		c-0.7-1.6-1.4-3.2-2.1-4.8c-1.4-3.2-2.9-6.5-4.3-9.7c-0.1-0.1-0.1-0.2-0.2-0.3c-0.3-0.7-0.2-0.8,0.5-0.8c0.2,0,0.4,0,0.7,0
		c0.7-0.1,1,0.3,1.3,0.9c1.6,3.8,3.3,7.5,5,11.3c0.2,0.5,0.5,1,0.7,1.6C353.4,463.7,353.5,463.7,353.6,463.7z" class="st0"></path>
	<path d="M546.8,452.5c0.3,0,0.3-0.1,0.4-0.2c0.9-1.4,2.3-2,3.8-2.3c0.2,0,0.3-0.1,0.5-0.1c0.5,0,1-0.4,1.3,0.2
		c0.3,0.5,0.2,1.1,0.1,1.7c-0.1,0.3-0.3,0.3-0.5,0.3c-0.3,0-0.7,0.1-1,0.1c-2.8,0.4-4.2,2.6-4.3,4.9c-0.1,1,0,1.9,0,2.9
		c0,1.8,0,3.6,0,5.4c0,0.3,0,0.6-0.1,0.9c0,0.2-0.1,0.4-0.4,0.5c-0.5,0.1-1.1,0.1-1.6,0c-0.3,0-0.4-0.2-0.4-0.5c0-0.3,0-0.5,0-0.8
		c0-4.7,0-9.4,0-14.1c0-1.3,0.1-1.4,1.4-1.4c0.8,0,0.9,0.1,0.9,1C546.8,451.5,546.8,452,546.8,452.5z" class="st0"></path>
	<path d="M279.7,455.7c0,3.2,0,6.3,0,9.5c0,0.3,0,0.6,0,0.9c0,0.3-0.2,0.5-0.6,0.5c-0.4,0-0.8,0-1.1,0
		c-0.3,0-0.5-0.2-0.5-0.6c0-0.3,0-0.6,0-0.9c0-6.4,0-12.8,0-19.2c0-1.4,0.3-1.6,1.6-1.4c0.4,0.1,0.6,0.3,0.6,0.7c0,0.3,0,0.6,0,0.9
		C279.7,449.4,279.7,452.5,279.7,455.7z" class="st0"></path>
	<path d="M620.8,453.9c0.4,0.2,0.8,0.2,1.1,0.2c1.3,0,2.7,0,4,0c0.7,0,0.8,0.2,0.8,0.7c0,0.6-0.1,0.7-0.7,0.8
		c-0.2,0-0.3,0-0.5,0c-2.2,0-4.3,0-6.5,0c-0.4,0-1,0.2-1.2-0.4c-0.2-0.5,0.1-0.9,0.5-1.2c1.6-1.4,3.2-2.9,4.9-4.3
		c0.4-0.3,0.7-0.7,0.9-1.1c0.8-1.1,0.4-2.4-0.9-2.7c-1.5-0.4-3-0.4-4.3,0.6c-0.5,0.4-0.9,0.3-1.3-0.2c-0.2-0.2-0.2-0.4,0-0.6
		c0.2-0.3,0.5-0.5,0.8-0.6c1.8-1,3.7-1.1,5.7-0.4c2,0.7,2.6,2.8,1.5,4.6c-0.6,0.9-1.4,1.5-2.1,2.2c-0.7,0.6-1.4,1.3-2.2,1.9
		C621.2,453.4,620.9,453.5,620.8,453.9z" class="st0"></path>
	<path d="M425.7,443.6c0.8-0.1,1.4,0.3,2,0.8c0.4,0.3,0.7,0.6,1.1,0.9c0.9,0.6,1.7,0.4,2.2-0.6c0.1-0.2,0.1-0.4,0.2-0.6
		c0.2-0.3,0.7-0.4,1.1-0.3c0.4,0.1,0.3,0.5,0.3,0.8c-0.4,2.5-2.8,3.5-4.8,1.9c-0.3-0.3-0.7-0.5-1-0.8c-1.2-1-2.3-0.5-2.7,0.7
		c-0.2,0.6-0.6,0.8-1.2,0.6c-0.3-0.1-0.4-0.2-0.4-0.5C422.8,445.2,423.8,443.5,425.7,443.6z" class="st0"></path>
	<path d="M648.7,355.5c1.6,1,1.5,2.6,1.9,4c0.1,0.4-0.1,0.5-0.4,0.6c0,0-0.1,0-0.1,0c-1.9,0-1.8,0.1-2.3-1.6
		c-0.1-0.3-0.2-0.7-0.3-1c-0.2-0.5-0.5-0.8-1.1-1c-1.2-0.3-1.5-0.1-1.5,1.1c0,0.6,0,1.1,0,1.7c0,0.5-0.2,0.7-0.7,0.7
		c0,0-0.1,0-0.1,0c-1.4,0.1-1.5,0-1.5-1.4c0-2.3,0-4.5,0-6.8c0-1,0.1-1.2,1.1-1.2c1.3-0.1,2.6-0.3,3.9,0c0.5,0.1,0.9,0.2,1.4,0.4
		c1.3,0.5,2,3,0.4,4C649.2,355.2,649,355.3,648.7,355.5z M645,353.4C645,353.4,645,353.4,645,353.4c0,0.3,0,0.5,0,0.8
		c0,0.3,0.2,0.5,0.5,0.5c0.5,0.1,1.1,0.1,1.6-0.1c0.5-0.2,0.7-0.6,0.7-1.1c0-0.5-0.3-0.8-0.7-1c-0.5-0.2-1-0.2-1.5-0.2
		c-0.4,0-0.6,0.2-0.6,0.6C645,353,645,353.2,645,353.4z" class="st0"></path>
</g>
</svg>
