<svg xml:space="preserve" style="enable-background:new 0 0 800 800;" viewBox="0 0 800 800" y="0px" x="0px" xmlns:xlink="http://www.w3.org/1999/xlink" xmlns="http://www.w3.org/2000/svg" id="Layer_1" version="1.1">
<style type="text/css">
	.st0{fill:#FFFFFF;}
	.st1{fill-rule:evenodd;clip-rule:evenodd;fill:#FFFFFF;}
</style>
<g>
	<path d="M400,204.9c-107.7,0-195.1,87.3-195.1,195.1c0,107.7,87.3,195.1,195.1,195.1S595.1,507.7,595.1,400
		C595.1,292.3,507.7,204.9,400,204.9z M400,583.7c-101.5,0-183.8-82.3-183.8-183.8c0-101.5,82.3-183.8,183.8-183.8
		S583.8,298.5,583.8,400C583.8,501.5,501.5,583.7,400,583.7z" class="st0"></path>
	<g>
		<path d="M434.8,426c0.5-4.2-0.3-7-3.3-9.9c-2-2-7.4-3.2-10.4-3.2h-36.2l-21.4,55.1h40.1c7.3,0,13.9-2.5,17.3-5.9
			c2.2-2.2,5.6-6.6,7.8-13.5c0.3-1,1.6-10.8-5.6-9.4C431.5,437.5,433.9,433,434.8,426z M413.7,450.3c-0.7,3.8-2.5,4.8-4.1,5.2
			c-3.9,1.1-4.9,1.2-7.6,1.2c-0.7,0-13.7,0-14.4,0h-6.4l4.7-12.3h6.2C405.2,444.5,414.9,443.6,413.7,450.3z M420.1,427.4
			c-0.9,5-3.9,8.4-10.6,8.4h-20.2l4.6-12h18C417.2,423.8,420.5,424.7,420.1,427.4z" class="st0"></path>
		<path d="M501,431.9c1.7-3.9,1.5-9.7-0.2-13.9c-1.1-2.7-6.7-5.3-15.9-5.3c-0.5,0-17.1,0-17.5,0h-14.1l-21.3,55.1h13.2
			l8.2-21.1H466l7.3,21.1h17.4l-8.3-22.1C493.4,444.3,497.6,439.7,501,431.9z M488.3,428.3c-2.6,7.3-11.3,7.3-14.2,7.3l-16.4,0
			l4.7-12h21C486.4,423.7,489.5,424.8,488.3,428.3z" class="st0"></path>
		<path d="M567.2,416.1c-3.1-3.1-8.4-3.3-12.1-3.3c-0.5,0-0.8,0-1.3,0h-34l-21.3,55.1h15.2l8-20.7h20.6
			c1.3,0,2.6,0,3.8,0c5.7,0,12.1-1.6,16.7-5.6c4.2-3.6,6-7,6.6-9.9C570.4,427,570.8,419.8,567.2,416.1z M555.4,429.7
			c-1,5.6-6.6,6.2-9.2,6.2H526l4.2-10.8h19C551.4,425.1,556.3,424.9,555.4,429.7z" class="st0"></path>
	</g>
	<path d="M316,249.6C316,249.5,316,249.5,316,249.6C315.3,249.8,315.3,249.8,316,249.6z" class="st0"></path>
	<path d="M242.1,331c0,0-0.1,0-0.1-0.1C241.5,332.1,241.6,332,242.1,331z" class="st0"></path>
	<path d="M558,331l0.1-0.1c-8.8-20.1-21.3-38.1-36.6-53.4c-1.7,1.3-67.1,52.8-37.4-28.1l0.1-0.1
		c-18.4-10.3-38.9-17.3-60.7-20.3l0,0c-24.9,82.1-46,2.7-46.8,0c-24.4,3.3-56.3,18.5-60.7,20.4c29.4,80.2-34.8,30.1-37.4,28
		c-17.8,17.6-33.6,48.2-36.4,53.4c71.8,46.1-9.6,45-12.9,44.9c-1.1,7.9-1.7,15.9-1.7,24.1c0,63.6,34.5,119.2,85.7,149.1l26.1-56.9
		c-30-19.7-49.7-53.7-49.7-92.2c0-60.9,49.4-110.3,110.3-110.3c59,0,107.2,46.3,110.2,104.6h62.2c-0.2-6.2-0.7-12.3-1.6-18.3
		C569.7,376,485,377.8,558,331z" class="st0"></path>
</g>
</svg>
