<svg xml:space="preserve" style="enable-background:new 0 0 800 800;" viewBox="0 0 800 800" y="0px" x="0px" xmlns:xlink="http://www.w3.org/1999/xlink" xmlns="http://www.w3.org/2000/svg" id="Layer_1" version="1.1">
<style type="text/css">
	.st0{fill:#FFFFFF;}
	.st1{fill-rule:evenodd;clip-rule:evenodd;fill:#FFFFFF;}
</style>
<g>
	<path d="M669.2,355.6c-1.8-7.1-4.8-13.6-8.6-19.7c-5.5-8.8-12.4-16.3-20.2-23c-8.9-7.6-18.6-14-28.9-19.5
		c-16.8-8.9-34.5-15.4-52.7-20.6c-15-4.2-30.3-7.4-45.7-10c-6.1-1-12.2-1.9-18.3-2.7c-4.6-0.6-9.1-1.1-13.7-1.6
		c-5.1-0.5-10.2-1-15.3-1.4c-5-0.3-10-0.8-15-1.1c-3.8-0.3-7.6-0.5-11.4-0.6c-6.9-0.3-13.8-0.5-20.7-0.6c-6.3-0.1-12.5,0-18.8,0
		c-11.4-0.1-22.8,0-34.1,0.5c-4.5,0.2-9,0.4-13.4,0.6c-6.1,0.3-12.3,0.8-18.4,1.3c-6.5,0.5-13,1.1-19.5,1.9
		c-7.8,0.9-15.6,1.9-23.4,3.1c-11.1,1.7-22.2,3.8-33.2,6.4c-15.4,3.6-30.5,8-45.2,13.8c-15.3,6-30,13.3-43.4,22.9
		c-10,7.2-19.1,15.4-26.4,25.5c-7.1,9.7-12.1,20.4-13.4,32.5c-0.5,5.1-0.3,10.1,1.2,15.1c2.8,9.4,5.8,18.7,8.9,28.1
		c4.1,12.5,8.2,25,12.3,37.5c4.8,14.4,9.6,28.8,14.4,43.2c1.6,4.8,3.9,9.3,7.2,13.1c4,4.5,8.8,7.1,15,7c1.8,0,3.6-0.1,5.5-0.2
		c5.6-0.3,11.2-0.6,16.9-1c5.6-0.4,11.1-0.7,16.7-0.9c5.9-0.3,11.9-0.6,17.8-0.9c4.2-0.2,8.4-0.4,12.7-0.6c4.4-0.2,8.9-0.4,13.3-0.6
		c4.7-0.2,9.4-0.4,14.1-0.6c5.1-0.2,10.2-0.4,15.3-0.6c5.7-0.2,11.5-0.4,17.2-0.6c6.5-0.2,13-0.4,19.6-0.6c4.1-0.2,8.1-0.1,12.2-0.3
		c4.7-0.2,9.5-0.1,14.2-0.3c8.5-0.3,16.9-0.2,25.4-0.3c8.6-0.1,17.2-0.2,25.8,0.1c8.3,0.3,16.6,0,24.9,0.4c4.4,0.2,8.9,0.1,13.3,0.3
		c7.4,0.2,14.8,0.4,22.2,0.7c6,0.2,12,0.4,18,0.6c5.3,0.2,10.6,0.4,16,0.6c4.9,0.2,9.8,0.4,14.7,0.6c4.5,0.2,9.1,0.4,13.6,0.6
		c4.3,0.2,8.6,0.4,13,0.6c4,0.2,8,0.4,12,0.6c5.9,0.3,11.8,0.6,17.7,1c4.8,0.3,9.6,0.4,14.4,0.7c1.9,0.1,3.9,0.2,5.8,0.3
		c3.6,0.3,7.2,0.5,10.8,0.6c6.1,0.1,11-2.5,15-7c3.6-4,5.9-8.8,7.6-13.9c7.5-22.6,15-45.2,22.5-67.8c4.1-12.3,7.9-24.6,11.9-37
		C671.2,372.9,671.4,364.3,669.2,355.6z M277.2,425.6c-2.1,3.4-5,6-8.1,8.4c-6.6,4.9-14,7.5-22,9.1c-3.5,0.7-7.1,1.1-10.7,1
		c-11.9-0.1-22.5-3.7-31.6-11.4c-5.2-4.5-9.3-9.9-12.3-16c-3-6-4.9-12.2-5.3-18.9c-0.7-10,1.5-19.3,7-27.7
		c4.8-7.4,11.2-12.9,18.9-17c6.4-3.5,13.2-6,20.5-7.1c6.8-1,13.6-1.2,20.4,0.5c1.8,0.5,3.5,1.1,5.1,2c4.3,2.7,5.1,5.5,4.4,9.8
		c-0.4,2.5-1.4,4.7-3.4,6.4c-1.5,1.3-2.2,1.3-3.7,0c-5-4.3-10.8-6.6-17.3-7.3c-3-0.3-6,0.1-8.8,1.1c-10.5,3.9-17.3,11.2-19.9,22.2
		c-1.1,5-0.9,10,0.3,14.9c1.7,7.4,4.8,14.2,9.5,20.2c4.8,6.1,10.9,10.5,18.6,11.8c11.4,2,21.7-0.5,30-9c0.3-0.3,0.5-0.5,0.8-0.8
		c1.3-1.3,1.9-1.5,3.4-0.6c2.2,1.3,3.7,3.2,4.6,5.5C278.1,423.8,277.8,424.7,277.2,425.6z M340,403.7c-0.2,1.7-0.8,3.2-1.7,4.6
		c-4.6,6.8-10.9,11.4-18.6,14.2c-6.1,2.2-12.4,3.3-18.9,2.7c-6.3-0.5-12-2.8-17-6.6c-7.4-5.7-11.8-13.2-13.2-22.4
		c-1.1-7.3-0.6-14.5,2.1-21.4c4.6-12.1,13.1-20.1,25.5-24c4.8-1.5,8.9-2,14.4-2c3.7-0.1,7.9,0.5,11.8,2.3c4.7,2.1,8.2,5.4,10,10.2
		c2,5.2,1.2,10.1-1.5,14.7c-2.4,4.2-6.1,7.1-10.2,9.5c-5.4,3.1-11.2,5.2-17.3,6.2c-4.1,0.7-8.2,0.7-12.3,0.3c-2.9-0.3-3-0.3-2.1,2.4
		c1.3,4,3.2,7.6,6.2,10.5c3.5,3.4,7.7,5.1,12.5,5.3c8.3,0.3,15.4-2.9,21.8-7.8c2.5-1.9,4.5-4.2,6.5-6.5c0.3-0.4,0.6-1.1,1.3-0.9
		c0.7,0.2,0.5,0.9,0.6,1.5C340.2,399,340.3,401.3,340,403.7z M412.6,378.4c-0.3,8.5-2.6,16.5-8,23.3c-5.6,7-13,10.8-22,11.1
		c-3.9,0.1-7.8-0.2-11.6-1.3c-1.6-0.4-3.1-1.1-4.5-1.8c-1-0.5-1.3-0.3-1.3,0.8c0,1.2,0.2,2.4,0.2,3.6c0.3,4,0.7,7.9,1.4,11.8
		c0.5,2.7,1.4,5.3,2.6,7.9c0.6,1.4,0.3,2.2-1.2,2.6c-4.8,1.3-9.4,0.9-13.8-1.4c-3.3-1.7-4.9-4.8-6-8.2c-1.2-3.8-1.8-7.8-2.2-11.8
		c-0.6-5.4-1.1-10.9-1.5-16.4c-0.3-3.5-0.5-7.1-0.7-10.6c-0.5-7.4-0.8-14.9-1.1-22.4c-0.1-2.8-0.1-5.5-0.2-7.6c0-2.8,0-4.9,0-7.1
		c0-1.4,0.6-2.2,1.7-2.9c8-4.4,16.5-7.5,25.7-8.5c6.9-0.7,13.6-0.5,20.2,1.8c9.5,3.4,16,9.8,19.5,19.2
		C411.9,366.3,412.8,372.3,412.6,378.4z M437,382.4c0.1,1.5,0.2,2.9,0.5,4.3c0.9,4.6,2.7,8.6,6.1,11.9c3.2,3.2,7.1,4.8,11.5,5.6
		c1.6,0.3,3.2,0.4,4.8,0.3c8-0.1,15.3-2.6,21.7-7.3c0.5-0.4,1-0.8,1.5-1.1c0.6-0.3,0.9-0.1,1,0.5c0,0.4,0,0.7,0,1.1
		c-0.4,2.3-0.9,4.5-1.6,6.7c-0.6,1.8-1.6,3.3-3.2,4.3c-6.5,4.3-13.4,7.5-21.2,8.4c-5.8,0.7-11.6,0.5-17.2-1
		c-12.3-3.4-20.1-11.5-23-23.9c-3.1-13.7,0.6-25.8,9.7-36.4c6.1-7.1,13.9-11.2,23.1-12.7c4.1-0.7,8.2-0.6,12.3-0.1
		c4.6,0.6,9,1.7,13.1,3.9c4.1,2.2,7.5,5.3,9.5,9.7c2.9,6.2,2,13.5-2.9,18.8c-3,3.2-6.7,5.2-10.9,6.6c-4.2,1.4-8.6,2-13.1,2.3
		c-6.3,0.4-12.5-0.5-18.5-2.3c-0.7-0.2-1.5-0.5-2.2-0.8C437.2,381.2,436.9,381.4,437,382.4z M491,338.5c-0.2,0.8-0.8,0.9-1.5,0.9
		c-0.9,0-1.9,0-2.8-0.2c-4.4-1-8.2-3.1-11.8-5.5c-5.1-3.4-9.6-7.6-13.2-12.5c-0.1-0.2-0.3-0.3-0.4-0.5c-0.4-0.5-0.8-0.4-1.1,0.1
		c-0.2,0.3-0.3,0.6-0.5,1c-4.6,8-11.3,12.9-20.4,14.4c-5.1,0.9-10.1,0.4-15-1c-5.5-1.5-10.5-4.1-14.9-7.7c-0.2-0.2-0.5-0.4-0.7-0.6
		c-0.1-0.1-0.1-0.2-0.1-0.4c0.6-0.1,1.1-0.1,1.7-0.2c2.3-0.4,4.3-1.4,6.2-2.8c2.4-1.7,4.5-3.7,6.8-5.5c2.2-1.7,4.4-3.4,6.9-4.6
		c5.4-2.6,10.9-2.5,16.5-1c1,0.3,1.9,0.6,2.8,0.9c1.1,0.4,1.2,0.6,0.7,1.6c-0.9,2.1-2.3,3.9-3.9,5.5c-2.1,2.1-4.5,3.9-7.3,5
		c-0.4,0.1-0.8,0.2-1,0.8c0.8,0.2,1.5,0.1,2.3,0c3.3-0.6,6-2.4,8.4-4.6c5.6-5.3,8.9-11.9,10.5-19.4c0.1-0.4,0.1-0.7,0.2-1.1
		c0.3-1.5,0.4-1.5,1.9-1.2c1.2,0.2,2.3,0.6,3.4,1.1c2.1,1,3.1,2.7,3.4,4.9c0.1,0.9,0.3,1.9,0.3,2.8c-0.1,3.8,1.4,7,3.2,10.2
		c4.3,7.3,10.3,12.9,17.4,17.5c0.4,0.3,0.8,0.5,1.2,0.7C490.7,337.4,491.1,337.8,491,338.5z M532.2,365.5c-2.6-0.5-5.2-0.8-7.8-0.2
		c-2.6,0.6-4.6,1.9-6.1,4c-1.9,2.6-2.8,5.6-3.5,8.6c-1,4.2-1.6,8.5-2.1,12.8c-0.7,5.6-1.4,11.3-2.1,16.9c-0.1,0.9-0.1,1.8-0.2,2.8
		c0.2,3.9,0.6,7.9,2,11.7c1,2.9,0.7,3.4-2.3,3.7c-2.9,0.3-5.8,0.1-8.7-0.5c-4.4-0.9-7.5-3.5-9-7.8c-1.1-3.2-1.4-6.4-1.1-9.7
		c0.7-8.4,1.9-16.8,2.7-25.2c0.5-5.1,1.2-10.3,1.7-15.4c0.4-3.6,0.6-7.3,0.4-10.9c-0.1-2.4-0.6-4.7-2-6.8c-1.1-1.6-0.5-2.9,1.5-3.1
		c4.2-0.5,8.3-0.3,12.4,0.9c1.5,0.4,2.8,1.1,4.1,2c2.4,1.7,4.1,3.9,4.6,6.8c0.2,1.2,0.4,1.2,1.4,0.6c1.3-0.8,2.5-1.7,3.9-2.3
		c5-2.5,10.4-3.5,15.9-3c4.9,0.5,8,3.4,8.7,8.1c0.2,1.4,0,2.8-0.3,4.2c-0.4,2.1-1.1,4.1-2.4,5.9c-0.2,0.3-0.5,0.7-0.8,1
		c-0.8,0.8-1.6,0.9-2.2,0C538.9,367.6,535.7,366.3,532.2,365.5z M614.3,394.2c-1.3,7.4-3.1,14.6-4.7,21.9c-1,4.4-2.1,8.7-2.7,13.2
		c-0.6,4.2-0.6,8.4,0.5,12.6c0.4,1.5,0,2.1-1.5,2.1c-4.2-0.1-8.3-0.6-12.1-2.7c-2.9-1.6-4.6-4.2-5.3-7.4c-0.1-0.4-0.1-0.7-0.2-1.1
		c-0.3-1.4-0.4-1.4-1.6-0.8c-4.2,1.9-8.5,2.8-13.1,2.7c-7-0.1-13.3-2.4-18.9-6.6c-7.8-5.8-12-13.6-13-23.2c-0.1-0.8-0.2-1.6-0.2-2.3
		c0-0.9,0-1.9,0-2.8c0.1-8.9,2-17.3,6.7-24.9c4.8-7.8,11.5-13,20.5-15c4.2-1,8.5-1.1,12.8-0.6c5.5,0.6,10.8,2,15.8,4.3
		c5.8,2.6,10.8,6.4,14.1,12C614.7,381.3,615.5,387.6,614.3,394.2z" class="st0"></path>
	<path d="M522.6,532.4c-0.6-2.2-2-3.6-4.3-4.1c-2.4-0.5-4.4,0-6.2,1.7c-0.9,0.9-0.9,0.9-1.9-0.1
		c-1.6-1.5-3.4-2.1-5.6-1.6c-1.3,0.3-2.3,1-3.4,2c-0.1-0.3-0.2-0.4-0.2-0.6c-0.3-1.1-0.6-1.4-1.7-1.3c-0.9,0.1-1.2,0.3-1.2,1.5
		c0,4.5,0,9,0,13.5c0,1.3,0.3,1.5,1.6,1.5c1,0,1.3-0.2,1.3-1.5c0-2.4,0-4.8,0-7.2c0-0.6,0-1.3,0.1-1.9c0.4-2.2,2.3-3.7,4.5-3.5
		c2,0.2,3.3,1.7,3.5,4c0,0.6,0,1.1,0,1.7c0,2.3,0,4.7,0,7c0,1.2,0.2,1.4,1.4,1.4c1.2,0,1.5-0.2,1.5-1.5c0-2.6,0-5.2,0-7.8
		c0-0.9,0.1-1.9,0.6-2.7c0.7-1.4,2.3-2.2,4.1-2.1c1.6,0.1,2.7,1.1,3.2,2.8c0.2,0.8,0.3,1.5,0.3,2.3c0,2.6,0,5.1,0,7.7
		c0,1.2,0.2,1.3,1.4,1.4c1.2,0,1.4-0.2,1.5-1.5c0-2.9,0-5.7,0-8.6C523,533.9,522.9,533.1,522.6,532.4z" class="st0"></path>
	<path d="M172.2,522.4c-7.6,0-11.3,6.4-11.3,11.6c0.1,5.5,4.4,11.3,11.4,11.2c5.8,0,11.3-4.8,11.1-11.5
		C183.7,528.2,179.4,522.3,172.2,522.4z M180.5,533.6c0,4-1.9,7.1-5.1,8.3c-5.5,2-10.7-1.3-11.4-6.9c-0.2-1.7,0-3.4,0.7-5
		c1.6-3.5,5.1-5.5,8.8-4.8c3.7,0.6,6.6,3.7,7,7.5C180.5,533,180.5,533.4,180.5,533.6z" class="st0"></path>
	<path d="M374.9,522.8c0-0.7-0.4-1-1.1-1.1c-1.3-0.1-1.7,0.2-1.8,1.5c0,1.9,0,3.8,0,5.6c0,0.5,0.1,1-0.2,1.5
		c-0.4-0.1-0.6-0.4-0.9-0.6c-3.1-2.5-7.2-2.3-10.1,0.4c-2.5,2.4-3.2,6.4-2,9.7c2,5.3,8.7,6.8,12.4,3c0.1-0.1,0.3-0.3,0.7-0.5
		c0.1,0.6,0.1,1,0.1,1.3c0.1,0.7,0.5,0.9,1.2,1c1.4,0.1,1.6-0.2,1.7-1.6c0-0.2,0-0.4,0-0.6c0-6.2,0-12.4,0-18.6
		C374.9,523.6,374.9,523.2,374.9,522.8z M367.6,542.5c-2,0.4-3.7-0.1-5-1.7c-1.7-2-1.9-5.2-0.6-7.5c1.1-2,3.3-3,5.6-2.5
		c2.2,0.4,4.1,2.3,4.4,4.5c0.1,0.5,0.1,0.9,0.1,1.1C372,539.7,370.4,541.9,367.6,542.5z" class="st0"></path>
	<path d="M303.7,522.7c0-0.6-0.4-0.8-0.9-0.9c-1.3-0.2-1.9,0.2-1.9,1.5c0,0.5,0,1,0,1.6c0,1.8,0,3.6,0,5.5
		c-0.6,0-0.8-0.3-1-0.5c-3-2.5-6.6-2.5-9.6-0.1c-3.4,2.6-4.1,8-1.7,11.8c2.3,3.8,7.9,4.8,11.2,1.9c0.3-0.3,0.5-0.7,1.1-0.7
		c0,0.3,0,0.6,0.1,0.8c0.2,1.1,0.3,1.2,1.4,1.2c1.2,0,1.4-0.2,1.5-1.5c0-0.3,0-0.5,0-0.8c0-6.2,0-12.4,0-18.6
		C303.8,523.5,303.8,523.1,303.7,522.7z M301,537c-0.1,1.4-0.5,2.8-1.6,3.8c-2.8,3-7.3,2.1-8.9-1.5c-0.4-0.9-0.5-1.8-0.6-2.6
		c0-3.5,2.1-5.9,5.1-6.1C298.3,530.4,301.2,533.2,301,537z" class="st0"></path>
	<path d="M232.1,529.9c-0.3,0.2-0.4,0.6-0.9,0.5c-0.3-0.5-0.2-1.1-0.2-1.7c0-1.8,0-3.7,0-5.5c0-1.2-0.3-1.4-1.4-1.5
		c-1.2,0-1.5,0.2-1.5,1.4c0,6.7,0,13.3,0,20c0,1.4,0.3,1.6,1.7,1.6c0.7,0,1.1-0.2,1.2-1c0-0.3,0-0.6,0.4-1c0.3,0.2,0.5,0.4,0.8,0.6
		c3.6,2.8,8.5,2,11.1-1.7c2.1-3,2-7.7-0.2-10.6C240.3,527.6,235.5,527,232.1,529.9z M237.2,542.6c-1.8,0.3-3.3-0.3-4.6-1.5
		c-2.4-2.4-2.4-6.5,0.1-8.9c2.7-2.6,6.9-1.8,8.5,1.6c0.4,0.9,0.5,1.9,0.7,2.7C241.7,539.5,240.4,542.1,237.2,542.6z" class="st0"></path>
	<path d="M594.9,532c-1.6-3-4.8-4.5-8.2-3.8c-3.4,0.8-5.8,3.5-6.3,7.3c-0.6,4.2,2,8.3,5.9,9.3c1.8,0.5,3.7,0.4,5.5-0.3
		c1.1-0.4,2-1,2.9-1.9c0.5-0.5,0.5-0.9,0-1.4c-0.8-0.7-1-0.8-1.9-0.1c-0.8,0.6-1.7,1.2-2.8,1.4c-2.8,0.7-5.7-0.8-6.5-3.5
		c-0.3-1-0.2-1.2,0.9-1.2c1.7,0,3.3,0,5,0c0,0,0,0,0,0c1.7,0,3.4,0,5.2,0c1.1,0,1.4-0.4,1.4-1.4C595.9,534.9,595.6,533.4,594.9,532z
		 M592,535.5c-1.3,0-2.6,0-3.9,0c0,0,0,0,0,0c-1.2,0-2.5,0-3.7,0c-0.9,0-1-0.2-0.8-1.1c0.5-2.3,2.5-3.9,4.8-3.9c2.2,0,4,1.5,4.5,3.8
		C593.1,535.3,593,535.5,592,535.5z" class="st0"></path>
	<path d="M494.4,532.9c-1.7-4.4-6.6-6.2-10.7-3.9c-4.2,2.3-5.5,8.2-2.8,12.5c2.8,4.5,9.6,4.7,12.9,1.4
		c0.4-0.4,0.9-0.8,0.3-1.4c-0.7-0.8-1.1-0.9-1.8-0.4c-0.8,0.6-1.7,1.2-2.7,1.5c-2.8,0.8-5.7-0.6-6.6-3.2c-0.4-1.2-0.3-1.4,0.9-1.4
		c1.6,0,3.2,0,4.9,0c0,0,0,0,0,0c1.7,0,3.3,0,5,0c1.3,0,1.7-0.4,1.6-1.7C495,535,494.8,533.9,494.4,532.9z M491,535.5
		c-1.2,0-2.5,0-3.7,0c0,0,0,0,0,0c-1.2,0-2.5,0-3.7,0c-0.9,0-1-0.2-0.9-1c0.5-2.2,2.4-3.9,4.6-3.9c2.3,0,4.1,1.3,4.7,3.6
		C492.2,535.3,492.1,535.5,491,535.5z" class="st0"></path>
	<path d="M223.8,532.5c-0.5-1.9-1.7-3.2-3.6-3.9c-2.9-0.9-5.7-0.6-8.4,0.6c-0.6,0.2-0.8,0.6-0.6,1.2
		c0.3,0.9,0.4,1.5,1.8,1c1.3-0.5,2.6-0.8,4-0.7c1.4,0.1,2.8,0.4,3.6,1.8c0.4,0.6,0.8,1.4,0.4,2c-0.4,0.7-1.1,0.2-1.7,0.1
		c-2.2-0.2-4.4-0.4-6.5,0.5c-2.2,0.9-3.3,2.5-3.2,4.8c0,2.1,1.1,3.6,2.9,4.4c3,1.3,5.8,0.9,8.5-1.3c0.5,1.5,0.5,1.5,1.1,1.6
		c1.6,0.1,2-0.1,2-1.6c0-2.8,0-5.6,0-8.5C224.1,534,224,533.2,223.8,532.5z M221.2,539.3c-0.2,1.7-1.6,3.1-3.6,3.4
		c-0.4,0.1-0.8,0.1-1.1,0.1c-0.9,0-1.6,0-2.3-0.3c-1.1-0.5-1.7-1.3-1.7-2.5c0-1.3,0.5-2.1,1.6-2.6c0.4-0.2,0.9-0.4,1.3-0.4
		c1.4-0.1,2.7-0.1,4.1,0.1C221.1,537.2,221.4,537.6,221.2,539.3z" class="st0"></path>
	<path d="M432.3,528.4c-2.5-0.6-5-0.3-7.3,0.7c-1,0.4-1.1,0.7-0.7,1.7c0.3,0.9,0.5,0.9,1.6,0.6c0.3-0.1,0.6-0.2,0.9-0.3
		c1.6-0.4,3.2-0.7,4.8-0.2c1.3,0.4,2.2,1.2,2.5,2.6c0.2,1-0.1,1.4-1.2,1.2c-1.5-0.3-2.9-0.2-4.4-0.2c-1.3,0-2.5,0.4-3.6,1
		c-1.6,1-2.5,2.5-2.4,4.4c0.1,2,1,3.5,2.8,4.3c2.5,1.1,5,1.1,7.4-0.3c0.4-0.2,0.6-0.5,1.2-0.6c0.1,0.2,0.2,0.3,0.2,0.5
		c0.4,0.8,1.1,1,2.1,0.8c0.8-0.2,0.8-0.8,0.8-1.3c0-3.1,0.1-6.3,0-9.4C436.8,531.1,435.1,529.1,432.3,528.4z M434.2,538.4
		c-0.1,1.4-0.6,2.6-1.8,3.5c-1.6,1-3.3,1.1-5.1,0.6c-1.4-0.4-2-1.4-2-2.7c0-1.3,0.6-2.1,2-2.7c1-0.4,2-0.3,3-0.3
		c1.1,0,2.1,0.1,3,0.3C434,537.4,434.3,537.8,434.2,538.4z" class="st0"></path>
	<path d="M388,528.5c-2.6-0.7-5.2-0.3-7.6,0.7c-0.7,0.3-0.9,0.8-0.6,1.5c0.4,1,0.6,1.1,1.6,0.8c1.9-0.6,3.7-1.1,5.7-0.5
		c1.1,0.3,1.9,1,2.4,2.1c0.5,1.3,0.1,1.8-1.3,1.6c-1.8-0.2-3.6-0.4-5.4,0c-3.1,0.7-4.9,2.9-4.6,5.6c0.2,2.7,2.5,4.6,5.7,4.8
		c2.1,0.1,3.9-0.4,5.7-1.8c0.2,0.4,0.2,0.6,0.3,0.8c0.4,0.7,1,0.9,2,0.7c0.8-0.1,0.8-0.7,0.8-1.3c0-3.1,0.1-6.3,0-9.4
		C392.3,531.2,390.7,529.2,388,528.5z M388.3,541.6c-1.7,1.3-3.6,1.5-5.6,0.8c-1.2-0.4-1.8-1.3-1.8-2.6c0-1.3,0.6-2,1.9-2.6
		c1-0.4,2-0.3,3-0.4c1.1,0,2.2,0.1,3.2,0.4c0.6,0.2,0.9,0.5,0.8,1.1C389.7,539.6,389.3,540.8,388.3,541.6z" class="st0"></path>
	<path d="M560.1,531.2c-1.7-2.5-4.8-3.7-7.7-3c-3.6,0.9-6,3.6-6.3,7.7c-0.5,6.3,4.7,10.9,11.5,8.7
		c1.1-0.4,2-1.1,2.8-1.9c0.3-0.3,0.5-0.5,0.3-1c-0.5-0.9-1.3-1.2-2.1-0.5c-0.9,0.7-1.8,1.2-2.9,1.4c-2.8,0.6-5.5-0.9-6.3-3.4
		c-0.3-1-0.1-1.4,0.9-1.4c1.7,0,3.3,0,5,0c0,0,0,0,0,0c1.6,0,3.2,0,4.9,0c1.3,0,1.5-0.3,1.5-1.6
		C561.6,534.4,561.1,532.7,560.1,531.2z M557.6,535.5c-1.2,0-2.5,0-3.7,0c-1.2,0-2.4,0-3.6,0c-1.1,0-1.3-0.4-1-1.3
		c0.6-2.2,2.6-3.6,4.9-3.6c2.2,0.1,3.9,1.5,4.4,3.8C558.7,535.2,558.6,535.4,557.6,535.5z" class="st0"></path>
	<path d="M627.4,528.5c-2.6-0.7-5.2-0.4-7.6,0.7c-0.9,0.4-1,0.8-0.6,1.7c0.3,0.8,0.8,0.8,1.5,0.5
		c0.3-0.1,0.6-0.2,0.9-0.3c1.6-0.5,3.3-0.7,4.9-0.2c1.2,0.4,2,1.1,2.3,2.3c0.3,1.2,0.4,1.8-1.3,1.4c-1.9-0.4-3.7-0.4-5.6,0
		c-3.1,0.7-4.8,2.9-4.6,5.6c0.3,2.7,2.5,4.5,5.6,4.7c2.2,0.1,4.2-0.4,6-2c0.1,0.3,0.2,0.4,0.2,0.5c0.3,1.1,0.5,1.3,1.6,1.2
		c1-0.1,1.1-0.2,1.1-1.4c0-3.1,0.1-6.2,0-9.2C631.7,531.2,630.2,529.2,627.4,528.5z M629.2,538.7c-0.1,2-1.6,3.6-3.8,4
		c-0.5,0.1-0.9,0.1-1.4,0.1c-0.8,0-1.7-0.1-2.4-0.6c-0.9-0.6-1.4-1.4-1.4-2.5c0-1.1,0.5-1.9,1.5-2.4c0.3-0.2,0.7-0.3,1-0.4
		c1.8-0.3,3.5-0.3,5.3,0.1C629.1,537.4,629.2,537.6,629.2,538.7z" class="st0"></path>
	<path d="M316.8,528.5c-2.6-0.6-5.1-0.4-7.5,0.7c-1,0.4-1.1,0.7-0.7,1.7c0.4,0.9,0.5,0.9,1.6,0.6
		c0.3-0.1,0.6-0.2,0.9-0.3c1.6-0.4,3.3-0.7,4.9-0.1c1.7,0.6,2.6,2,2.3,3.9c-0.5,0.1-1-0.1-1.5-0.2c-2.2-0.2-4.5-0.4-6.6,0.4
		c-2.2,0.9-3.4,2.6-3.4,4.8c0,2.1,1.3,4,3.5,4.7c2.4,0.8,4.8,0.7,7-0.8c0.3-0.2,0.6-0.6,1-0.6c0.1,0,0.1,0.1,0.1,0.1
		c0,0.1,0.1,0.2,0.1,0.3c0.3,1.1,0.5,1.2,1.6,1.1c0.9-0.1,1.1-0.2,1.1-1.4c0-3.1,0.1-6.3,0-9.4C321.2,531.2,319.6,529.2,316.8,528.5
		z M315,542.6c-0.9,0.2-1.8,0.2-2.6,0c-1.5-0.3-2.5-1.3-2.6-2.7c-0.1-1.4,0.8-2.5,2.3-2.9c0.9-0.3,1.8-0.2,2.7-0.2
		c1.1,0,2.1,0.1,3,0.3c0.7,0.2,0.9,0.6,0.9,1.2C318.7,540.5,317.2,542.2,315,542.6z" class="st0"></path>
	<path d="M255.6,528c-4.7,0-8.6,3.9-8.6,8.6c0,4.8,3.7,8.5,8.6,8.5c3.9,0.3,8.6-2.9,8.6-8.6
		C264.2,531.9,260.3,528,255.6,528z M255.8,542.7c-3.2,0.1-5.8-2.6-5.8-6.1c0-3.3,2.4-5.9,5.5-6c3.4,0,5.8,2.5,5.8,6
		C261.3,539.9,258.8,542.6,255.8,542.7z" class="st0"></path>
	<path d="M448.5,528c-4.7,0-8.6,3.9-8.6,8.6c0,5.1,4.2,8.8,8.5,8.5c4.1,0.4,8.6-3.1,8.7-8.4
		C457.2,531.9,453.3,528,448.5,528z M450.4,542.3c-3.5,1.2-7.1-1.2-7.5-4.9c-0.1-0.8-0.1-1.6,0.1-2.3c0.7-3.1,3.1-4.8,6.2-4.5
		c2.6,0.3,4.7,2.6,4.9,5.5c0,0.2,0,0.4,0,0.4C454.2,539.9,452.2,541.7,450.4,542.3z" class="st0"></path>
	<path d="M419.4,533.1c-0.9-5.3-6.9-6.3-10.1-3.8c-0.3,0.3-0.6,0.5-1,0.9c-0.4-0.7-0.1-1.6-1-1.8
		c-1.4-0.4-2.1,0.1-2.1,1.6c0,4.4,0,8.8,0,13.1c0,0.3,0,0.6,0.1,0.9c0,0.3,0.2,0.5,0.4,0.6c1.2,0.6,2.4,0,2.4-1.4c0-2.3,0-4.6,0-6.9
		c0-0.6,0-1.3,0.1-1.9c0.3-2.3,2.1-3.9,4.5-3.9c2.4,0,3.8,1.4,4.1,3.9c0.1,0.7,0,1.4,0,2c0,2.3,0,4.6,0,6.9c0,1.2,0.3,1.3,1.4,1.3
		c1.2,0,1.4-0.2,1.4-1.5c0-2.9,0-5.8,0-8.8C419.6,534,419.5,533.6,419.4,533.1z" class="st0"></path>
	<path d="M205,536.4c-1-0.5-2.1-0.9-3.2-1.2c-0.8-0.2-1.6-0.5-2.3-0.9c-0.8-0.4-1.4-0.9-1.3-1.9
		c0.1-0.8,0.8-1.5,1.8-1.7c1-0.2,2.1-0.2,3.1,0.2c0.6,0.2,1.2,0.5,1.7,0.7c0.9,0.4,1.3,0.1,1.8-0.9c0.4-0.9-0.2-1.1-0.8-1.4
		c-1.1-0.5-2.2-0.9-3.4-1.1c-1.8-0.3-3.4-0.1-5,0.9c-2.6,1.5-3.2,5.9,0.3,7.5c0.9,0.4,1.7,0.7,2.6,1c1,0.3,2,0.6,2.9,1
		c0.7,0.4,1.2,1,1.2,1.9c0,0.9-0.6,1.5-1.4,1.9c-1,0.5-2,0.4-3.1,0.2c-1.2-0.2-2.4-0.8-3.5-1.4c-0.7-0.4-1-0.2-1.6,0.7
		c-0.4,0.6-0.3,1,0.3,1.4c1.8,1.2,3.7,1.8,5.9,1.8c1.4,0.1,2.7-0.3,3.9-1C207.6,542.7,208.6,538.3,205,536.4z" class="st0"></path>
	<path d="M577.9,540.8c-0.7-0.6-1.1-0.3-1.6,0.2c-1.5,1.3-3.2,2-5.2,1.5c-3.3-0.8-5.2-4.1-4.3-7.6
		c0.8-3,3.2-4.7,6.2-4.3c1.2,0.1,2.2,0.8,3.2,1.6c0.9,0.7,1.1,0.7,1.9-0.3c0.7-0.8,0.7-1-0.2-1.8c-1.8-1.5-3.9-2.3-6.2-2.1
		c-4.6,0.3-8.2,4.4-7.9,9c0.2,4.7,4.2,8.3,8.6,8c2.1,0.2,4-0.7,5.6-2.1C578.9,542,578.9,541.7,577.9,540.8z" class="st0"></path>
	<path d="M347.6,528.3c-1.3-0.1-1.6,0.1-2.1,1.4c-1.3,3.2-2.6,6.4-3.9,9.6c-0.2,0.5-0.3,1.1-1,1.6
		c-1.5-3.6-2.8-7-4.2-10.5c-0.2-0.4-0.3-0.9-0.6-1.3c-0.4-0.8-2-1.2-2.8-0.7c-0.2,0.1-0.3,0.3-0.3,0.5c0.1,0.3,0.2,0.6,0.3,0.9
		c2,4.7,4,9.3,6,14c0.5,1.1,1.2,1.4,2.3,1.1c0.8-0.2,1-0.9,1.3-1.5c1.5-3.4,3-6.9,4.5-10.3c0.5-1.1,1-2.3,1.5-3.5
		C348.9,528.6,348.7,528.4,347.6,528.3z" class="st0"></path>
	<path d="M473.9,530.9c0.9,0,1.8,0,2.7,0c1,0,1.2-0.4,1.3-1.2c0-0.9-0.3-1.3-1.3-1.4c-0.9-0.1-1.9,0-2.8,0
		c-0.7,0-1.1-0.3-1.1-1c0-0.8,0-1.7,0-2.5c-0.1-1-0.3-1.2-1.4-1.2c-1.1,0-1.3,0.2-1.4,1.2c-0.1,0.7,0,1.5,0,2.2
		c0,0.8-0.2,1.3-1.1,1.4c-0.8,0-1.1,0.5-1.1,1.3c0,0.7,0.2,1.3,1,1.3c1,0,1.2,0.7,1.2,1.5c0,1.3,0,2.5,0,3.8c0,0,0,0,0.1,0
		c0,1.4,0,2.8,0,4.2c0,0.4,0.1,0.8,0.2,1.2c0.6,3,4.6,4.6,7.1,2.9c0.5-0.3,0.7-1.2,0.5-1.8c-0.2-0.7-0.7-0.4-1.2-0.4
		c-0.4,0-0.8,0.1-1.2,0.1c-1.7,0-2.5-0.7-2.5-2.3c-0.1-2.7,0-5.3,0-8C472.7,531.1,472.9,531,473.9,530.9z" class="st0"></path>
	<path d="M611.3,530.9c0.8,0,1.6,0,2.3,0c1.5,0,1.8-0.3,1.8-1.3c0-1-0.4-1.2-1.7-1.3c-0.7,0-1.5,0-2.2,0
		c-1.1-0.1-1.2-0.2-1.3-1.3c0-0.8,0-1.7,0-2.5c0-0.9-0.7-0.9-1.3-0.9c-0.7,0-1.3,0.1-1.3,1c0,0.7,0,1.5,0,2.2c0,1.3,0,1.4-1.3,1.6
		c-0.8,0.1-1.1,0.6-1,1.3c0,0.7,0.2,1.2,1,1.3c1.3,0.2,1.3,0.3,1.3,1.6c0,2.7,0,5.4,0,8.1c0.1,2.8,1.7,4.4,4.7,4.4
		c0.7,0,1.4-0.1,2.2-0.4c0.8-0.3,1.1-1.1,0.8-2c-0.2-0.8-0.8-0.4-1.3-0.4c-0.4,0-0.7,0.1-1.1,0.1c-1.7,0-2.4-0.6-2.5-2.3
		c-0.1-2.7,0-5.4,0-8.1C610.3,531.3,610.6,530.9,611.3,530.9z" class="st0"></path>
	<path d="M275.6,528.2c-1.6,0.2-3,0.9-4.1,2.1c-0.4,0.4-0.6,0.9-1.1,1.1c-0.3-0.5-0.1-1-0.2-1.5
		c-0.1-1.3-0.4-1.6-1.6-1.5c-1,0.1-1.2,0.3-1.2,1.7c0,4.3,0,8.7,0,13c0,0.2,0,0.3,0,0.5c0.1,1,0.3,1.2,1.3,1.2
		c1.3,0.1,1.6-0.2,1.6-1.5c0-1.5,0-2.9,0-4.4c0-0.9,0.1-1.9,0.3-2.8c0.6-2.6,2-4.4,4.8-4.9c1.4-0.3,1.6-0.6,1.5-2
		C276.7,528.3,276.5,528.1,275.6,528.2z" class="st0"></path>
	<path d="M543.2,528.3c-0.6,0.1-1.2,0.4-1.7,0.7c-1,0.5-1.7,1.3-2.5,2.3c-0.4-0.7-0.2-1.2-0.3-1.7
		c-0.1-1-0.3-1.2-1.3-1.2c-1.2-0.1-1.6,0.2-1.6,1.5c0,4.5,0,9,0,13.4c0,0.3,0,0.5,0.1,0.8c0.1,0.2,0.2,0.4,0.3,0.5
		c0.6,0.3,1.3,0.3,2,0c0.5-0.2,0.5-0.8,0.5-1.2c0-0.4,0-0.7,0-1.1c0-1.9,0-3.8,0.1-5.6c0.2-2.8,2-4.8,4.8-5.4
		c0.3-0.1,0.6-0.2,0.9-0.2c0.3-0.1,0.5-0.2,0.5-0.5c0.1-0.7,0.3-1.5-0.2-2.1C544.4,527.9,543.7,528.2,543.2,528.3z" class="st0"></path>
	<path d="M354.7,529.4c-0.1-0.6-0.4-0.9-1-1c-1.3-0.2-1.8,0.2-1.8,1.6c0,2.1,0,4.3,0,6.4c0,0,0,0,0,0c0,2.3,0,4.7,0,7
		c0,1.2,0.2,1.4,1.4,1.4c1.1,0,1.4-0.2,1.5-1.3c0-0.2,0-0.4,0-0.6c0-4.1,0-8.2,0-12.4C354.8,530.1,354.7,529.7,354.7,529.4z" class="st0"></path>
	<path d="M602.1,529.7c0-1.1-0.3-1.3-1.3-1.3c-1.1,0-1.4,0.3-1.4,1.5c0,4.4,0,8.8,0,13.3c0,0.2,0,0.4,0,0.6
		c0,0.6,0.4,0.9,1,1c1.3,0.1,1.7-0.2,1.7-1.5c0-2.2,0-4.4,0-6.6c0,0,0,0,0,0c0-0.5,0-1,0-1.6C602.1,533.3,602.1,531.5,602.1,529.7z" class="st0"></path>
	<path d="M427,526.1c0.7-1.2,1.7-0.9,2.7-0.5c0.9,0.3,1.7,0.8,2.6,0.7c1.5,0,2.7-1,3-2.6c0.1-0.4,0.2-0.8-0.2-1
		c-0.5-0.2-1-0.5-1.4,0c-0.1,0.1-0.3,0.3-0.4,0.5c-0.5,0.7-1.1,0.8-1.8,0.5c-0.7-0.3-1.4-0.6-2.2-0.8c-2-0.6-3.4,0.2-4,2.1
		c-0.1,0.4-0.4,0.9,0.2,1.3C426,526.6,426.6,526.7,427,526.1z" class="st0"></path>
	<path d="M637.2,541.2c-1.4,0-1.6,0.2-1.6,1.8c0,1.6,0.2,1.8,1.8,1.8c1.4,0,1.7-0.2,1.7-1.8
		C639,541.4,638.7,541.1,637.2,541.2z" class="st0"></path>
	<path d="M600.8,522.3c-1.4,0-1.6,0.2-1.6,1.4c0,1.3,0.3,1.5,1.6,1.5c1.4,0,1.6-0.2,1.6-1.5
		C602.4,522.6,602.1,522.3,600.8,522.3z" class="st0"></path>
	<path d="M353.3,522.3c-1.4,0-1.6,0.2-1.6,1.5c0,1.2,0.3,1.5,1.6,1.5c1.4,0,1.6-0.2,1.6-1.5
		C354.8,522.5,354.6,522.3,353.3,522.3z" class="st0"></path>
	<path d="M389.6,363.3c-5.4-12.1-18.7-12.8-26-8.5c-0.9,0.6-1.3,1.2-1.2,2.3c0.2,2.5,0.4,5.1,0.5,7.7
		c0.2,5.5,0.5,11.1,0.6,16.6c0.1,5.2,0.4,10.3,0.7,15.5c0.1,1.1,0.5,1.8,1.5,2.4c3,1.6,6.2,2.6,9.7,2.7c3.5,0.1,6.5-1.2,9.1-3.5
		c2.8-2.4,4.6-5.5,5.9-8.9c1.7-4.9,2.3-9.9,1.9-15.1C391.9,370.5,391.1,366.8,389.6,363.3z" class="st0"></path>
	<path d="M577.1,371.1c-4.3,1.2-7.6,3.8-10.1,7.5c-4.3,6.4-5.8,13.5-6.1,19.6c0,6.5,1,11,2.9,14.7
		c3.8,7.2,11,11,19.5,9.3c1.8-0.4,3.5-1,5-2.1c0.6-0.4,1-1,1.2-1.7c1.9-7.4,4-14.8,5.7-22.3c0.9-4,1.4-8.1,0.8-12.3
		C594.8,373.9,585.2,368.8,577.1,371.1z" class="st0"></path>
	<path d="M294.7,382.7c1.5,0.1,3.1-0.1,4.8-0.3c4-0.6,7.8-1.8,11.1-4.4c2.7-2.1,4.4-4.9,5-8.2c0.2-1.5,0.3-2.9-0.3-4.3
		c-1.2-2.8-3.4-4.4-6.3-5.1c-2.2-0.5-4.5-0.4-6.7,0c-4,0.7-7.3,2.6-9.7,6c-3.1,4.4-4,9.4-3.9,14.7c0,1,0.3,1.2,1.4,1.3
		C291.5,382.7,293,382.8,294.7,382.7z" class="st0"></path>
	<path d="M439.1,372c2.2,0.7,4.4,1.2,6.7,1.6c3.6,0.6,7.2,0.9,10.9,0.1c4.7-1,8.4-3.3,10.5-7.8c1.7-3.7,0.8-7.4-2.5-9.9
		c-2.8-2.1-6-2.5-8.7-2.7c-3.6,0-6.5,1-9.1,2.8c-4.9,3.5-7.5,8.6-8.9,14.3C437.8,371.3,437.9,371.6,439.1,372z" class="st0"></path>
</g>
</svg>
