<svg xml:space="preserve" style="enable-background:new 0 0 800 800;" viewBox="0 0 800 800" y="0px" x="0px" xmlns:xlink="http://www.w3.org/1999/xlink" xmlns="http://www.w3.org/2000/svg" id="Layer_1" version="1.1">
<style type="text/css">
	.st0{fill:#FFFFFF;}
	.st1{fill-rule:evenodd;clip-rule:evenodd;fill:#FFFFFF;}
</style>
<g>
	<g>
		<path d="M343.5,451.6c-9.2-2.7-16.9-5.9-24.6-9.3c-38.5-17.2-74.5-38.5-107.3-65c-9.3-7.5-18.3-15.5-25.3-25.4
			c-2-2.8-3.8-5.6-4.6-9c-0.8-4,0.4-6.9,4.2-8.1c7.8-2.5,15.4-0.2,22.8,2.5c-0.5,0.1-1,0.2-1.5,0.2c-8.7,0.4-11.2,4.7-7.2,12.4
			c5,9.5,12.7,17,20.5,24.1c4.6,4.2,9.4,8.1,14.1,12.2c1.6-1.3,1.1-2.6,1.1-3.7c0-13.2-0.1-26.4,0.1-39.6c0-3.4-1.2-5-4.2-6.4
			c-14.3-6.3-28.8-12.4-44.3-15.1c-5.1-0.9-10.2-1.8-15.4-0.6c-6.9,1.6-9.7,5.7-8,12.5c1.9,8,6.7,14.5,11.8,20.7
			c12.6,15.4,27.4,28.3,43,40.5c28.2,22.1,58.3,41,90.7,56.3c16.1,7.6,32.6,14.5,50.5,17.2c4.2,0.6,8.4,0.8,12.6-0.1
			c6.8-1.6,9.4-5.5,7.8-12.3c-1.4-6.1-4.8-11.2-8.3-16.2c-1.3-1.9-2.6-1-3.6,0.3c-1.9,2.6-3.7,5.2-5.7,8.2c-1.6-2.5-1.7-5-2-7.3
			c-1.1-7.7-2.1-15.3-3.2-23c-0.2-1.5-0.2-3,2-2c9.7,4.4,19.5,8.9,30.2,13.8c-4.5,1.4-8.2,1.5-11.5,2.9c-2.4,1-2.9,1.8-1,4
			c7.6,9.2,14.9,18.8,19.5,30c1.6,3.9,2.8,7.9,2.9,12.2c0.2,9.7-3.8,15.3-13.2,18c-9.3,2.7-18.6,1.8-27.9,0.2
			c-21.7-3.8-41.9-11.7-61.7-21.1c-37.9-17.9-72.8-40.4-104.9-67.3c-18-15.1-34.7-31.4-47.9-51c-4.6-6.9-8.5-14.2-10.4-22.5
			c-2.7-11.8,2.8-20.4,14.8-22.9c11.5-2.4,22.8-0.5,34,2c17.1,3.9,33.3,10.2,49.2,17.3c4.1,1.8,4.2,1.7,4.3-2.8c0-7.3,0.2-14.7,0-22
			c-0.1-3.6,1.3-4.8,4.8-4.7c7.5,0.2,15,0.3,22.5,0c4.2-0.2,4.9,1.7,4.9,5.4c-0.1,31.8,0.1,63.7-0.2,95.5c-0.1,5.6,1.7,8.8,6.5,11.7
			c21.8,13.3,43.7,26.1,67.4,35.7C342,450.2,342.2,450.5,343.5,451.6z M230.1,418.6c-1.2,0-1.6,0.7-2.1,1.4c-0.7,1-0.3,1.8,0.6,2.4
			c3.3,2.3,6.6,4.6,10,6.9c1.4,0.9,2.2,0.1,3-1c0.8-1.3,0.1-2-0.9-2.6c-2.7-1.8-5.3-3.7-8-5.5C231.8,419.6,230.8,419,230.1,418.6z
			 M256.2,435.9c-1.2,0.1-1.6,0.8-2,1.5c-0.6,1.1-0.1,1.9,0.8,2.4c3.2,2,6.5,4,9.8,5.9c1.2,0.7,2.4,0.5,3.1-0.8
			c0.8-1.5-0.3-2.3-1.4-2.9c-2.9-1.8-5.8-3.5-8.7-5.3C257.3,436.4,256.7,436.1,256.2,435.9z M390.7,478c0-1.1-0.9-1.6-1.6-2.2
			c-0.8-0.7-1.7-1-2.5,0c-1.9,2.5-4.6,3.7-7.4,4.8c-1,0.4-2.2,0.6-1.6,2.2c0.6,1.5,1.4,2.7,3.3,2.1c2.5-0.8,4.8-1.8,6.8-3.5
			C388.9,480.5,390.1,479.5,390.7,478z M216.7,409.5c-0.1-0.3-0.1-0.7-0.2-0.8c-3.2-3.1-6.5-6.1-10.5-8.2c-0.9-0.5-1.8,0.5-2.3,1.3
			c-0.6,0.9,0,1.5,0.6,2.1c3.1,2.5,6.1,5,9.2,7.3C215.5,412.6,216.1,410.9,216.7,409.5z M294.6,458.3c-0.3-0.3-0.5-0.9-0.9-1.2
			c-3.6-2-7.2-3.9-10.8-5.8c-1.1-0.6-1.8,0.2-2.2,1.1c-0.5,1.2-0.1,2.2,1,2.8c3.4,1.8,6.7,3.6,10.2,5.2
			C293.6,461.3,294.2,460,294.6,458.3z M309.8,464.6c-1.6-0.3-2.2,0.1-2.7,0.9c-0.5,1-0.5,2,0.6,2.4c3.5,1.6,6.9,3.1,10.5,4.4
			c1,0.4,1.8-0.4,2.2-1.4c0.3-0.9,0.1-1.7-0.7-2.1C316.2,467.3,312.7,465.8,309.8,464.6z" class="st0"></path>
		<path d="M383.3,311.7c26.3,0,47.8,22.2,48,49.3c0.2,26.6-22.1,49.6-47.9,49.6c-26.4-0.1-48.5-22.6-48.5-49.5
			C335,334.1,356.8,311.7,383.3,311.7z M407.4,361.3c0-13.9-10.9-25.5-23.9-25.6c-13.5,0-24.4,11.2-24.6,25.3
			c-0.2,13.8,11.1,25.7,24.3,25.6C396.4,386.6,407.3,375.1,407.4,361.3z" class="st0"></path>
		<path d="M610.3,348.1c4.7,0.8,8.9,0.3,13.1,0.4c6.9,0.1,13.9,0.1,20.8,0c3.2-0.1,4.8,1.1,4.7,4.5
			c-0.2,5.2-0.1,10.3,0,15.5c0.1,3-1.3,4-4.2,4c-10.3-0.1-20.7,0-31,0c-0.9,0-2.3-0.1-2.6,0.5c-0.8,1.1,0.5,1.9,1.1,2.8
			c3.9,5.3,9.3,7.8,15.8,7.8c11,0,22.1,0.1,33.1-0.1c3.9-0.1,5.4,1.1,5.2,5.1c-0.3,5-0.1,10.1-0.1,15.1c0,2.2-0.5,3.8-3.1,3.8
			c-13.9-0.2-27.8,0.8-41.6-0.5c-19.7-1.9-35.3-20.5-37.9-38.6c-2.9-20.2,6.3-39.6,23.7-49.5c5.2-2.9,10.7-4.7,16.7-4.7
			c12.7-0.1,25.3,0,38-0.1c3.1,0,4.4,1.1,4.3,4.3c-0.2,5.2-0.2,10.3,0,15.5c0.1,3.3-1.3,4.3-4.4,4.2c-11.8-0.1-23.7,0-35.5,0
			C619,338,614.1,341.8,610.3,348.1z" class="st0"></path>
		<path d="M580.2,360.8c0,13.9-0.1,27.8,0.1,41.6c0,3.6-1,5.2-4.9,5c-4.9-0.3-9.8-0.2-14.7,0c-3.3,0.1-4.6-1.1-4.5-4.5
			c0.2-8.7-0.1-17.4,0.1-26.1c0.1-3.4-1.1-4.5-4.5-4.4c-9,0.2-18,0.2-27,0c-3.3-0.1-4.3,1.2-4.2,4.3c0.2,8.6-0.1,17.2,0.1,25.7
			c0.1,4-1.4,5.3-5.2,5.1c-4.5-0.2-9,0-13.5-0.1c-5.2,0-5.3-0.2-5.3-5.2c0-19.5,0-38.9,0-58.4c0-8.4,0.1-16.9,0-25.3
			c-0.1-3.3,1.1-4.6,4.5-4.5c5,0.2,10.1,0.2,15.1,0c3.5-0.1,4.5,1.3,4.4,4.6c-0.1,8.6,0.1,17.1-0.1,25.7c-0.1,3.2,1.1,4.3,4.3,4.3
			c9.1-0.1,18.3-0.1,27.4,0c3.1,0,4-1.2,4-4.1c-0.1-8.6,0.1-17.1-0.1-25.7c-0.1-3.6,1.1-4.9,4.7-4.7c4.9,0.2,9.8,0.2,14.7,0
			c3.7-0.2,4.7,1.3,4.7,4.8C580.1,332.8,580.2,346.8,580.2,360.8z" class="st0"></path>
		<path d="M329,301.8c5.2,0,10.3,0,15.5,0c1.2,0,2.7-0.6,3.4,0.7c0.7,1.3-0.8,2.2-1.5,3.1c-8.5,10.5-17,20.9-25.5,31.4
			c-4.5,5.5-8.8,11-13.4,16.5c-1.6,1.8-2.1,3.6-1.3,5.9c3.9,11.6,7.4,23.3,11.6,34.8c4,11.1,14.3,17.6,26.6,17
			c4.1-0.2,5.1,1,4.8,4.9c-0.4,5.3-0.1,10.6-0.1,15.9c0,1.9-0.2,3.8-2.6,3.8c-11.2,0-22.7,1.5-33.3-3.7c-13-6.5-22.1-16.6-26.9-30.4
			c-4.9-14.1-9.4-28.4-14.2-42.6c-0.8-2.3-0.4-4,1-6c11.4-15.9,22.8-31.9,34-47.9c1.8-2.5,3.8-3.5,6.8-3.4
			C318.9,302,323.9,301.8,329,301.8z" class="st0"></path>
		<path d="M449.2,372.6c0-9.8-0.2-19.6,0.1-29.4c0.1-4.2-1.4-5.6-5.4-5.3c-3.8,0.3-7.6,0-11.4,0.1c-2.9,0.1-4.3-1-4.3-4
			c0.1-5.4,0.1-10.9,0-16.3c0-2.6,1.1-3.6,3.7-3.6c19.3,0.1,38.7,0.1,58,0c2.9,0,3.8,1.2,3.8,3.9c-0.1,5.4-0.1,10.9,0,16.3
			c0,2.7-1.2,3.7-3.7,3.7c-4.1,0-8.2,0.2-12.3,0c-3.6-0.2-4.7,1.2-4.7,4.7c0.1,19.6,0.1,39.2,0.1,58.8c0,6,0,6-6.2,6
			c-4.5,0-9-0.1-13.5,0c-3.2,0.1-4.3-1.1-4.3-4.3C449.3,393,449.2,382.8,449.2,372.6z" class="st0"></path>
	</g>
	<g>
		<path d="M414.8,441.7l-1,3.8h-3.4l4.5-14.7h4.4l4.5,14.7h-3.6l-1.1-3.8H414.8z M418.5,439.2l-0.9-3.1
			c-0.3-0.9-0.5-2-0.7-2.8h0c-0.2,0.9-0.4,2-0.7,2.8l-0.9,3.1H418.5z" class="st0"></path>
		<path d="M428.8,431.8v3h2.4v2.4h-2.4v3.9c0,1.3,0.3,1.9,1.3,1.9c0.4,0,0.7,0,1-0.1l0,2.5c-0.4,0.2-1.2,0.3-2.2,0.3
			c-1.1,0-2-0.4-2.5-0.9c-0.6-0.6-0.9-1.7-0.9-3.2v-4.4h-1.4v-2.4h1.4v-2.3L428.8,431.8z" class="st0"></path>
		<path d="M435.5,441.2c0.1,1.4,1.5,2,3,2c1.1,0,2-0.2,2.9-0.4l0.4,2.2c-1.1,0.4-2.4,0.7-3.9,0.7
			c-3.6,0-5.7-2.1-5.7-5.4c0-2.7,1.7-5.7,5.4-5.7c3.4,0,4.7,2.7,4.7,5.3c0,0.6-0.1,1.1-0.1,1.3H435.5z M439.4,438.9
			c0-0.8-0.3-2.2-1.9-2.2c-1.4,0-2,1.3-2,2.2H439.4z" class="st0"></path>
		<path d="M444.4,438.2c0-1.3,0-2.5-0.1-3.4h2.9l0.2,1.5h0.1c0.4-0.7,1.5-1.7,3.3-1.7c2.2,0,3.8,1.4,3.8,4.6v6.3h-3.3
			v-5.9c0-1.4-0.5-2.3-1.7-2.3c-0.9,0-1.5,0.6-1.7,1.2c-0.1,0.2-0.1,0.5-0.1,0.8v6.1h-3.3V438.2z" class="st0"></path>
		<path d="M467.5,430v12.3c0,1.2,0,2.5,0.1,3.2h-2.9l-0.2-1.6h0c-0.7,1.2-2,1.8-3.3,1.8c-2.5,0-4.5-2.2-4.5-5.5
			c0-3.6,2.2-5.7,4.8-5.7c1.3,0,2.3,0.5,2.8,1.2h0V430H467.5z M464.2,439.3c0-0.2,0-0.4,0-0.6c-0.2-0.9-0.9-1.6-1.9-1.6
			c-1.5,0-2.3,1.3-2.3,3c0,1.8,0.9,2.9,2.3,2.9c1,0,1.7-0.7,1.9-1.6c0.1-0.2,0.1-0.5,0.1-0.8V439.3z" class="st0"></path>
		<path d="M472.7,441.2c0.1,1.4,1.5,2,3,2c1.1,0,2-0.2,2.9-0.4l0.4,2.2c-1.1,0.4-2.4,0.7-3.9,0.7
			c-3.6,0-5.7-2.1-5.7-5.4c0-2.7,1.7-5.7,5.4-5.7c3.4,0,4.7,2.7,4.7,5.3c0,0.6-0.1,1.1-0.1,1.3H472.7z M476.6,438.9
			c0-0.8-0.3-2.2-1.9-2.2c-1.4,0-2,1.3-2,2.2H476.6z" class="st0"></path>
		<path d="M481.6,438.3c0-1.6,0-2.6-0.1-3.5h2.9l0.1,2h0.1c0.5-1.5,1.8-2.2,2.9-2.2c0.3,0,0.5,0,0.7,0v3.1
			c-0.2,0-0.5-0.1-0.9-0.1c-1.2,0-2,0.7-2.3,1.7c0,0.2-0.1,0.5-0.1,0.7v5.4h-3.3V438.3z" class="st0"></path>
		<path d="M496.8,441.2c0.1,1.4,1.5,2,3,2c1.1,0,2-0.2,2.9-0.4l0.4,2.2c-1.1,0.4-2.4,0.7-3.9,0.7
			c-3.6,0-5.7-2.1-5.7-5.4c0-2.7,1.7-5.7,5.4-5.7c3.4,0,4.7,2.7,4.7,5.3c0,0.6-0.1,1.1-0.1,1.3H496.8z M500.7,438.9
			c0-0.8-0.3-2.2-1.9-2.2c-1.4,0-2,1.3-2,2.2H500.7z M502.6,430.2l-2.7,3.3h-2.3l1.9-3.3H502.6z" class="st0"></path>
		<path d="M520.7,440c0,3.9-2.8,5.7-5.6,5.7c-3.1,0-5.5-2-5.5-5.5c0-3.4,2.3-5.6,5.7-5.6
			C518.5,434.6,520.7,436.8,520.7,440z M513,440.1c0,1.8,0.8,3.2,2.2,3.2c1.3,0,2.1-1.3,2.1-3.2c0-1.6-0.6-3.2-2.1-3.2
			C513.6,436.9,513,438.5,513,440.1z" class="st0"></path>
		<path d="M527.1,438.2c0-1.3,0-2.5-0.1-3.4h2.9l0.2,1.5h0.1c0.4-0.7,1.5-1.7,3.3-1.7c2.2,0,3.8,1.4,3.8,4.6v6.3h-3.3
			v-5.9c0-1.4-0.5-2.3-1.7-2.3c-0.9,0-1.5,0.6-1.7,1.2c-0.1,0.2-0.1,0.5-0.1,0.8v6.1h-3.3V438.2z" class="st0"></path>
		<path d="M550.4,440c0,3.9-2.8,5.7-5.6,5.7c-3.1,0-5.5-2-5.5-5.5c0-3.4,2.3-5.6,5.7-5.6
			C548.2,434.6,550.4,436.8,550.4,440z M542.7,440.1c0,1.8,0.8,3.2,2.2,3.2c1.3,0,2.1-1.3,2.1-3.2c0-1.6-0.6-3.2-2.1-3.2
			C543.3,436.9,542.7,438.5,542.7,440.1z" class="st0"></path>
		<path d="M552.4,442.6c0.6,0.4,1.9,0.8,2.8,0.8c1,0,1.4-0.3,1.4-0.9c0-0.5-0.3-0.8-1.6-1.2c-2.2-0.7-3-1.9-3-3.2
			c0-2,1.7-3.5,4.3-3.5c1.2,0,2.3,0.3,3,0.6l-0.6,2.3c-0.5-0.3-1.4-0.6-2.3-0.6c-0.8,0-1.3,0.3-1.3,0.9c0,0.5,0.4,0.8,1.7,1.2
			c2,0.7,2.9,1.7,2.9,3.3c0,2-1.6,3.4-4.6,3.4c-1.4,0-2.6-0.3-3.4-0.7L552.4,442.6z" class="st0"></path>
		<path d="M561.8,442.6c0.6,0.4,1.9,0.8,2.8,0.8c1,0,1.4-0.3,1.4-0.9c0-0.5-0.3-0.8-1.6-1.2c-2.2-0.7-3-1.9-3-3.2
			c0-2,1.7-3.5,4.3-3.5c1.2,0,2.3,0.3,3,0.6l-0.6,2.3c-0.5-0.3-1.4-0.6-2.3-0.6c-0.8,0-1.3,0.3-1.3,0.9c0,0.5,0.4,0.8,1.7,1.2
			c2,0.7,2.9,1.7,2.9,3.3c0,2-1.6,3.4-4.6,3.4c-1.4,0-2.6-0.3-3.4-0.7L561.8,442.6z" class="st0"></path>
		<path d="M581.8,440c0,3.9-2.8,5.7-5.6,5.7c-3.1,0-5.5-2-5.5-5.5c0-3.4,2.3-5.6,5.7-5.6
			C579.6,434.6,581.8,436.8,581.8,440z M574.1,440.1c0,1.8,0.8,3.2,2.2,3.2c1.3,0,2.1-1.3,2.1-3.2c0-1.6-0.6-3.2-2.1-3.2
			C574.7,436.9,574.1,438.5,574.1,440.1z" class="st0"></path>
		<path d="M588.2,438.2c0-1.3,0-2.5-0.1-3.4h2.9l0.2,1.5h0.1c0.4-0.7,1.5-1.7,3.3-1.7c2.2,0,3.8,1.4,3.8,4.6v6.3H595
			v-5.9c0-1.4-0.5-2.3-1.7-2.3c-0.9,0-1.5,0.6-1.7,1.2c-0.1,0.2-0.1,0.5-0.1,0.8v6.1h-3.3V438.2z" class="st0"></path>
		<path d="M603.5,441.2c0.1,1.4,1.5,2,3,2c1.1,0,2-0.2,2.9-0.4l0.4,2.2c-1.1,0.4-2.4,0.7-3.9,0.7
			c-3.6,0-5.7-2.1-5.7-5.4c0-2.7,1.7-5.7,5.4-5.7c3.4,0,4.7,2.7,4.7,5.3c0,0.6-0.1,1.1-0.1,1.3H603.5z M607.4,438.9
			c0-0.8-0.3-2.2-1.9-2.2c-1.4,0-2,1.3-2,2.2H607.4z" class="st0"></path>
		<path d="M622.6,434.8c0,0.7-0.1,1.6-0.1,3.2v5.9c0,2-0.4,3.7-1.6,4.8c-1.2,1-2.8,1.3-4.3,1.3c-1.4,0-2.9-0.3-3.8-0.8
			l0.7-2.5c0.7,0.4,1.8,0.8,3.1,0.8c1.6,0,2.8-0.8,2.8-2.8V444h0c-0.6,0.9-1.7,1.4-2.9,1.4c-2.6,0-4.5-2.1-4.5-5.2
			c0-3.4,2.2-5.6,4.8-5.6c1.5,0,2.4,0.6,2.9,1.5h0l0.1-1.3H622.6z M619.2,439.1c0-0.2,0-0.4-0.1-0.6c-0.2-0.9-0.9-1.5-1.8-1.5
			c-1.2,0-2.2,1.1-2.2,3c0,1.6,0.8,2.8,2.2,2.8c0.8,0,1.5-0.6,1.7-1.3c0.1-0.2,0.1-0.6,0.1-0.9V439.1z" class="st0"></path>
		<path d="M635.7,440c0,3.9-2.8,5.7-5.6,5.7c-3.1,0-5.5-2-5.5-5.5c0-3.4,2.3-5.6,5.7-5.6
			C633.5,434.6,635.7,436.8,635.7,440z M628,440.1c0,1.8,0.8,3.2,2.2,3.2c1.3,0,2.1-1.3,2.1-3.2c0-1.6-0.6-3.2-2.1-3.2
			C628.6,436.9,628,438.5,628,440.1z M633.6,430.2l-2.7,3.3h-2.3l1.9-3.3H633.6z" class="st0"></path>
		<path d="M648,434.8c0,0.7-0.1,1.6-0.1,3.2v5.9c0,2-0.4,3.7-1.6,4.8c-1.2,1-2.8,1.3-4.3,1.3c-1.4,0-2.9-0.3-3.8-0.8
			l0.7-2.5c0.7,0.4,1.8,0.8,3.1,0.8c1.6,0,2.8-0.8,2.8-2.8V444h0c-0.6,0.9-1.7,1.4-2.9,1.4c-2.6,0-4.5-2.1-4.5-5.2
			c0-3.4,2.2-5.6,4.8-5.6c1.5,0,2.4,0.6,2.9,1.5h0l0.1-1.3H648z M644.6,439.1c0-0.2,0-0.4-0.1-0.6c-0.2-0.9-0.9-1.5-1.8-1.5
			c-1.2,0-2.2,1.1-2.2,3c0,1.6,0.8,2.8,2.2,2.8c0.8,0,1.5-0.6,1.7-1.3c0.1-0.2,0.1-0.6,0.1-0.9V439.1z" class="st0"></path>
		<path d="M654,431.8c0,0.9-0.7,1.7-1.8,1.7c-1,0-1.7-0.7-1.7-1.7c0-1,0.7-1.7,1.7-1.7
			C653.3,430.2,653.9,430.9,654,431.8z M650.5,445.4v-10.6h3.3v10.6H650.5z" class="st0"></path>
		<path d="M667,440c0,3.9-2.8,5.7-5.6,5.7c-3.1,0-5.5-2-5.5-5.5c0-3.4,2.3-5.6,5.7-5.6C664.8,434.6,667,436.8,667,440z
			 M659.3,440.1c0,1.8,0.8,3.2,2.2,3.2c1.3,0,2.1-1.3,2.1-3.2c0-1.6-0.6-3.2-2.1-3.2C659.9,436.9,659.3,438.5,659.3,440.1z" class="st0"></path>
	</g>
</g>
</svg>
