<svg xml:space="preserve" style="enable-background:new 0 0 800 800;" viewBox="0 0 800 800" y="0px" x="0px" xmlns:xlink="http://www.w3.org/1999/xlink" xmlns="http://www.w3.org/2000/svg" id="Layer_1" version="1.1">
<style type="text/css">
	.st0{fill:#FFFFFF;}
	.st1{fill-rule:evenodd;clip-rule:evenodd;fill:#FFFFFF;}
</style>
<g>
	<path d="M213.6,372.3c2.8,1.7,5.4,3.7,7.8,5.8c5.5,4.9,11.1,9.8,15.2,15.9c2.1,3,4.1,6.1,6,9.3c0.9,1.4,0,3-0.3,4.3
		c-2,7.5-5,14.5-9.5,21c-2.9,4.1-6.2,7.8-9.8,11.3c-5.8,5.7-12.9,9.4-20.2,12.7c-5.8,2.6-11.9,3.5-18.2,4.2
		c-6.5,0.8-12.9-0.2-19.1-1.5c-9.3-2-17.9-6.1-25.1-12.1c-9.8-8-17.5-17.6-21.6-30c-2.7-8.2-3.4-16.5-3.2-25.1
		c0.2-7.4,2.7-14.1,5.2-20.8c0.8-2.2,2.8-2.6,4.5-3.2c4.9-1.7,9.6-4,14.8-4.9c4.8-0.8,9.4-2.1,14.3-2.3c3.6-0.2,7.2-0.2,10.8-0.3
		c0,1-0.7,1.1-1.3,1.4c-10.3,4.5-17.1,12.5-21,22.7c-2.5,6.5-2.6,13.3-1,20.2c1.5,6.7,4.1,12.8,8.8,17.9c4.1,4.4,8.6,8.4,14.3,10.5
		c8.5,3.2,17.4,3.8,26,1.1c9.9-3.1,18-9.1,23.1-18.4c3.8-6.9,5.4-14.4,4.6-22.2c-0.6-5.6-2.1-10.9-5-15.8
		C213.4,373.4,213.2,373,213.6,372.3z" class="st0"></path>
	<path d="M181,328.8c4.3,0.7,9.7,0.6,14.9,2.5c3.6,1.3,7.4,2,10.9,3.8c3.1,1.6,6.1,3.1,9,5.1c3.4,2.4,6.6,5,9.6,7.9
		c3.4,3.3,6.2,7.2,9,11.2c2,2.8,3.3,5.9,4.7,9c2,4.3,3.5,8.9,4.2,13.6c0.7,4.9,1.1,9.8,1,14.7c0,0.4,0.1,0.8-0.2,1.2
		c-0.5,0.6,0.5,1.8-0.7,2.1c-1.3,0.3-1.6-1.1-2-1.8c-4.1-8.4-9.8-15.6-16.2-22.3c-3.8-4-8.4-7-12.8-10.3c-8-5.9-16.9-9.8-26.3-12.9
		c-4.5-1.5-9.1-2.1-13.7-3.3c-2.3-0.6-4.9-0.2-7.4-0.5c-2.4-0.3-4.8-0.3-7.2-0.4c-3.3-0.2-6.5,0.5-9.8,0.7
		c-5.1,0.3-9.9,1.4-14.8,2.8c-0.5,0.1-0.9,0-1.3-0.3c-0.6-0.6,0-1.1,0.3-1.3c2.1-2,4.1-4.1,6.3-6c4-3.3,8.4-6.1,13-8.4
		c6.3-3.1,12.9-5.2,19.9-6C174.4,329.4,177.2,328.9,181,328.8z" class="st0"></path>
	<path d="M270,393.4c0.1-4.9,0.2-9.7,2.6-14.1c3.2-6.1,8-10,15-11c5.8-0.8,11.8-1,17.6,0c8.4,1.4,15,6.3,16.8,15.9
		c0.6,3.5,1.4,6.9,1.2,10.4c-0.4,6.2-1.4,12.2-5.8,17.1c-2.8,3.1-6.1,5.2-10,6c-4.1,0.8-8.2,1.8-12.4,1.5
		c-5.6-0.4-11.2-1.1-16.2-4.2c-3.6-2.2-5.6-5.6-7.1-9.5C270.1,401.5,270.2,397.5,270,393.4z M295.8,408.2c1.8,0,3.6,0,5.5,0
		c6.3,0,9.8-3.7,10.9-9.2c1-5,0.7-10-1-14.9c-1-2.9-3.1-4.6-6-5.2c-5-1.2-10.1-1-15.3-0.5c-4.3,0.5-8,3.8-8.9,8.1
		c-1,4.5-0.9,8.9-0.3,13.3c0.5,3.4,3.6,7.5,7.2,8.1C290.6,408.3,293.2,408,295.8,408.2z" class="st0"></path>
	<path d="M397.8,418.8c-3.9,0-8.3,0-12.7,0c-3,0-4.1-0.8-3.5-3.6c0.4-1.7,0.2-3.3,0.3-4.9c0-1.3,0.4-1.6,1.7-1.7
		c8.7-0.8,17.4,0,26.1-0.3c1.7-0.1,3.3-0.1,5-0.9c2-1,2.8-3.8,2.2-6c-0.5-2.2-2.1-2.9-4.3-3.3c-5.9-1-11.8,0.1-17.7-0.5
		c-6.6-0.6-13.3-5.6-13.5-13.3c-0.1-3.8,0.2-7.4,2.5-10.7c2.1-3,4.8-5,8.4-5.4c9.8-1.1,19.7-0.3,29.5-0.5c1.4,0,1.9,0.5,1.8,1.9
		c-0.1,2.1,0,4.2,0,6.3c0,1.8-0.9,2.4-2.6,2.2c-7-0.8-14.1-0.1-21.1-0.3c-1.6,0-3.3,0.1-4.9,0.4c-2.2,0.5-3.1,2.4-3.3,4.3
		c-0.2,1.7,0.1,3.6,2,4.6c1.2,0.6,2.5,0.9,4,0.8c6.2-0.1,12.4-0.7,18.5,0.7c6.7,1.5,10.6,5.3,11.3,13.1c0.2,2.7-0.2,5.3-1.3,7.8
		c-2.3,5-6.2,7.7-11.5,8.6C409.1,419.1,403.7,418.5,397.8,418.8z" class="st0"></path>
	<path d="M655.5,418.8c-4.5,0-9-0.1-13.4,0c-1.8,0-2.7-0.5-2.5-2.4c0.1-1.8,0.1-3.6,0-5.4c-0.2-2.1,0.6-2.8,2.7-2.7
		c7.6,0.1,15.2,0.1,22.8,0.1c1.4,0,2.7,0,4.1-0.1c3.5-0.2,4.9-2,4.9-5.6c0-1.4-0.1-2.3-1.3-3.3c-1.1-0.8-2.2-1-3.5-1.2
		c-6-0.9-12.1,0.2-18.1-0.5c-3.6-0.4-6.8-1.9-9.2-4.9c-5.2-6.2-4.2-17.8,2.2-22.2c2.6-1.7,5.3-2.8,8.3-2.8c8.9-0.1,17.8,0,26.6,0
		c1.5,0,1.8,0.6,1.7,1.8c-0.1,2-0.1,4.1,0,6.1c0.2,2.1-0.8,2.7-2.7,2.5c-7.5-0.8-15-0.1-22.5-0.3c-1.7-0.1-3.5,0.1-5,1.2
		c-1.9,1.3-2.2,3.3-1.7,5.2c0.5,1.8,1.7,3.5,4.1,3.5c4.6,0,9.3,0,13.9,0.1c3.8,0.1,7.6,0.8,11,2.6c3.9,2.1,5.9,5.6,6.3,10
		c0.4,5.2,0.2,10.2-4.1,14c-3,2.7-6.8,3.8-10.7,4c-4.6,0.2-9.3,0-13.9,0C655.5,418.6,655.5,418.7,655.5,418.8z" class="st0"></path>
	<path d="M461,418.6c-4.3,0-8.7,0.2-13-0.1c-6.9-0.5-11.8-3.5-14.3-10.4c-0.8-2.1-0.7-4.4-0.6-6.4
		c0.5-6.3,0-12.6,0.2-18.9c0.1-4.5,1.3-8.5,4.8-11.4c2.9-2.4,6.5-3.5,10.2-3.5c8.9-0.1,17.8,0,26.6-0.1c1.3,0,1.7,0.4,1.7,1.7
		c-0.1,2.2-0.2,4.4,0,6.6c0.2,2-0.7,2.3-2.5,2.2c-8-0.1-15.9-0.1-23.9-0.1c-1.7,0-3.3,0.2-4.6,1.4c-1.6,1.6-2.7,5.9-1.9,8
		c0.4,1.1,1.4,0.8,2.2,0.8c6.9,0,13.8,0.1,20.7,0c1.9,0,2.8,0.3,2.6,2.4c-0.2,1.7-0.1,3.5,0,5.2c0.2,2.1-1,2.4-2.7,2.2
		c-5.8-0.8-11.6-0.7-17.3,0c-0.5,0.1-1.2-0.2-1.6,0.1c-1.3,0.7-3.8-1.8-4,1.8c-0.3,7,1.6,8,4.6,8.1c8.6,0.2,17.1,0.2,25.7,0.1
		c2.1,0,2.7,0.6,2.5,2.5c-0.1,2-0.1,3.9,0,5.9c0.1,1.7-0.6,2.2-2.2,2.2c-4.5-0.1-9,0-13.4,0C461,418.7,461,418.7,461,418.6z" class="st0"></path>
	<path d="M377.5,418.8c-3.5,0-6.5,0-9.5,0c-1.1,0-1.8-0.4-2.4-1.4c-3.1-5.1-6.2-10.2-9.2-15.3c-1-1.8-2.2-2.5-4.4-2.2
		c-2.8,0.4-5.8,0.1-8.6,0.1c-1.2,0-1.5,0.4-1.5,1.5c0.1,5-0.1,10,0.1,14.9c0.1,1.9-0.6,2.4-2.4,2.3c-2-0.1-3.9,0-5.9,0.1
		c-1.4,0-2.1-0.3-2.1-1.9c0-6.6-0.2-13.3-0.2-19.9c0-4.3,3.5-7.3,8.2-7.4c6.5,0,13,0,19.6,0c3.3,0,4.9-1.3,5.9-4.2
		c1.3-3.9-1.2-7.6-5.4-7.6c-6.3,0-12.6,0-18.9,0.1c-2.5,0-5,0.1-7.5,0.2c-1.6,0-2.5-0.5-2.4-2.4c0.1-2,0.2-3.9,0-5.9
		c-0.2-2,0.8-2.3,2.4-2.3c2.8,0,5.6,0,8.4,0c6.8,0,13.6-0.4,20.4,0.2c3.3,0.3,6.1,2,8.9,3.9c3.5,2.5,3.9,6.2,4.5,9.7
		c0.9,6.1-1.9,10.9-6.3,14.9c-0.4,0.4-1,0.7-1.5,0.9c-2,0.9-2,1.5-0.9,3.3C370.5,406.4,374.1,412.3,377.5,418.8z" class="st0"></path>
	<path d="M512.8,367.6c3.8,0,7.6,0.1,11.4,0c1.3,0,1.7,0.4,1.7,1.7c0,2.2-0.1,4.4,0.1,6.6c0.1,1.8-0.6,2.2-2.2,2.2
		c-6.1-0.1-12.1-0.1-18.2-0.2c-3.3-0.1-6.3,1-8.7,2.9c-2.6,2.1-3.6,5.4-3.8,8.6c-0.2,3.3-0.4,6.7,0.4,10.1c1.1,5.2,4.7,8.6,10,8.7
		c3.6,0.1,7.1,0,10.7,0.1c4.2,0.1,5.2-2.2,5.7-5.6c0.1-0.6,0-1.2,0-1.8c0.3-2.7,0.3-2.8-2.6-2.8c-2.2,0-4.4,0-6.6,0.1
		c-1.3,0.1-2-0.3-1.9-1.8c0.1-2.1,0.1-4.2,0-6.3c0-0.9,0.3-1.6,1.2-1.5c4.9,0.2,9.8-0.6,14.7,0.6c3,0.7,4.2,2.9,4.9,5.5
		c0.4,1.6,0.4,3.3,0.2,4.9c-0.4,2.8-0.1,5.6-0.9,8.4c-1.9,6.2-6.3,9.3-12.5,10.3c-5.9,0.9-11.9,0.8-17.7-0.5
		c-7-1.6-12.2-5.8-14.4-12.8c-2.5-8.1-2.5-16.3,0.4-24.3c2.6-7.2,10.1-12.5,17.8-12.6c3.4-0.1,6.8,0,10.2,0
		C512.8,367.8,512.8,367.7,512.8,367.6z" class="st0"></path>
	<path d="M537.7,387.1c0-5.8,0-11.6,0-17.4c0-1.4,0.4-1.9,1.8-1.8c2.4,0.1,4.7,0,7.1,0c1.2,0,1.7,0.3,1.7,1.7
		c-0.1,11-0.1,22-0.2,33.1c0,3.2,2.9,6.1,6.4,6.1c3.4,0,6.8-0.2,10.2,0c3.2,0.2,7.3-3.4,7.1-7c-0.3-8.3-0.1-16.7,0-25
		c0-2.3,0.1-4.7-0.1-7c-0.1-1.3,0.3-1.8,1.6-1.8c2.4,0.1,4.7,0,7.1,0c1.2,0,1.5,0.4,1.5,1.6c-0.1,10.6,0.1,21.1-0.2,31.7
		c-0.1,4.4-0.7,8.8-3.9,12.4c-2.9,3.2-6.5,4.8-10.7,5c-5.1,0.3-10.3,0.4-15.5,0c-4.3-0.3-8.2-2.2-10.9-5.2c-2.2-2.4-3.1-5.8-3.1-9.2
		C537.6,398.4,537.6,392.8,537.7,387.1C537.7,387.1,537.7,387.1,537.7,387.1z" class="st0"></path>
	<path d="M605.1,367.8c3.9,0,7.7,0,11.6,0c10.6,0,18.1,8.3,15.8,19c-1.7,7.6-7,12.5-14.8,12.8
		c-5.1,0.2-10.3,0.4-15.5,0.4c-1.4,0-1.8,0.3-1.8,1.7c0.1,4.8,0,9.5,0.1,14.3c0,1.9-0.5,3-2.7,2.8c-2-0.2-3.9,0-5.9,0
		c-1.3,0-1.9-0.4-1.9-1.8c0-6.6-0.1-13.3,0-19.9c0.1-4.9,3.1-7.3,9.3-7.4c5.6-0.1,11.2,0,16.8,0c4.1,0,6.1-1.6,6.2-4.9
		c0.2-4.3-1.7-6.8-5.9-6.8c-7.9,0-15.8-0.4-23.6,0.3c-3,0.3-3.2,0.1-3.1-2.9c0-1.8,0.2-3.6,0-5.4c-0.2-1.6,0.3-2.1,1.9-2.1
		C596.1,367.9,600.6,367.8,605.1,367.8C605.1,367.8,605.1,367.8,605.1,367.8z" class="st0"></path>
	<path d="M530.4,452.7c0.2,4.6-1.1,8.4-5.4,10.8c-4.6,2.6-11.6,1-14-3.9c-2.5-5.2-2.6-10.6,0.9-15.4
		c2.6-3.6,6.7-4,10.7-3.2C528,442.1,530.3,445.9,530.4,452.7z M520.1,444.4c-3.3-0.7-6,2.5-6.2,5.1c-0.1,2-0.1,4.1,0,6.1
		c0.1,2.7,2.6,5.2,5.3,5.6c2.5,0.3,5.8-1.5,6.4-4c0.4-2,1-4.1,0.6-6.2C525.3,445.7,523.6,444.1,520.1,444.4z" class="st0"></path>
	<path d="M393.5,464.1c-3,1.8-4.5-0.1-5.9-2.3c-1.1-1.8-2.5-3.4-3.7-5.1c-0.7-0.9-1.6-1.3-2.7-1.3
		c-1.2,0-1.6,0.4-1.6,1.6c0.1,2,0,4.1,0,6.1c0.1,2-1.4,1.6-2.5,1.8c-1.3,0.2-1.7-0.5-1.7-1.7c0-6.7,0-13.4,0-20.1
		c0-0.8,0.2-1.6,1.1-1.7c3.8,0,7.7-1,11.5,0.5c3,1.2,4,3.5,4.2,6.2c0.1,2.4-0.7,4.8-3.2,5.9c-1.8,0.8-1.7,1.5-0.5,2.9
		C390.5,459.1,392.3,461.5,393.5,464.1z M379.6,448.3c0,4.1,0.8,4.7,4.8,3.7c0.7-0.2,1.4-0.4,2.1-0.6c0.8-0.2,1.1-0.6,1.4-1.5
		c1-3.7-0.4-5.5-4.3-5.5C379.6,444.5,379.6,444.5,379.6,448.3z" class="st0"></path>
	<path d="M362,441.3c2.3-0.5,3.4,0.3,4.1,2.5c2,6.2,4.2,12.3,6.2,18.4c0.2,0.7,0.9,1.8-0.5,2c-1.2,0.1-2.8,1-3.5-0.8
		c-0.5-1.2-0.8-2.5-0.9-3.8c0-1.6-0.9-2-2.1-2c-2.3-0.1-4.5,0-6.8-0.1c-1.1,0-1.3,0.7-1.6,1.5c-0.5,1.4-1.1,2.8-1.3,4.2
		c-0.3,2-1.7,1.8-3,1.5c-1.5-0.3-1.3-1.5-0.9-2.6c2.3-6.5,4.7-12.9,6.6-19.5C358.9,440.3,360.7,441.7,362,441.3z M361.9,444.6
		c-0.5,2.9-2.1,5.3-2.9,7.9c-0.4,1.2-0.1,1.6,1.1,1.6c1.6-0.1,3.2,0,4.8,0c-0.4-2.9-1.7-5.3-2.3-7.9
		C362.5,445.6,362.2,445.1,361.9,444.6z" class="st0"></path>
	<path d="M623.1,464.4c-2,0.4-2.5-0.6-3.1-2.4c-1.2-4,0-4.3-5.4-4.3c-0.5,0-1.1,0-1.6,0c-3.6,0-3.6,0-4.3,3.4
		c-0.3,1.5-0.9,2.7-2.2,3.6c-0.7,0.5-1.7,0.6-2.1,0.1c-0.4-0.5-0.8-1.3-0.4-2.3c2.3-6.4,4.4-12.8,6.5-19.3c0.4-1.3,1-1.8,2.3-1.8
		c4.8-0.1,4.7-0.1,6.3,4.4c1.9,5.3,3.8,10.6,5.1,16.1c0.1,0.2,0.2,0.4,0.3,0.6C625.9,464.2,625.2,464.7,623.1,464.4z M614,444.9
		c-0.8-0.1-0.7,0.5-0.8,1c-0.4,2.2-0.7,4.5-1.9,6.5c-0.9,1.5-0.1,1.5,1.1,1.6c1.1,0.1,2.2-0.1,3.3,0.3c1.1,0.4,1.9-0.2,1.4-1.6
		c-0.8-2.3-1.6-4.6-2.4-6.9C614.7,445.5,614.8,444.8,614,444.9z" class="st0"></path>
	<path d="M478.8,441.4c3.3-0.9,3.5,1.3,4.3,3.6c2,5.6,3.7,11.2,5.8,16.7c0.4,1.1,1.1,2.3-0.6,2.9
		c-1.7,0.5-2.9-0.1-3.5-1.8c-0.3-1-0.9-1.9-0.9-2.9c0-1.9-1.3-2.2-2.7-2.3c-0.4-0.1-0.9,0-1.4,0c-1.8,0-3.9-0.5-5.4,0.2
		c-1.6,0.7-1.4,3.1-1.9,4.7c-0.7,2.1-2.3,1.9-3.8,1.8c-0.7-0.1-0.8-0.5-0.5-1.2c1.4-3.9,2.6-7.9,3.9-11.8c0.8-2.4,2-4.8,2.5-7.3
		C475.2,441.4,476.5,440.8,478.8,441.4z M478.6,454C478.6,454,478.6,454,478.6,454c0.8,0,1.5,0,2.3,0c0.6,0,0.8-0.2,0.6-0.9
		c-0.7-2.4-1.4-4.7-2.1-7.1c-0.1-0.4-0.3-0.7-0.8-0.6c-0.3,0-0.5,0.2-0.6,0.5c-0.7,2.1-1.6,4.2-2.3,6.3c-0.3,0.9-0.3,2,1.3,1.8
		C477.6,453.9,478.1,454,478.6,454z" class="st0"></path>
	<path d="M451.2,452.9c0-3.3,0-6.6,0-9.9c0-0.9,0-1.7,1.2-1.7c3,0,5.9-0.8,8.9-0.2c4.9,1,7.7,5.1,6.5,10
		c-1,4-2.3,5.1-8,6.1c-3.6,0.6-3.6,0.5-3.8,4.1c-0.2,3.2-0.2,3.2-3.4,3.5c-1.2,0.1-1.5-0.6-1.5-1.7
		C451.2,459.7,451.1,456.3,451.2,452.9C451.2,452.9,451.2,452.9,451.2,452.9z M456,449.1C456,449.1,456,449.1,456,449.1
		c0,0.5,0,0.9,0,1.4c0.1,4,0.3,4.2,4.4,3.1c3.3-0.9,4.8-4.8,2.9-7.6c-1-1.4-4-2.3-6.4-1.5c-1.7,0.6-0.5,2.2-0.8,3.3
		C455.8,448.2,456,448.7,456,449.1z" class="st0"></path>
	<path d="M534.2,452.6c0-3.3,0.1-6.6,0-10c0-1.3,0.4-1.8,1.7-1.7c4.2,0,8.3,0,12.5,0c1.5,0,1.6,0.8,1.6,2
		c0,1.3-0.4,1.7-1.7,1.6c-2.7-0.1-5.5-0.1-8.2-0.2c-1.4-0.1-2,0.4-2.1,1.9c-0.1,4.6-0.2,4.6,4.4,4.6c1.4,0,2.9,0,4.3,0
		c1.2,0,1.8,0.4,1.8,1.7c0.1,1.4-0.8,1.5-1.7,1.5c-2.3,0-4.5,0-6.8,0c-1.4,0-2,0.4-2,2c0.2,5.8-0.8,4.7,4.7,4.9c1.7,0,3.3,0,5-0.1
		c1.7-0.1,2.5,1,2.5,2.4c0,1.6-1.4,1.2-2.4,1.3c-4,0-8,0-12,0c-1.4,0-1.8-0.5-1.8-1.9C534.2,459.2,534.1,455.9,534.2,452.6
		C534.1,452.6,534.2,452.6,534.2,452.6z" class="st0"></path>
	<path d="M334.8,453.1c0-3.4,0-6.8,0-10.2c0-0.6-0.1-1.4,0.6-1.5c4.3-0.5,8.6-1.6,12.6,1.2c2.8,2,4,4.9,3.2,8.1
		c-1,3.8-3.5,6.1-6.9,6.4c-0.6,0.1-1.2,0-1.7,0.3c-1,0.5-2.5-0.5-3.2,0.6c-0.8,1.2-0.2,2.8-0.3,4.2c0,0.7,0.4,1.8-0.2,1.9
		c-1.2,0.2-2.4,1-3.7,0.5c-0.4-0.1-0.6-0.5-0.6-1.1c0.1-3.5,0-7,0-10.5C334.7,453.1,334.7,453.1,334.8,453.1z M339.1,449
		c0,5.1,0,5,4.7,4.5c1.8-0.2,2.9-1.1,3.2-2.8c0.3-1.7,0.8-3.6-0.7-5.1c-1-1-5.6-1.9-6.6-1.1c-1.3,1-0.3,2.5-0.6,3.8
		C339,448.5,339.1,448.8,339.1,449z" class="st0"></path>
	<path d="M562.7,444.4c-1.1,0-2.1,0-3.2,0c-1.4,0.1-2.8,0.3-3.2,1.9c-0.3,1.6,0.4,2.8,1.9,3.4c1.9,0.7,3.7,1.3,5.6,2
		c4,1.4,5.3,6.6,2.5,9.7c-1.8,1.9-3.9,3.1-6.7,3c-1.6-0.1-3.2-0.1-4.8,0c-1.4,0-2-0.6-2.3-1.9c-0.2-0.7-0.3-1.2,0.1-1.8
		c0.5-0.7,1.2-0.5,1.8-0.3c2.3,0.6,4.6,0.5,6.9,0c1.2-0.3,2.2-0.6,2.2-2.1c0-1.5-0.4-2.6-1.8-3.3c-1.7-0.9-3.7-0.8-5.5-1.8
		c-3.3-1.7-4.7-3.9-4.1-7.3c0.4-2.3,3.3-4.4,5.9-5.2c2.5-0.7,4.9,0,7.3,0.1c1.6,0,1.8,1.4,1.8,2.6c0.1,1.4-1.1,0.9-1.8,0.9
		C564.5,444.5,563.6,444.4,562.7,444.4C562.7,444.4,562.7,444.4,562.7,444.4z" class="st0"></path>
	<path d="M497.2,469.4c1.4,0.2,2.6-0.3,3.8-0.5c0.4-0.1,0.9,0.2,1.1-0.5c0.1-0.6-0.2-1.2-0.7-1.2
		c-1.3,0-1.5-0.9-1.8-1.9c-0.1-0.4-0.3-0.9-1-1c-4.2-0.6-7.5-6-7.4-9.9c0.1-2.5-0.1-5,0.8-7.5c1.9-5.6,8.8-6.8,12.6-6
		c0.5,0.1,1,0.3,1.5,0.3c1.7-0.1,2,1.1,1.9,2.4c-0.1,1.6-1.5,1.5-2.4,1.2c-2-0.7-3.8-0.4-5.7,0c-1.3,0.2-2.2,0.9-2.9,1.9
		c-2.3,2.9-2.4,9.1-0.1,12c1.9,2.2,4.5,2.8,7.3,2.4c0.4-0.1,0.8-0.4,1.1-0.3c0.8,0.2,2.1-0.8,2.3,0.8c0.2,1.3-0.5,2.3-1.8,2.7
		c-1,0.4-2.7-0.7-3.1,0.7c-0.3,1.1,1.3,1.7,2,2.6c0.6,0.8,0.3,1.3-0.3,1.9C502.6,471.7,499.2,471.7,497.2,469.4z" class="st0"></path>
	<path d="M588,444.4c-1,0-2,0-3,0c-1.7,0-2.8,0.8-3.2,2.3c-0.3,1.5,0.6,2.6,2,3.1c1.9,0.7,3.9,1.1,5.7,1.9
		c2.4,1,3.6,2.8,4.1,5.4c0.6,3-3.7,6.9-6.7,7.2c-2.3,0.2-4.6,0-6.9,0c-2.2,0-2.1-1.6-2-3c0.2-1.9,1.4-0.8,2.4-0.7
		c2,0.4,3.8,0.8,5.9,0.3c2-0.5,2.6-1.8,3-3.4c0.2-0.8-0.2-1.2-0.9-1.8c-1.8-1.3-4-1.5-6-2.2c-2.9-1.1-5-3.7-4.9-6.4
		c0.2-2.8,2.8-5.5,5.6-6.3c2.6-0.7,5.2-0.1,7.8,0c1.6,0.1,1.8,1.3,1.8,2.6c0,1.4-1.1,0.9-1.8,1C590,444.5,589,444.4,588,444.4z" class="st0"></path>
	<path d="M434.4,440.8c1.2,0.1,2.6,0.1,4,0.3c1.4,0.3,1.2,0.9,1.3,1.8c0.1,1.3-0.7,1.5-1.7,1.5c-1.3,0-2.6,0-3.9,0
		c-4.1,0-6.7,2.1-7.1,6.2c-0.3,2.6,0.1,5.1,1.3,7.6c0.9,1.8,2.2,2.6,4.1,2.5c1.9-0.1,3.9,0.4,5.8-0.4c0.5-0.2,1.2-0.2,1.1,0.6
		c-0.2,1,0.8,2.3-0.8,2.9c-5.6,2.1-12.5,0.5-15.1-6.3c-1.7-4.4-0.9-8.5,0.9-12.4c1.4-3.2,4.6-3.9,7.7-4.4
		C432.7,440.7,433.4,440.8,434.4,440.8z" class="st0"></path>
	<path d="M404.6,453.3c0,3.2,0,6.5,0,9.7c0,2.6-2.3,1.1-3.5,1.7c-0.8,0.5-1.1-0.9-1-1.7c0.6-4.7,0.2-9.4,0.3-14.1
		c0.1-3.9,0-3.9-4-3.9c-0.8,0-1.7,0.1-2.5,0c-1.5-0.2-1-1.4-1.1-2.3c-0.1-1,0.3-1.2,1.3-1.3c5.4-0.3,10.8-0.5,16.3-0.4
		c1.6,0,2.1,0.5,2.1,2c0,1.6-0.7,2-2.1,1.9c-0.5-0.1-1.1,0-1.6,0c-3.9,0-3.9,0-3.9,4.1c0,1.5,0,3,0,4.5
		C404.8,453.3,404.7,453.3,404.6,453.3z" class="st0"></path>
	<path d="M447,452.8c0,3.2,0,6.5,0,9.7c0,1-0.1,1.9-1.4,1.8c-1.1-0.1-2.6,0.7-2.9-1.3c-0.2-1.1-0.2-2.1-0.2-3.1
		c-0.2-5.5,0.4-11.1-0.3-16.6c-0.1-0.8,0.1-2.3,1.8-2c1.2,0.2,3.1-0.7,3,1.8C446.9,446.3,447,449.6,447,452.8
		C447,452.8,447,452.8,447,452.8z" class="st0"></path>
	<path d="M419.2,452.8c0,3.1,0,6.2,0,9.3c0,1.7-2.7,3.4-4.2,2.7c-0.4-0.2-0.3-0.6-0.3-1c0.5-7.1,0.2-14.1,0.2-21.2
		c0-1.6,1.1-1.3,2.1-1.3c0.9,0,2.3-0.5,2.2,1.3C419.1,446,419.2,449.4,419.2,452.8z" class="st0"></path>
	<path d="M517.5,435.4c0.9-0.3,2,0,3.1,0.5c1.2,0.6,2.4,0.5,3.6-0.1c0.5-0.3,1.3-1,1.5,0.2c0.1,0.7,0.6,1.8-0.8,2.2
		c-1.7,0.4-3.4,0.7-5,0.1c-1.2-0.4-2.4-0.7-3.7-0.7c-0.6,0-1.7,0.6-1.7-0.7c0-0.8,0.4-1.8,1.7-1.5
		C516.6,435.5,517,435.4,517.5,435.4z" class="st0"></path>
	<path d="M632.9,461.4c-0.1,1.9-1.7,3.6-3,3.4c-1.4-0.3-2.7-1-2.4-2.8c0.1-1,0.2-2.5,1.5-2
		C630.3,460.4,632.7,459.2,632.9,461.4z" class="st0"></path>
	<path d="M598.3,459.9c1,0.6,3,0,3.1,2.1c0.1,1.1-1.8,2.9-2.9,2.9c-0.8,0-3-2.3-3-3.1
		C595.5,461,597.1,459.9,598.3,459.9z" class="st0"></path>
</g>
</svg>
