<svg xml:space="preserve" style="enable-background:new 0 0 800 800;" viewBox="0 0 800 800" y="0px" x="0px" xmlns:xlink="http://www.w3.org/1999/xlink" xmlns="http://www.w3.org/2000/svg" id="Layer_1" version="1.1">
<style type="text/css">
	.st0{fill:#FFFFFF;}
	.st1{fill-rule:evenodd;clip-rule:evenodd;fill:#FFFFFF;}
</style>
<g>
	<path d="M679.2,460.9c-0.6-0.2-0.7,0.3-1,0.6c-1,1.6-2.5,2.3-4.4,2.3c-6.1,0-12.2,0-18.3,0c-18.7,0-37.4,0-56.1,0
		c-1.9,0-3.7-0.3-5-1.9c-1.2-1.5-1.3-3.1-0.6-4.7c0.7-1.7,2.1-2.7,4.1-2.9c2.5-0.2,5-0.3,7.5-0.3c21.3,0,42.6,0,63.9,0
		c1.3,0,2.6,0.2,4,0.1c2.8-0.1,4.7,1.3,6,3.7C679.2,458.8,679.2,459.8,679.2,460.9z" class="st0"></path>
	<path d="M429.4,401.5c0,17.4,0,34.8,0,52.2c0,2.4-0.5,4.6-1.7,6.7c-2.4,4.1-8.1,4.4-11,0.7c-1.5-2-2-4.3-2.4-6.6
		c-0.1-0.5,0-1.2-0.5-1.4c-0.6-0.2-0.8,0.5-1.1,0.9c-3.7,4.9-8.7,7.8-14.6,9c-7.1,1.6-14.2,1.2-21-1.6c-7.5-3-11.8-8.9-14.5-16.1
		c-2.2-5.9-3.1-12.1-3.5-18.4c-0.6-8.7-0.3-17.3,1.3-25.8c1.1-5.4,2.8-10.5,5.9-15.1c3.8-5.6,9.1-9.1,15.8-10.4
		c7.5-1.5,14.8-1,21.8,2.2c2.9,1.3,5.3,3.2,7.5,5.6c0.4,0.4,0.7,1.4,1.3,1.1c0.7-0.3,0.3-1.2,0.3-1.9c0-11.2,0-22.5,0-33.7
		c0-2.3,0.5-4.4,2.1-6.1c2.3-2.5,5.8-3.4,8.9-2.3c3.2,1.1,5.4,4.1,5.4,7.5c0.1,3.8,0,7.6,0,11.4
		C429.4,373.5,429.4,387.5,429.4,401.5z M413,419.8c0-5.1,0.1-10.2-0.7-15.3c-1.1-7.4-6-15.1-15.4-15.9c-5.3-0.4-10.3,0.3-14.3,4.2
		c-2.5,2.4-3.9,5.4-4.8,8.6c-2.2,7.9-2.1,15.9-1.8,24c0.2,4.3,0.8,8.5,2.1,12.6c1.1,3.3,2.5,6.6,5.5,8.7c5.9,4.1,12.3,4.6,18.7,1.8
		c6.1-2.6,8.8-8,9.9-14.2C413.2,429.5,413,424.7,413,419.8z" class="st0"></path>
	<path d="M157.4,463.8c-10.4-0.2-20.8-0.9-30.7-4.7c-3.1-1.2-5.2-3-5.8-6.3c-0.8-4.5,3.4-8.8,8-8
		c4.4,0.8,8.7,2,13.1,2.5c6.9,0.8,13.7,1.8,20.6,0.8c5-0.7,9.6-2.3,13.2-6c6.6-6.9,5.4-19.3-2.5-24.7c-3.6-2.5-7.7-4.1-11.8-5.5
		c-7.1-2.4-14.3-4.6-21.1-7.6c-5.6-2.5-10.7-5.6-14.4-10.7c-4.5-6.3-5.6-13.4-4.9-20.9c0.6-6,2.5-11.5,6.2-16.3
		c3.6-4.6,8.3-7.7,13.7-9.8c5.2-2,10.6-2.9,16.2-3.2c9.1-0.5,18.1,0.6,27.1,2.2c0.8,0.2,1.7,0.4,2.5,0.6c4,1.2,5.9,4.5,5.1,8.3
		c-0.8,3.5-4.5,6.1-8.3,5.4c-5.5-1-11-1.9-16.6-2.2c-6.6-0.4-13.1,0.1-19.2,2.6c-7.5,3.1-11.3,10.5-9.8,18.3c0.7,3.8,3,6.4,6.1,8.6
		c3.9,2.8,8.4,4.5,12.9,6c7.5,2.4,15.1,4.6,22.2,8.3c5.6,2.9,10.7,6.5,13.9,12.1c3.4,5.9,4.5,12.3,4,19c-0.3,3.8-0.9,7.4-2.3,10.9
		c-3.2,8.1-8.9,13.7-17.1,16.8C171.2,462.8,164.4,464,157.4,463.8z" class="st0"></path>
	<path d="M483.8,424.6c-7.6,0-15.3,0-22.9,0c-1.9,0-1.9,0-1.7,1.9c0.5,3.9,1.1,7.8,2.6,11.5c2.9,7.1,8.3,10.7,16,11.5
		c6.3,0.6,12.4-0.1,18.3-2.1c3.9-1.3,7.2,0.2,8.6,3.8c1.3,3.3-0.2,6.6-3.7,8.4c-4.9,2.5-10.1,3.7-15.4,4.1
		c-7.6,0.6-15.1,0.3-22.3-2.5c-8.9-3.4-14.6-10-17.7-18.7c-3.5-9.6-4-19.6-3.4-29.8c0.4-5.9,1.4-11.6,3.7-17.1
		c4.8-11.7,13.5-18.4,26.1-20.2c5.8-0.8,11.5-0.6,17,0.9c11.6,3,18.3,10.7,20.6,22.3c1.5,7.3,1.2,14.7-0.2,22
		c-0.9,4.7,0,4.1-4.9,4.1C497.7,424.6,490.8,424.6,483.8,424.6z M475.8,412.7C475.8,412.8,475.8,412.8,475.8,412.7
		c5.1,0,10.3,0,15.4,0.1c1.5,0,2.1-0.6,2.1-2c0-3.2,0.2-6.3-0.3-9.5c-1-6.9-4.8-12.2-12.3-13c-8.1-0.9-14.6,1.5-18.6,9.4
		c-2,4-2.8,8.4-3.4,12.8c-0.3,2.3-0.3,2.3,2.1,2.3C465.8,412.8,470.8,412.7,475.8,412.7z" class="st0"></path>
	<path d="M280.6,420.5c-0.2,7-0.7,15.1-3.8,22.8c-2.6,6.3-5.9,12.1-12,15.7c-4.7,2.7-9.8,4.4-15.2,4.8
		c-5.2,0.4-10.5,0.1-15.7-1c-11.4-2.6-18.7-9.6-22.5-20.4c-2.1-5.9-3-12.1-3.2-18.3c-0.3-8.6,0-17.1,2.5-25.4
		c2.5-8.3,6.8-15.3,14.8-19.5c4-2.1,8.4-3.3,12.9-3.8c7.3-0.9,14.4-0.4,21.3,2.2c8.9,3.3,14.4,9.9,17.5,18.7
		C279.8,403.7,280.5,411.5,280.6,420.5z M263.6,418.7c0.1-1.6-0.2-4.2-0.4-6.9c-0.3-4.3-0.9-8.6-2.5-12.7
		c-2.1-5.3-5.3-9.4-11.1-10.8c-2.7-0.6-5.4-0.6-8.1-0.4c-4.8,0.4-8.7,2.5-11.4,6.6c-1.9,2.8-2.9,5.9-3.6,9
		c-1.6,6.7-1.5,13.5-1.4,20.3c0.1,4.4,0.5,8.6,1.7,12.8c2.2,7.8,6.5,13.5,15.3,14.2c9.1,0.8,15.6-3,18.7-11.3
		C263.1,433.1,263.4,426.5,263.6,418.7z" class="st0"></path>
	<path d="M549.2,463.8c-8.4-0.1-16.2-0.9-23.7-3.5c-4.7-1.6-6.4-6-4-10.1c1.4-2.3,4.2-3.7,6.8-3c5.4,1.4,11,2,16.5,2.4
		c3.6,0.3,7.1-0.2,10.5-1.6c4.3-1.7,6.3-5.1,6.5-9.5c0.2-3.9-1.8-6.8-5.1-8.9c-2.4-1.6-5.2-2.5-7.9-3.3c-5.8-1.7-11.5-3.5-16.8-6.3
		c-6.2-3.3-10.3-8.1-11.4-15.1c-1.2-7.5,0-14.5,4.9-20.6c4.1-5.1,9.8-7.5,16-8.6c8.5-1.6,16.9-0.9,25.3,1c0.6,0.1,1.2,0.3,1.8,0.5
		c3.5,1.3,5.2,4.4,4.4,7.9c-0.8,3.1-4,5.2-7.5,4.8c-4.5-0.6-9-1.6-13.6-1.4c-3.2,0.1-6.5,0.4-9.5,1.8c-4.3,1.9-6.6,5.7-6.3,10.4
		c0.3,3.4,2.7,5.3,5.3,6.8c3.7,2.2,7.8,3.5,11.9,4.8c3.6,1.1,7.2,2.3,10.6,3.9c11.4,5.4,15.8,14.4,13.6,27.2
		c-1.1,6.3-3.7,11.8-9.4,15.4c-4,2.5-8.6,3.9-13.3,4.7C552.9,463.8,550.8,463.8,549.2,463.8z" class="st0"></path>
	<path d="M309.2,402.5c0,15.5,0,31.1,0,46.6c0,2.3-0.1,4.5-0.3,6.8c-0.4,4.5-4.1,7.9-8.5,7.8c-4.3-0.1-7.7-3.6-7.9-8.2
		c-0.1-4.3-0.3-8.5-0.3-12.8c0-24.8,0-49.5,0-74.3c0-6.2,0.1-12.3,0.3-18.5c0.1-4.6,3.4-8.1,7.9-8.3c4.3-0.2,7.9,3.1,8.4,7.7
		c0.2,1.9,0.3,3.9,0.3,5.8C309.2,371,309.2,386.8,309.2,402.5z" class="st0"></path>
	<path d="M328.9,420.7c0-11.2,0-22.3,0-33.5c0-3,1-5.5,3.4-7.3c2.5-1.8,5.2-2.1,8-1c2.9,1.2,4.5,3.4,4.9,6.5
		c0.2,1.6,0.3,3.3,0.3,4.9c0,20.7,0,41.4,0,62.1c0,1.4-0.1,2.8-0.3,4.3c-0.5,4-3.9,7.1-7.8,7.2c-4,0.1-7.5-2.8-8.2-6.8
		c-0.2-1.2-0.3-2.4-0.3-3.6C328.9,442.5,328.9,431.6,328.9,420.7C328.9,420.7,328.9,420.7,328.9,420.7z" class="st0"></path>
	<path d="M634.1,420c11.4,0,22.8,0,34.3,0c1.2,0,2.3,0.1,3.4,0.6c2,0.9,3,2.7,2.7,5.1c-0.2,1.8-1.8,3.5-3.7,3.8
		c-1.3,0.2-2.5,0.4-3.8,0.4c-22.3,0-44.6,0-66.9,0c-0.8,0-1.7-0.1-2.5-0.3c-2.6-0.6-4.3-2.7-4.1-4.9c0.1-2.3,2.3-4.4,4.9-4.6
		c1.2-0.1,2.4-0.1,3.7-0.1C612.6,420,623.3,420,634.1,420C634.1,420,634.1,420,634.1,420z" class="st0"></path>
	<path d="M624.2,437.1c8.4,0,16.8,0,25.1,0c1.5,0,2.9,0.2,4,1.2c3,2.5,2.2,6.9-1.4,8.3c-0.9,0.3-1.9,0.4-2.8,0.4
		c-15.6,0-31.2,0-46.8,0c-1.4,0-2.9-0.2-4.3-0.3c-2.8-0.2-4.7-2.3-4.6-4.9c0-2.5,2.1-4.6,4.9-4.7c3.2-0.1,6.5,0,9.7,0
		C613.4,437.1,618.8,437.1,624.2,437.1z" class="st0"></path>
	<path d="M615.4,402.9c5.4,0,10.7,0,16.1,0c1.4,0,2.6,0.3,3.8,1.1c1.6,1.1,2.4,2.7,2.1,4.6c-0.3,2-1.6,3.3-3.5,3.9
		c-0.8,0.2-1.7,0.3-2.5,0.3c-10.6,0-21.2,0-31.9,0c-1.7,0-3.4-0.3-4.7-1.6c-2.5-2.5-1.8-6.3,1.4-7.7c1.1-0.5,2.3-0.6,3.6-0.6
		C605,402.9,610.2,402.9,615.4,402.9C615.4,402.9,615.4,402.9,615.4,402.9z" class="st0"></path>
	<path d="M247.3,363.2c-4.7,0-7.5-4.4-5.1-8.2c3.5-5.6,7.4-11.1,11.1-16.5c1.3-1.9,3.2-2.6,5.6-2.3
		c1.6,0.2,3.1,0.6,4.5,1.4c3.2,1.7,4.2,5.2,2,8.2c-2,2.7-4.3,5.2-6.6,7.7c-2.5,2.8-5.2,5.5-7.8,8.3
		C249.9,362.7,248.7,363.3,247.3,363.2z" class="st0"></path>
	<path d="M345.6,354.1c0,5-3.6,8.8-8.5,8.8c-4.8,0-8.6-4-8.6-8.9c0-4.8,3.9-8.6,8.7-8.6
		C342,345.4,345.6,349.2,345.6,354.1z" class="st0"></path>
</g>
</svg>
