<svg xml:space="preserve" style="enable-background:new 0 0 800 800;" viewBox="0 0 800 800" y="0px" x="0px" xmlns:xlink="http://www.w3.org/1999/xlink" xmlns="http://www.w3.org/2000/svg" id="Layer_1" version="1.1">
<style type="text/css">
	.st0{fill:#FFFFFF;}
	.st1{fill-rule:evenodd;clip-rule:evenodd;fill:#FFFFFF;}
</style>
<g>
	<path d="M502.1,369.7c-6.4,0-12.7,0-19.1,0c-0.3,0-0.6,0-0.8,0c-0.5,0-0.8,0.2-0.7,0.8c0,1.2,0,2.3,0,3.5
		c0,0.2,0.2,0.5-0.1,0.7c-0.2,0.1-0.4-0.2-0.5-0.3c-0.8-0.5-1.5-1.1-2.4-1.5c-4.6-2.3-9.6-2.8-14.6-3.1c-2.3-0.1-4.6,0.1-7,0.3
		c-3.8,0.4-7.4,1.5-10.9,3.1c-3.4,1.5-6.4,3.6-9.2,6c-2,1.8-3.8,3.7-5.3,5.8c-2.6,3.5-4.5,7.4-5.8,11.6c-0.8,2.7-1.3,5.6-1.5,8.4
		c-0.2,3.3,0,6.6,0.7,9.9c2,9.8,7.2,17.6,15.1,23.5c3.4,2.5,7.1,4.3,11.2,5.4c2.3,0.7,4.7,1.3,7,1.4c3.1,0.2,6.3,0.3,9.4-0.4
		c3.1-0.7,5.9-1.8,8.6-3.4c1.9-1.2,3.6-2.5,5.2-4.4c0,1.9,0,3.5,0,5.1c0,1.2,0.2,1.4,1.5,1.4c6.4,0,12.8,0,19.1,0
		c1.4,0,1.5-0.1,1.5-1.5c0-23.6,0-47.2,0-70.8C503.6,369.8,503.5,369.7,502.1,369.7z M481,421.3c-3.7,3.9-8.3,6-13.7,6.2
		c-5,0.2-9.5-1.4-13.4-4.6c-3.5-2.9-5.9-6.6-6.8-11c-1.4-6.7,0.2-12.7,4.8-17.8c2.9-3.3,6.6-5.4,11-6.2c7-1.2,13,0.7,18.1,5.6
		c0.4,0.4,0.5,0.8,0.5,1.4c0,4.2,0,8.4,0,12.6c0,4.2,0,8.4,0,12.6C481.5,420.6,481.4,420.9,481,421.3z" class="st0"></path>
	<path d="M327,369.7c-6.6,0-13.1,0-19.7,0c-0.7,0-1.1,0.2-1.1,1.1c0,1.3,0.1,2.7-0.1,4.1c-0.2-0.1-0.3-0.1-0.4-0.2
		c-1.2-1.1-2.8-1.9-4.3-2.5c-4.4-1.8-9-2.2-13.7-2.4c-2.4-0.1-4.8,0.2-7.2,0.5c-3.6,0.5-7,1.6-10.3,3.1c-4.6,2.2-8.7,5.2-12.1,9.1
		c-1.9,2.2-3.6,4.6-5.1,7.2c-2.4,4.4-3.7,9.1-4.2,14c-0.3,3.1-0.3,6.3,0.2,9.4c0.5,3,1.3,6,2.5,8.9c1.8,4.4,4.3,8.3,7.6,11.7
		c2.1,2.2,4.4,4.1,7,5.7c5.9,3.8,12.3,5.7,19.3,5.9c5.8,0.2,11.1-1.2,16-4.3c1.7-1.1,3.2-2.5,4.8-4.1c0,2,0,3.8,0,5.5
		c0,0.5,0,1,0.7,1c6.8,0,13.6,0,20.4,0c0.5,0,0.9-0.3,0.9-0.9c0-0.3,0-0.7,0-1c0-23.3,0-46.7,0-70c0-0.2,0-0.4,0-0.6
		C328.2,370,328,369.7,327,369.7z M306.2,407.5c0,4.2,0,8.4,0,12.6c0,0.6-0.2,1-0.6,1.5c-3.2,3.2-7.1,5.3-11.5,5.8
		c-10.8,1.3-20.2-5.6-22.4-16.2c-0.6-3.1-0.4-6.2,0.5-9.3c1-3.4,2.7-6.4,5.2-8.8c2.8-2.7,6.1-4.4,10-5.1c5.6-1.1,10.6,0.1,15.2,3.2
		c0.7,0.5,1.4,1,2.1,1.6c1,0.8,1.5,1.8,1.5,3.2C306.1,399.8,306.2,403.6,306.2,407.5z" class="st0"></path>
	<path d="M380.3,423.9c-3.1,1.6-6.3,2.2-9.8,2c-1.5-0.1-3-0.4-4.4-1.2c-2.3-1.5-3.1-3.9-3.1-6.4c-0.1-9.2,0-18.4,0-27.5
		c0-1.2,0.1-1.3,1.3-1.3c4.9,0,9.7,0,14.6,0c1.2,0,1.3-0.2,1.3-1.3c0-5.7,0-11.3,0-17c0-1.3-0.1-1.4-1.4-1.4c-4.8,0-9.6,0-14.4,0
		c-1.3,0-1.4-0.1-1.4-1.3c0-4,0-8,0-12c0-1.3-0.4-1.6-1.7-1.3c-2.4,0.6-4.9,1.1-7.3,1.7c-3.9,1-7.9,1.9-11.9,2.7
		c-1,0.2-1.3,0.6-1.3,1.6c0,9.7,0,19.3,0,29s0,19.3,0,29c0,1.7,0.1,3.4,0.3,5.1c0.3,2.5,0.8,5,1.7,7.4c1.5,4.1,4,7.4,7.6,9.8
		c3.7,2.5,7.9,3.6,12.2,3.8c3,0.2,6,0.2,8.9-0.1c3.2-0.4,6.3-1.2,9.3-2.3c0.6-0.2,0.7-0.7,0.7-1.2c0-5.6,0-11.2,0-16.8
		C381.7,423.8,381.1,423.4,380.3,423.9z" class="st0"></path>
	<path d="M243.3,424.7c0-1.2-0.6-1.6-1.6-1c-3.3,1.8-6.9,2.2-10.5,1.8c-2-0.2-3.9-0.9-5.1-2.7c-0.9-1.4-1.4-3.1-1.4-4.7
		c-0.1-4.6,0-9.2,0-13.9c0-4.5,0-9.1,0-13.6c0-1.4,0.1-1.5,1.4-1.5c4.8,0,9.6,0,14.4,0c1.3,0,1.4-0.1,1.4-1.4c0-5.6,0-11.2,0-16.8
		c0-1.4-0.1-1.5-1.5-1.5c-4.8,0-9.7,0-14.5,0c-1.1,0-1.2-0.1-1.2-1.2c0-4,0-8,0-12c0-0.2,0-0.5,0-0.7c-0.2-0.6-0.4-0.9-1.3-0.8
		c-2.6,0.6-5.2,1.3-7.8,1.8c-3.9,0.9-7.8,1.8-11.7,2.8c-1.3,0.3-1.3,0.3-1.3,1.7c0,19.3,0,38.6,0,57.8c0,2,0.1,3.9,0.4,5.8
		c0.4,2.9,1.1,5.7,2.4,8.4c1.4,3,3.4,5.6,6.1,7.6c4.1,3,8.8,4.1,13.6,4.4c3,0.2,6.1,0.2,9.2-0.3c2.8-0.4,5.5-1.2,8.2-2.1
		c0.6-0.2,1-0.6,1-1.4C243.3,435.7,243.3,430.2,243.3,424.7z" class="st0"></path>
	<path d="M413.6,369.7c-6.5,0-13,0-19.4,0c-1.2,0-1.2,0.1-1.2,1.3c0,23.7,0,47.5,0,71.2c0,1.2,0,1.3,1.3,1.3
		c6.4,0,12.8,0,19.2,0c1.5,0,1.5-0.1,1.5-1.6c0-11.8,0-23.5,0-35.3c0-11.8,0-23.7,0-35.5C415,369.9,414.8,369.7,413.6,369.7z" class="st0"></path>
	<path d="M536.8,369.7c-6.3,0-12.6,0-19,0c-1.4,0-1.4,0-1.4,1.4c0,11.8,0,23.7,0,35.5c0,11.8,0,23.6,0,35.4
		c0,1.5,0,1.5,1.6,1.5c6.3,0,12.6,0,18.9,0c1.5,0,1.7-0.2,1.7-1.7c0-7.2,0-14.4,0-21.5c0-16.3,0-32.6,0-48.9
		C538.6,369.7,538.5,369.7,536.8,369.7z" class="st0"></path>
	<path d="M188.5,369.7c-6.4,0-12.8,0-19.2,0c-1.4,0-1.4,0-1.4,1.4c0,11.8,0,23.7,0,35.5c0,11.9,0,23.7,0,35.6
		c0,1.4,0,1.4,1.4,1.4c6.4,0,12.8,0,19.2,0c1.3,0,1.4-0.1,1.4-1.4c0-23.7,0-47.3,0-71C189.9,369.8,189.8,369.7,188.5,369.7z" class="st0"></path>
	<path d="M632.1,384.2l0-6c0-2.6,0-5.3,0-7.9c0-3-2.3-5.4-5.2-5.4c-5.7,0-11.3,0-17,0l-6.2,0c-0.3,0-0.9,0-1.4,0.5
		c-0.9,0.9-1.8,1.9-2.7,2.8l-1,1.1l-0.2,0.2c-0.1,0.1-0.2,0.2-0.3,0.3c-4.6,0-9.3,0-13.9,0c-1.2,0-2.3,0.1-3.5,0.3
		c-6.5,0.9-12.4,3.1-17.7,7.1c-2.7,2-5.1,4.3-7.2,6.9c-2.7,3.4-4.8,7.2-6.2,11.3c-1.4,4.2-2.1,8.5-2.2,12.9c0,0.7,0.3,1.4,0.2,2.2
		c-0.1,1.3,0.2,2.6,0.4,3.9c0.8,4.1,2.1,8,4.2,11.7c2.3,4.1,5.2,7.6,8.7,10.6c3.1,2.7,6.7,4.7,10.5,6.3c3.4,1.4,7,2.3,10.7,2.5
		c2.4,0.2,4.8,0.2,7.3-0.1c2.8-0.4,5.5-1.1,8.1-2.3c2.9-1.4,5.4-3.2,7.7-5.7c0,1.8,0,3.5,0,5.1c0,1.1,0.2,1.3,1.3,1.3
		c6.5,0,13,0,19.4,0c1,0,1.4-0.4,1.4-1.4c0-14.5,0-28.9,0-43.4l0.5-0.5l1-1c0.8-0.9,1.7-1.7,2.5-2.5c0.5-0.5,0.7-1,0.7-1.8
		C632.1,390,632.1,387.1,632.1,384.2z M598.2,425.5c-2.1,1.1-4.4,1.9-6.8,2.1c-3.5,0.3-6.7-0.4-9.8-1.9c-5.5-2.7-9.1-7.2-10.7-13
		c-1.1-4-1.1-8.2,0.4-12.2c1.1-3,2.7-5.8,5.1-8l24.2,0l0.6,0c0.3,0,0.7,0,1,0c1.5,0,2.1,0.6,2.1,2.1c0,5.7,0,11.5,0,17.2l0,7.6
		l0,1.1C602.6,422.5,600.6,424.3,598.2,425.5z M630.4,393.5c-0.9,0.8-1.7,1.7-2.6,2.6l-21.9,21.8l0-6.1c0-5.7,0-11.5,0-17.2
		c0-2.4-1.3-3.7-3.7-3.7c-0.2,0-0.4,0-0.6,0c-0.2,0-0.3,0-0.5,0l-0.6,0l-21.5,0l20-19.9c0.2-0.2,0.3-0.4,0.5-0.5l1.2-1.2
		c0.9-0.9,1.8-1.9,2.7-2.8c0,0,0.2,0,0.3,0l6.2,0c5.7,0,11.3,0,17,0c2,0,3.6,1.7,3.7,3.9c0,2.6,0,5.3,0,7.9l0,6c0,2.9,0,5.8,0,8.7
		C630.6,393.2,630.6,393.3,630.4,393.5z" class="st0"></path>
</g>
</svg>
