<svg xml:space="preserve" style="enable-background:new 0 0 800 800;" viewBox="0 0 800 800" y="0px" x="0px" xmlns:xlink="http://www.w3.org/1999/xlink" xmlns="http://www.w3.org/2000/svg" id="Layer_1" version="1.1">
<style type="text/css">
	.st0{fill:#FFFFFF;}
	.st1{fill-rule:evenodd;clip-rule:evenodd;fill:#FFFFFF;}
</style>
<g>
	<path d="M418,201.5c0.6,1.6,0.9,3.3,1.3,5c2.1,8.8,4.7,17.4,7.5,26c3.7,11.7,7.9,23.2,11.8,34.8
		c2.5,7.5,5.1,14.9,7.7,22.3c4.4,12.7,8.8,25.5,13.2,38.2c2.5,7.3,5,14.6,7.5,21.8c4.4,12.9,8.9,25.7,13.3,38.6
		c3.1,8.9,6.2,17.9,9.3,26.8c1.6,4.5,3.3,9,5.3,13.4c1.4,3.1,3.2,6.1,5.5,8.7c2.8,3.2,6.4,5.2,10.5,6.3c3.5,1,7.1,1.4,10.6,1.9
		c2.1,0.3,4.2,0.4,6.3,0.6c1.7,0.2,1.6,0.2,1.5,1.8c-0.2,2.2-0.4,4.5-0.6,6.7c-0.1,1-0.3,1.2-1.2,1.2c-1,0-2,0.1-3,0
		c-5.8-0.4-11.5-0.1-17.3-0.2c-15.8-0.5-31.7-0.3-47.5-0.2c-6.2,0.1-12.4,0.1-18.6,0.3c-1.7,0-3.3,0.2-5,0.2c-1.4,0-1.5-0.2-1.7-1.6
		c-0.1-1.7-0.3-3.4-0.5-5.1c0-0.3-0.1-0.5-0.1-0.8c-0.1-1.5,0.1-1.6,1.6-1.7c5.4-0.4,10.9-1,16.2-2.4c2-0.5,4-1.2,5.6-2.5
		c2-1.6,3.1-3.7,3.3-6.2c0.2-2.5-0.2-4.9-0.8-7.3c-1.3-4.8-2.9-9.5-4.5-14.2c-0.4-1.1-2-1.8-3.3-1.4c-0.6,0.1-1.1,0.2-1.7,0.3
		c-0.9,0.2-1.4-0.1-1.9-0.8c-0.1-0.2-0.3-0.3-0.4-0.5c-1-1.1-1.1-1.1-2.1,0c-0.9,1.1-0.9,1.1-2,0.4c-0.3-0.2-0.6-0.3-1-0.4
		c-3.2-0.3-6.4-0.4-9.6-0.2c-3.1,0.2-6.2,0.4-9.3,1c-1.9,0.4-3.9,0.7-5.8,1.2c0,0.5,0.4,0.5,0.6,0.7c0.8,0.4,1.6,0.8,2.3,1.3
		c1.5,1,1.7,2,0.7,3.5c-0.5,0.7-1.1,1.4-1.4,2.2c-0.4,0.9-0.9,1.7-1.4,2.5c-4.3,7.8-8.8,15.6-12.6,23.6c-1.1,2.4-2.2,4.8-3,7.3
		c-0.2,0.8-0.4,1.5-0.3,2.3c0.2,1.1-0.3,2.2-0.4,3.3c-0.2,1.3-0.1,1.4,1.2,1.4c2.7-0.1,5.4-0.3,8.2-0.4c0.3,0,0.5-0.1,0.8-0.1
		c11.4-0.4,22.9-0.4,34.3-0.2c4.8,0.1,9.7,0.4,14.5,0.8c2.9,0.2,5.8,0.6,8.7,0.9c0.4,0,0.8,0.1,1.2,0.1c3.1-0.1,6.2,0.2,9.3,0.9
		c1.2,0.3,2.5,0.2,3.6,0.6c1,0.3,1.9,0.8,2.6,1.6c0.3,0.4,0.7,0.5,1.1,0.7c0.6,0.3,1.2,0.6,1.5,1.2c0.4,0.7,0.3,1-0.4,1.3
		c-0.1,0.1-0.3,0.1-0.4,0.1c-1.3,0.5-1.4,0.7-0.5,1.8c0.4,0.5,0.3,0.9,0,1.4c-0.8,1-1.8,1.7-3.1,1.7c-1.5,0.1-3.1,0-4.6-0.2
		c-2.3-0.2-4.6-0.5-6.9-0.9c-5-0.8-10-1.2-15-1.6c-4.1-0.3-8.2-0.6-12.4-0.8c-4.1-0.2-8.2-0.3-12.3-0.5c-3.8-0.2-7.7,0-11.5-0.3
		c-5.4-0.3-10.7-0.2-16.1-0.1c-3.9,0.1-7.7,0.1-11.6,0.2c-4.9,0.2-9.8,0.4-14.7,0.8c-5.7,0.4-11.3,0.9-16.9,1.5
		c-5.1,0.5-10.1,1.1-15.2,1.7c-6.2,0.8-12.3,1.7-18.4,2.5c-4.6,0.6-9.2,1.7-13.8,2.5c-0.5,0.1-0.9,0.2-1.5,0.1
		c0.1-0.7,0.6-0.8,1-0.9c4.9-1.7,10-2.8,15.1-3.9c3.7-0.8,7.5-1.6,11.3-2.2c0.3-0.1,0.7,0,0.8-0.5c-0.2-0.3-0.5-0.2-0.7-0.1
		c-8.4,1.3-16.9,2.6-25.3,3.9c-3.7,0.6-7.3,1.3-10.9,1.9c-1.8,0.3-3.6,0.5-5.3,0.8c-0.2,0-0.5,0.1-0.6,0c-1.2-0.5-2.3,0-3.5,0.2
		c-2.3,0.5-4.5,1-6.9,1.4c-0.5,0.1-0.9,0.1-1-0.5c-0.1-0.5,0.3-0.8,0.7-0.9c0,0,0.1,0,0.1,0c3-0.8,6.1-1.5,9.1-2.4
		c11-3,22.3-4.4,33.6-6.3c8.4-1.4,16.8-2.5,25.2-3.6c5.7-0.7,11.4-1.4,17.2-2c3.4-0.4,6.7-0.6,10.1-0.9c0.9-0.1,1.7-0.2,2.6-0.2
		c0.7,0,0.9-0.4,0.9-1c0-1.3,0.3-2.6,0.6-3.9c0,1.1,0,2.2,0,3.3c0.5-3.9,1-7.8,1.8-11.6c0.7-3.5,1.5-6.9,2.9-10.1
		c0.2-0.5,0.5-1.1,0.1-1.7c-0.5,0.2-0.6,0.7-0.8,1.1c-0.6,1.5-1,3-1.4,4.5c-0.9,3.4-1.5,6.9-2.1,10.3c-0.1,0.4-0.1,0.9-0.5,1.4
		c-1.3-9.3-0.9-18.4-0.4-27.4c-0.4-0.2-0.6,0-0.8,0.1c-1.4,0.7-2.8,1.5-4.3,2c-1.3,0.5-2.2,1.4-3.4,2c-0.4,0.2-0.6,0.6-0.8,1.1
		c-0.3,0.8-1,1.3-1.8,1.7c-2.1,0.9-4.1,2-6.2,2.9c-0.8,0.3-1.2,1-1.9,1.3c-0.7,0.3-1.5,0.3-2.1,0.9c-0.1,0.1-0.3,0.2-0.5,0.3
		c-0.5,0.2-0.8,0-0.8-0.5c0.1-0.6,0.2-1.2,0.8-1.6c0.7-0.4,1.3-0.9,2-1.2c0.4-0.2,0.9-0.5,1.2-0.7c0.7-0.5,1.1-1.1,1-2
		c-0.2-1.6,0.4-3,1.3-4.3c0.9-1.2,0.3-2.4,0.1-3.5c-0.1-0.5-0.6-0.3-1-0.2c-1.7,0.7-3.4,1.3-5.1,2.1c-1.5,0.6-3,1.3-4.5,2
		c-0.5,0.3-1.1,0.4-1.7,0.1c-0.8-0.3-1.6-0.2-2.4,0.1c-0.4,0.2-0.9,0.3-1.4,0.5c-0.3,0.1-0.7,0.2-1,0c-0.8-0.5-1.6-0.9-2.3-1.6
		c-0.3-0.3-0.5-0.7-0.4-1.2c0.2-0.7,0.1-1.4-0.1-2.1c-0.1-0.5,0-1.1,0-1.6c0-0.8,0.8-1.5,0.1-2.4c-0.1-0.1,0.2-0.4,0.2-0.6
		c0.8-2.3,1.8-4.6,2.2-7c0.2-1.2,0.2-1.3-1-0.9c-3.5,1-6.9,2.1-10.4,3.1c-3.1,0.9-6.2,1.9-9.3,2.8c-0.8,0.2-1.5,0.4-2.1-0.3
		c-0.4,0.1-0.4,0.3-0.5,0.5c-1.3,3.9-2.6,7.8-3.2,11.8c-0.3,1.9-0.4,3.9,0.2,5.8c0.7,2.4,2.3,4.1,4.5,5.3c1.6,0.9,3.4,1.4,5.2,1.8
		c3.9,0.9,7.9,1.4,11.9,1.7c1.9,0.1,3.9,0.3,5.8,0.5c0.9,0.1,1,0.2,1,1.2c-0.2,2.3-0.4,4.6-0.6,6.8c-0.1,1.4-0.2,1.5-1.7,1.5
		c-2.1,0.1-4.1-0.2-6.2-0.2c-3.8,0-7.7,0.1-11.5-0.1c-14.2-0.5-28.3-0.3-42.5-0.2c-5.6,0.1-11.3,0.1-16.9,0.3c-1.5,0-3,0.2-4.5,0.2
		c-1.1,0-1.3-0.2-1.5-1.3c-0.1-0.5-0.1-1.1-0.1-1.6c0.1-1.6-0.3-3.2-0.3-4.9c0-1.3,0.2-1.4,1.4-1.5c4.7-0.3,9.3-0.9,13.8-1.9
		c4.9-1.1,9.1-3.3,12.7-6.8c3.8-3.8,6.7-8.1,9.2-12.8c4.5-8.6,8.4-17.5,12.1-26.4c4.1-9.8,8.3-19.5,12.4-29.3
		c3.7-8.8,7.4-17.5,11.1-26.3c4.9-11.5,9.7-22.9,14.6-34.4c4.7-11.1,9.4-22.1,14-33.2c5.1-12,10.2-24,15.3-36
		c3.9-9.1,7.6-18.3,11-27.6c0.8-2.2,1.7-4.4,2.6-6.7c0.3-0.9,0.9-1.4,1.9-1.5c3.1-0.4,6.3-0.8,9.4-1.2c1.7-0.2,3.3-0.3,4.9-0.8
		C417.6,201.5,417.8,201.5,418,201.5z M349.6,380c-0.2,0.4-0.7,0.7-1.1,1c-0.8,0.6-1.6,1.2-2.4,1.8c-1.2,0.9-1.4,2.3-1.8,3.6
		c1.1-0.5,2.1-1.2,3.1-1.8c4.6-2.9,9.3-5.6,14.2-8.1c4.3-2.2,8.8-4.1,13.3-5.7c5.9-2.1,11.9-3.7,18.2-4.1c1.5-0.1,2.5-0.8,3.2-2.1
		c0.6-1.2,0.2-1.9-1.1-2c-1.2-0.1-2.4-0.1-3.6,0.1c-3.6,0.6-7,1.6-10.5,2.7c-9,3-17.7,6.9-26.1,11.4c-1.2,0.6-2.4,1.4-3.6,1.9
		c0.4-0.7,1.3-1,1.7-1.8c3.3-5.3,7.8-9.6,12.7-13.5c7.7-6.2,16.2-11.2,25.2-15.4c3.6-1.6,7.2-3.1,11-4.1c2.8-0.7,5.6-1.3,8.6-0.8
		c2.2,0.4,4.3,0,6-1.8c1.2-1.3,2.8-1.4,4.4-0.7c1,0.4,2,0.9,3,1.3c0.8,0.3,1.6,0.6,2.4,0.4c1.1-0.3,2,0,2.9,0.3
		c1.3,0.5,1.6,0.9,1.4,2.3c0,0.2-0.1,0.4-0.1,0.7c-0.2,1.4,0.3,1.8,1.7,1.8c0-0.5-0.2-0.9-0.4-1.4c-2.3-6.8-4.6-13.6-6.9-20.4
		c-3.4-10-6.7-19.9-10.1-29.9c-3.5-10.4-7-20.9-10.5-31.3c-1.8-5.3-3.5-10.5-5.3-15.8c-0.1-0.4-0.2-0.9-0.7-1.2
		c-17.7,44.8-35.3,89.4-53,134.2c0.7-0.1,1-0.4,1.4-0.6C348.1,380.8,348.7,380.2,349.6,380z M438.4,405.4c2.3-0.1,4.9-0.1,7.4,0.4
		c2,0.4,3.5-0.2,5-1.4c0.5-0.4,1-0.8,0.7-1.5c-0.3-0.8-0.4-1.7-1.6-1.9c-0.9-0.1-1.7-0.3-2.6-0.3c-3.8-0.1-7.5,0.3-11.2,0.9
		c-10.1,1.6-19.8,4.4-29.3,8.3c-4.4,1.8-8.6,3.8-12.7,6.1c-0.2,0.1-0.7,0.2-0.5,0.6c0.1,0.3,0.5,0.4,0.8,0.3
		c1.3-0.5,2.7-0.6,3.9-1.1c5.6-2.6,11.3-4.9,17.2-6.7C422.8,406.7,430.3,405.2,438.4,405.4z M409.5,416.1c-2.8,1.1-5.4,2.3-7.9,3.5
		c-0.6,0.3-0.9,0.8-0.9,1.5c0,2.2-0.4,4.4-0.7,6.5c-0.1,0.9-0.3,1.8-0.3,2.7c0,0.6,0.6,1.2,1.3,1.4c0.7,0.2,0.8-0.4,1-0.8
		c2.4-4.5,4.8-9,7.1-13.5C409.2,417.1,409.5,416.7,409.5,416.1z M402.7,451.4c0.1-0.2,0.2-0.4,0.2-0.6c1.1-2.9,2.4-5.8,3.7-8.6
		c2.7-5.4,5.8-10.6,8.9-15.9c1.1-1.9,2.2-3.7,3.1-5.6c0.3-0.6,0.5-1.1,0.7-1.7c0.1-0.3,0.3-0.7-0.1-0.9c-0.3-0.2-0.6,0.2-0.8,0.4
		c-0.8,0.8-1.4,1.7-2,2.6c-4.8,7.4-8.7,15.2-11.9,23.5C403.7,446.8,403,449.1,402.7,451.4z M400.6,457.8c-0.6,1.1-0.7,2.2-0.8,3.2
		c0,0.3,0.2,0.5,0.5,0.5c1,0.2,1.7-0.5,1.5-1.4C401.6,459.3,401.2,458.6,400.6,457.8z M389,419.2c-2,1-4.2,2.6-4.8,3.6
		c1.2-0.5,2.2-1.2,3.3-1.7c0.2-0.1,0.5-0.2,0.7-0.4C388.7,420.3,388.9,419.9,389,419.2z M392.7,416.9c-0.8,0.2-1.3,0.6-1.8,0.9
		c-0.5,0.2-0.6,0.6-0.3,1.1c0.4,0.6,0.8,0.1,1.1-0.1C392.2,418.4,392.4,417.7,392.7,416.9z" class="st0"></path>
	<path d="M597.8,554.1c-0.5,1.3-0.5,1.3-1.8,1.3c-4.3,0-8.6,0-12.9,0c-0.9,0-1.4-0.3-1.8-1.1
		c-3.8-7.7-8.1-15.2-12.3-22.8c-0.7-1.3-1.5-2.5-2.2-3.7c-0.7-1.2-1.7-1.8-3.1-2.1c-1.1-0.2-2.2-0.2-3.3-0.2c-1.2,0-1.3-0.2-1.4-1.4
		c0-0.1,0-0.2,0-0.3c0-1.6,0.1-1.8,1.7-1.8c2.6,0,5.1-0.2,7.5-1c4.7-1.6,7.6-4.7,8.5-9.7c0.4-2.4,0.6-4.9,0.2-7.4
		c-0.7-4.8-3.5-7.7-7.9-9.3c-2.8-1-5.7-1.1-8.6-0.9c-0.6,0-1.1,0.2-1.7,0.4c-1.2,0.4-1.9,1.2-2.1,2.5c-0.1,1.1-0.3,2.2-0.3,3.3
		c0,15.3,0,30.5,0,45.8c0,1.1,0.1,2.3,0.3,3.4c0.1,1.1,0.7,1.9,1.7,2.4c1.4,0.8,3,0.9,4.6,1.1c0.3,0,0.6,0,0.9,0
		c1.3,0.1,1.6,0.4,1.4,1.7c-0.1,0.6-0.4,0.9-1,0.9c-0.4,0-0.8,0-1.2,0c-6.9,0-13.8,0-20.7,0c-0.2,0-0.4,0-0.5,0
		c-1.1,0-1.3-0.2-1.3-1c-0.1-1.1,0.1-1.4,1.1-1.5c1.1-0.2,2.3-0.3,3.4-0.6c1.8-0.5,2.8-1.7,3.2-3.5c0.2-0.8,0.2-1.7,0.2-2.5
		c0-6,0-12.1,0-18.1c0-9.4,0-18.8,0-28.1c0-0.8,0-1.6,0-2.4c-0.1-1.9-1.1-3.1-2.9-3.7c-1.3-0.4-2.6-0.5-3.9-0.6
		c-1.3-0.1-1.8-0.9-1.3-2.1c0.1-0.3,0.4-0.5,0.7-0.5c0.4,0,0.7,0,1.1,0c3.3,0,6.6,0,9.9,0c2.6,0,5.2-0.2,7.8-0.5c3-0.3,6-0.2,9,0
		c2.2,0.2,4.4,0.6,6.5,1.2c3.5,1.1,6.6,2.8,8.9,5.8c1.4,1.9,2.2,4.1,2.4,6.5c0.6,7.8-2.8,13.6-9.3,17.7c-0.9,0.5-1.8,1-2.7,1.4
		c-1,0.4-1,0.5-0.5,1.5c1.1,2.1,2.2,4.2,3.4,6.3c2.6,4.6,5.1,9.2,7.9,13.7c1.1,1.8,2.4,3.6,3.8,5.3c1.4,1.7,3.3,2.5,5.5,2.8
		c1.1,0.2,2.2,0.1,3.2,0.6C597.8,553.4,597.8,553.8,597.8,554.1z" class="st0"></path>
	<path d="M202.2,552.8c1.1,0,2.1-0.1,3.2-0.2c2.7-0.4,4.5-1.8,5.9-4c1.2-1.9,2.1-3.9,2.9-5.9
		c6.2-14.5,12.3-29.1,18.5-43.6c1.1-2.6,2.2-5.3,3.2-8c0.4-1.1,1-1.6,2.1-1.6c0.5,0,1-0.1,1.6-0.2c1.1-0.1,1.3,0,1.6,1
		c0.5,1.9,1,3.8,1.6,5.7c2.2,6.9,4.7,13.7,7,20.6c1,2.9,2,5.8,3,8.7c2.2,6.4,4.4,12.7,6.6,19.1c0.4,1.2,0.9,2.5,1.4,3.7
		c1,2.3,2.7,3.9,5.3,4.2c1,0.1,1.9,0.3,2.9,0.4c0.7,0.1,0.9,0.5,0.8,1.1c-0.1,1.3-0.3,1.6-1.7,1.6c-4.1,0.1-8.3-0.3-12.4-0.3
		c-2.8,0-5.5,0.3-8.3,0.3c-0.3,0-0.6,0-0.9,0c-1.3,0-1.8-0.6-1.6-1.9c0.1-0.6,0.5-0.7,0.9-0.7c0.8-0.1,1.7-0.2,2.5-0.3
		c0.6-0.1,1.1-0.2,1.7-0.4c1.5-0.5,2.1-1.6,1.8-3.1c-0.2-0.9-0.4-1.8-0.7-2.7c-4.9-14.6-9.8-29.1-14.7-43.7
		c-0.1-0.3-0.1-0.7-0.5-0.9c-0.4,0.3-0.5,0.7-0.6,1.1c-5.5,14-11.1,28.1-16.6,42.1c-0.5,1.2-0.8,2.4-1.1,3.7c-0.4,1.9,0.3,3,2.2,3.6
		c1.3,0.3,2.6,0.4,3.9,0.6c0.4,0.1,1-0.1,1.1,0.4c0.1,0.6,0.1,1.3-0.2,1.9c-0.2,0.3-0.6,0.3-1,0.3c-1.6,0-3.2,0-4.8-0.1
		c-3.6-0.2-7.3-0.2-10.9,0c-1.9,0.1-3.8,0.4-5.6-0.2C202.2,554.4,202.2,553.6,202.2,552.8z" class="st0"></path>
	<path d="M424.8,598.5c-0.8-0.5-1.7-0.5-2.5-0.7c-0.9-0.2-1.4-0.6-1.5-1.7c-0.1-1.4-0.5-2.8-0.7-4.2
		c-0.1-0.4-0.1-0.8,0.4-1c0.5-0.2,0.7,0.2,0.9,0.5c0.2,0.5,0.4,1,0.6,1.5c1,2.1,2.5,3.4,4.9,3.8c2,0.3,4-0.7,4.8-2.5
		c0.8-1.8,0.3-4.1-1.3-5.4c-1-0.8-2.1-1.3-3.2-1.8c-1.3-0.5-2.5-1.1-3.6-1.9c-1.7-1.3-2.9-2.8-2.9-5c0-2.8,1.5-5,4.1-6
		c2.9-1.1,5.9-0.7,8.8,0c0.6,0.2,0.9,0.6,0.8,1.2c-0.2,1.3-0.2,2.5-0.2,3.8c0,0.2,0,0.4-0.1,0.5c-0.1,0.3-0.3,0.4-0.6,0.5
		c-0.3,0-0.5-0.1-0.6-0.4c-0.1-0.3-0.1-0.7-0.2-1c-0.9-3.5-4.1-4-6.7-3.2c-1.3,0.4-2,1.5-2.1,2.8c-0.2,1.6,0.2,3.1,1.6,4.1
		c1.3,0.9,2.7,1.5,4.1,2.1c1.4,0.6,2.6,1.4,3.8,2.4c3.1,2.7,2.3,8.2-1.5,10.2c-1,0.5-2,0.9-3,1.4
		C427.5,598.5,426.1,598.5,424.8,598.5z" class="st0"></path>
	<path d="M406.9,520.1c0.8,0.2,1.7,0.4,2.5,0.7c2.9,0.8,5.6,2.2,7.8,4.3c2.4,2.4,3.8,5.3,4.3,8.6c0.3,2.1,0.4,4.3,0,6.4
		c-0.5,3.1-1.8,5.9-3.9,8.2c-3.3,3.7-7.6,5.6-12.3,6.8c-3,0.7-6.1,1-9.2,1c-2.6,0-5.2-0.2-7.8-0.5c-2.4-0.3-4.8-0.2-7.2-0.2
		c-2.9,0-5.9,0-8.8,0c-1.1,0-1.4-0.3-1.4-1.4c0-0.7,0.4-1,1-1.1c1-0.1,2-0.2,3-0.4c3-0.6,4-1.7,4.5-4.7c0.1-0.9,0.2-1.7,0.2-2.6
		c0-15.3,0-30.6,0-45.9c0-0.6,0-1.2-0.1-1.8c-0.2-1.8-1.3-2.9-3-3.4c-1.3-0.4-2.7-0.5-4-0.6c-1.4-0.1-1.8-0.8-1.4-2.1
		c0.1-0.3,0.3-0.5,0.6-0.6c0.4,0,0.8,0,1.2,0c3.7,0,7.5,0,11.2,0c2.7,0,5.4-0.3,8.2-0.5c4.8-0.3,9.6-0.2,14.3,1
		c3.2,0.8,6.1,2.2,8.4,4.7c2,2.2,3.1,4.7,3.4,7.7c0.1,1.6,0.1,3.2-0.2,4.7c-1,4.7-3.8,7.8-8,9.8c-0.8,0.4-1.7,0.8-2.5,1.2
		C407.3,519.6,407,519.6,406.9,520.1z M395.4,552.3c3.8,0,6-0.3,8.1-1c4.5-1.6,7.4-4.7,8.2-9.5c0.3-1.8,0.4-3.6,0.2-5.5
		c-0.6-6-3.8-10.1-9.5-12.2c-3.2-1.2-6.5-1.5-9.9-1.4c-2.5,0-2.5-0.1-2.4-2.5c0.1-1,0.2-1.2,1.2-1.2c1.2,0,2.5,0,3.7,0
		c2.4-0.1,4.7-0.5,7-1.3c3.4-1.3,5.6-3.6,6.5-7.1c0.6-2.4,0.6-4.9,0.2-7.3c-0.7-3.8-2.9-6.4-6.4-7.9c-3.6-1.6-7.5-1.7-11.3-1.2
		c-2.8,0.3-3.4,1.2-3.4,4c0,15.9,0,31.8,0,47.7c0,0.9,0.1,1.8,0.2,2.6c0.3,2.1,1.2,3,3.2,3.5C392.6,552.3,394.2,552.3,395.4,552.3z" class="st0"></path>
	<path d="M307.8,523.2c0,7.8,0,15.6,0,23.4c0,0.6,0,1.2,0,1.8c0.1,2,1,3.2,2.9,3.8c1.4,0.4,2.9,0.6,4.4,0.6
		c1.3,0,1.5,0.3,1.4,1.5c-0.1,1-0.2,1.1-1.2,1.1c-1.4,0-2.7,0-4.1,0c-5.8,0-11.6,0-17.4,0c-0.3,0-0.5,0-0.8,0
		c-1.1,0-1.4-0.3-1.3-1.5c0-0.6,0.3-1,0.9-1.1c0.8-0.1,1.6-0.2,2.3-0.3c3.2-0.6,4.3-1.8,4.7-5c0.1-1.1,0.2-2.1,0.2-3.2
		c0-14.8,0-29.7,0-44.5c0-1-0.1-1.9-0.2-2.9c-0.2-1.6-1.1-2.5-2.6-3c-1.4-0.4-2.8-0.6-4.2-0.7c-1.3-0.1-1.7-0.7-1.3-2
		c0.1-0.4,0.3-0.6,0.7-0.6c0.4,0,0.8,0,1.2,0c3.4,0,6.9,0,10.3,0c2.4,0,4.7-0.2,7.1-0.5c2.9-0.3,5.9-0.3,8.8,0
		c1.6,0.1,3.2,0.3,4.7,0.7c3.7,0.8,7.1,2.3,9.8,5.1c1.8,1.9,3,4.1,3.4,6.6c0.5,3.2,0.3,6.4-0.9,9.5c-2,5-5.6,8.3-10.3,10.6
		c-1.4,0.6-1.7,0.4-0.7,2.1c3.7,6.8,7.3,13.6,11.5,20.2c0.9,1.5,2,2.9,3.1,4.3c1.5,1.9,3.5,2.8,5.7,3.1c0.7,0.1,1.5,0.2,2.2,0.3
		c0.9,0.1,1,0.3,1,1.4c0,1-0.2,1.2-1.1,1.3c-0.5,0-1,0-1.5,0c-3.9,0-7.8-0.1-11.8,0c-1.2,0-1.8-0.4-2.4-1.4c-4.3-8.5-9-16.8-13.6-25
		c-1.4-2.4-3.2-3.5-5.9-3.4c-0.2,0-0.4,0-0.5,0c-0.6-0.1-1.5,0.3-1.8-0.4c-0.4-0.8-0.2-1.6-0.1-2.5c0.1-0.5,0.5-0.5,0.9-0.5
		c0.9,0,1.9,0,2.8-0.1c2.6-0.2,5-0.7,7.4-1.8c3.4-1.7,5.5-4.5,6.3-8.2c0.6-2.7,0.7-5.4,0.3-8.1c-0.6-4.4-3.1-7.3-7.2-8.9
		c-3.1-1.2-6.4-1.5-9.7-1.1c-2.5,0.3-3.5,1.4-3.5,4C307.8,506.4,307.8,514.8,307.8,523.2C307.8,523.2,307.8,523.2,307.8,523.2z" class="st0"></path>
	<path d="M480.2,556.8c-5.9,0.1-11.3-1.1-16.4-3.6c-5.4-2.6-9.7-6.6-12.6-11.8c-2.5-4.5-3.9-9.4-4.3-14.6
		c-0.4-5.9,0.2-11.5,2.4-17c4.4-11.1,12.6-17.8,24.3-20c7.2-1.3,14.2-0.7,21,2.1c8.1,3.3,13.6,9.2,16.7,17.3
		c2.1,5.6,2.6,11.4,2,17.3c-0.4,4.4-1.5,8.5-3.4,12.4c-3.7,7.6-9.6,12.8-17.5,15.8C489.2,556,484.8,556.9,480.2,556.8z M504.1,524.7
		c0-2,0-4-0.2-6.1c-0.5-5.1-1.9-9.8-4.4-14.3c-2.2-3.8-5.1-6.9-9-8.8c-5.3-2.6-10.8-3.1-16.5-1.8c-6.6,1.5-11.3,5.3-14.4,11.4
		c-2.2,4.5-3,9.3-3.2,14.3c-0.1,2.1,0.1,4.2,0.2,6.3c0.4,5.8,1.7,11.2,4.7,16.2c2.8,4.7,6.7,8.2,12.1,9.8c4.6,1.4,9.3,1.5,13.9,0.3
		c5.5-1.4,9.7-4.5,12.6-9.3c1.6-2.7,2.7-5.5,3.4-8.6C503.9,531.1,504.2,528,504.1,524.7z" class="st0"></path>
	<path d="M306.6,584.8c1.3,0.4,2.2,0.8,3.1,1.4c3,2.3,3.2,8.6-1.7,10.8c-2.1,0.9-4.4,1.4-6.7,1.1
		c-2.2-0.2-4.3-0.2-6.5-0.2c-0.4,0-0.7,0-1.1,0c-0.3,0-0.5-0.1-0.6-0.4c0-0.3,0.2-0.5,0.4-0.6c0.4-0.1,0.8-0.2,1.1-0.3
		c0.9-0.2,1.3-0.8,1.4-1.7c0-0.3,0-0.6,0-0.9c0-5.5,0-10.9,0-16.4c0-0.2,0-0.4,0-0.5c-0.1-1.2-0.5-1.6-1.7-1.8
		c-0.3-0.1-0.7-0.1-1-0.2c-0.2-0.1-0.4-0.3-0.3-0.5c0-0.2,0.1-0.4,0.4-0.5c0.3-0.1,0.6-0.1,0.9-0.1c3.2,0,6.4-0.1,9.6,0
		c1.6,0,3,0.4,4.4,1.3c2.9,1.8,3,6.4,0.2,8.4C308.1,584,307.5,584.3,306.6,584.8z M299.4,590.8C299.4,590.8,299.4,590.8,299.4,590.8
		c0,1.3,0,2.6,0,3.8c0,1.3,0.5,1.8,1.8,2c0.9,0.1,1.8,0.1,2.6-0.1c1-0.2,2-0.5,2.8-1.2c2.6-2.3,1.9-7.2-1.4-8.7
		c-1.5-0.7-3.2-0.8-4.9-0.8c-0.8,0-0.9,0.2-1,1.1C299.4,588.2,299.4,589.5,299.4,590.8z M299.4,580.1c0,1.1,0,2.2,0,3.3
		c0,0.8,0.2,1,1,1c1.2,0.1,2.5-0.1,3.7-0.4c1.5-0.4,2.6-1.3,2.9-3c0.2-1.6,0.3-3.3-1.1-4.5c-1.5-1.2-3.3-1.5-5.1-1.2
		c-1,0.2-1.3,0.6-1.3,1.5C299.3,578,299.4,579.1,299.4,580.1z" class="st0"></path>
	<path d="M340.3,591.6c0,1.1,0,2.3,0,3.4c0,1,0.3,1.3,1.3,1.6c0.5,0.1,0.9,0.2,1.4,0.3c0.2,0.1,0.4,0.2,0.3,0.5
		c0,0.3-0.2,0.4-0.4,0.4c-0.3,0-0.6,0.1-0.9,0.1c-2.1,0-4.2,0-6.3,0c-0.2,0-0.4,0-0.7,0c-0.3,0-0.6-0.1-0.6-0.5
		c0-0.3,0.2-0.4,0.5-0.5c0.1,0,0.2-0.1,0.2-0.1c1.8-0.6,2-0.9,2-2.8c0-5.4,0-10.8,0-16.2c0-0.2,0-0.4,0-0.7
		c-0.1-1.1-0.5-1.6-1.6-1.8c-0.3-0.1-0.7-0.1-1-0.2c-0.2-0.1-0.4-0.3-0.4-0.5c0-0.2,0.1-0.4,0.3-0.5c0.4-0.2,0.8-0.1,1.2-0.1
		c2.3,0,4.7,0,7-0.1c1.6-0.1,3.2,0.1,4.8,0.7c3.4,1.2,4.4,3.8,3.4,7.2c-0.5,1.7-1.7,2.9-3.2,3.9c-1.1,0.6-1.1,0.7-0.5,1.7
		c1.3,2.6,2.7,5.1,4.4,7.5c0.7,1,1.5,1.8,2.7,1.9c0.2,0,0.3,0.1,0.5,0.1c0.3,0.1,0.5,0.2,0.5,0.5c0,0.4-0.3,0.5-0.6,0.5
		c-1.5,0-3.1,0-4.6,0c-0.6,0-0.8-0.5-1.1-1c-1.5-2.7-3-5.4-4.4-8.1c-0.9-1.6-1.8-2-3.6-1.7c-0.5,0.1-0.6,0.5-0.6,0.9
		C340.3,589.2,340.3,590.4,340.3,591.6z M340.3,580.6c0,1.2,0,2.5,0,3.7c0,1.1,0.2,1.3,1.3,1.3c1,0,2-0.1,3-0.5
		c1.1-0.4,2-1.1,2.5-2.2c0.5-1.4,0.7-2.8,0.4-4.3c-0.3-1.1-0.8-1.9-1.7-2.4c-1.2-0.8-2.6-1-4.1-0.9c-1.1,0.1-1.4,0.5-1.4,1.7
		C340.3,578.2,340.3,579.4,340.3,580.6z" class="st0"></path>
	<path d="M386.8,578.4c-0.5,0.4-0.6,0.9-0.7,1.3c-1.8,4.6-3.7,9.2-5.5,13.9c-0.2,0.5-0.4,1-0.5,1.5
		c-0.3,1.1,0,1.5,1,1.8c0.3,0.1,0.7,0.1,1,0.2c0.2,0,0.3,0.2,0.3,0.4c0,0.2-0.1,0.4-0.4,0.5c-0.3,0.1-0.6,0.1-0.9,0.1
		c-1.8,0-3.6,0-5.4,0c-0.1,0-0.2,0-0.3,0c-0.4,0-0.9,0.1-0.9-0.5c0-0.6,0.5-0.5,0.9-0.6c1.5-0.2,2.3-1.3,2.9-2.6
		c1.3-3,2.6-6.1,3.9-9.1c1.5-3.5,3-7.1,4.4-10.6c0.1-0.2,0.2-0.5,0.4-0.7c0.7-0.7,1.6-0.5,1.9,0.5c0.6,2.3,1.5,4.5,2.2,6.8
		c1.5,4.4,3,8.7,4.5,13.1c0.5,1.4,1.3,2.4,2.8,2.6c0.3,0,0.7,0.1,0.6,0.5c0,0.5-0.4,0.5-0.8,0.5c-2.4,0-4.8,0-7.1,0
		c-0.2,0-0.4,0-0.5-0.1c-0.2-0.1-0.3-0.2-0.3-0.4c0-0.2,0.1-0.4,0.3-0.4c0.3-0.1,0.7-0.2,1-0.3c0.8-0.3,1-0.6,0.9-1.5
		c0-0.3-0.1-0.5-0.2-0.8c-1.7-5.1-3.5-10.3-5.2-15.4C387.1,578.9,387,578.7,386.8,578.4z" class="st0"></path>
	<path d="M497.7,597.9c-2.1,0-4.1,0-6.2,0c-0.3,0-0.5,0-0.8,0c-0.4,0-1,0.1-1.1-0.5c-0.1-0.6,0.6-0.6,1-0.7
		c1.5-0.5,2-1,2-2.6c0-1.7,0-3.4,0-5.1c0-3.6,0-7.1,0-10.7c0-0.4,0-0.7,0-1.1c-0.1-1.3-0.5-1.8-1.8-2c-0.5-0.1-1.2,0.1-1.2-0.7
		c0-0.8,0.8-0.6,1.3-0.6c2.1,0,4.2,0,6.3,0c0.5,0,1.2-0.2,1.3,0.5c0.1,0.7-0.6,0.7-1.1,0.8c-1.1,0.2-1.6,0.8-1.7,1.8
		c-0.1,0.6-0.2,1.2-0.2,1.8c0,4.8,0,9.5,0,14.3c0,0.6,0,1.2,0.2,1.8c0.2,0.8,0.7,1.3,1.6,1.3c1.4,0,2.8,0.1,4.2,0
		c1.4-0.1,2.5-0.8,3.1-2.1c0.3-0.5,0.5-1.1,0.8-1.6c0.2-0.4,0.4-0.7,0.9-0.6c0.5,0.2,0.4,0.6,0.3,1c-0.2,1.3-0.5,2.6-0.7,3.9
		c-0.2,0.9-0.4,1.1-1.4,1.1C502.4,598,500.1,597.9,497.7,597.9z" class="st0"></path>
	<path d="M462.3,597.9c-1.1,0-2.1,0-3.2,0c-0.4,0-0.7,0-1-0.2c-0.4-0.2-0.3-0.7,0-0.8c0.3-0.1,0.7-0.2,1-0.3
		c1-0.2,1.5-0.9,1.6-1.8c0-0.4,0-0.8,0-1.2c0-5.2,0-10.5,0-15.7c0-0.4,0-0.7,0-1.1c-0.1-1-0.5-1.4-1.5-1.6c-0.4-0.1-0.8-0.1-1.2-0.2
		c-0.2-0.1-0.3-0.3-0.3-0.5c0-0.2,0.1-0.4,0.4-0.5c0.3-0.1,0.6-0.1,0.9-0.1c2.2,0,4.4,0,6.6,0c0,0,0.1,0,0.1,0c0.4,0,1,0,1,0.6
		c0,0.5-0.4,0.6-0.8,0.7c-0.2,0-0.4,0.1-0.6,0.1c-0.7,0.2-1.1,0.7-1.2,1.4c-0.1,0.4-0.1,0.9-0.1,1.3c0,5.5,0,10.9,0,16.4
		c0,0.2,0,0.4,0,0.7c0.1,1,0.3,1.3,1.3,1.6c0.4,0.1,0.9,0.1,1.3,0.4c0.2,0.1,0.3,0.2,0.3,0.4c0,0.2-0.1,0.4-0.4,0.5
		c-0.3,0.1-0.6,0.1-0.9,0.1C464.4,598,463.3,598,462.3,597.9z" class="st0"></path>
</g>
</svg>
