<svg xml:space="preserve" style="enable-background:new 0 0 800 800;" viewBox="0 0 800 800" y="0px" x="0px" xmlns:xlink="http://www.w3.org/1999/xlink" xmlns="http://www.w3.org/2000/svg" id="Layer_1" version="1.1">
<style type="text/css">
	.st0{fill:#FFFFFF;}
	.st1{fill-rule:evenodd;clip-rule:evenodd;fill:#FFFFFF;}
</style>
<g>
	<path d="M378.4,445.5c-0.3-1.9-1.2-3.3-2.4-4.3c-1.3-1-3-1.5-5.1-1.5c-1.7,0-2.9,0.3-3.8,0.9c-0.9,0.6-1.3,1.5-1.3,2.6
		c0,1.4,0.8,2.4,2.4,3.2c1.6,0.7,4.2,1.5,7.7,2.2c4.2,0.9,7.7,1.9,10.5,3c2.8,1.1,5.3,2.9,7.4,5.4c1.4,1.6,2.3,3.7,2.8,6v-17.5
		H378.4z" class="st0"></path>
	<path d="M311.5,442.9c-3,0-5.6,1.1-7.6,3.2c-2,2.1-3,5.1-3,8.9c0,3.7,1,6.7,3,8.9c2,2.2,4.5,3.3,7.6,3.3
		c3,0,5.5-1.1,7.5-3.2c2-2.1,3.1-5.1,3.1-8.9c0-3.7-1-6.7-3.1-8.8C317,444,314.5,442.9,311.5,442.9z" class="st0"></path>
	<path d="M214,454.5h-11.7v13.3h11.8c5.1,0,7.7-2.1,7.7-6.4c0-2.2-0.7-3.9-2-5.1C218.4,455.1,216.5,454.5,214,454.5z" class="st0"></path>
	<path d="M394.8,376c2.6,0,4.9-0.9,6.7-2.8c1.8-1.9,2.7-4.5,2.7-7.9c0-3.3-0.9-5.9-2.7-7.8c-1.8-1.9-4-2.9-6.7-2.9
		c-2.7,0-4.9,0.9-6.7,2.8c-1.8,1.9-2.7,4.5-2.7,7.9c0,3.3,0.9,5.9,2.7,7.9C389.9,375,392.1,376,394.8,376z" class="st0"></path>
	<path d="M220.2,433.7c0-4.4-2.6-6.5-7.7-6.5h-10.3V440h10.3C217.6,440,220.2,437.9,220.2,433.7z" class="st0"></path>
	<path d="M486.3,355c-1.5-1.3-3.3-1.9-5.5-1.9c-2.2,0-4,0.6-5.4,1.8c-1.4,1.2-2.3,3-2.8,5.3h15.9
		C488.5,358,487.7,356.2,486.3,355z" class="st0"></path>
	<path d="M472.1,441.3c-2.5,0-4.5,0.7-6.1,2c-1.6,1.3-2.6,3.3-3.1,6h18c0-2.5-0.8-4.4-2.5-5.9
		C476.7,442,474.6,441.3,472.1,441.3z" class="st0"></path>
	<path d="M593.6,371.5h-56.4c1.2-5.3,1.9-10.8,1.9-16.4c0-40.6-32.9-73.5-73.5-73.5H334.4c-40.6,0-73.5,32.9-73.5,73.5
		c0,5.7,0.7,11.2,1.9,16.4h-56.4c-40.6,0-73.5,32.9-73.5,73.5c0,40.6,32.9,73.5,73.5,73.5h387.1c40.6,0,73.5-32.9,73.5-73.5
		C667.1,404.4,634.2,371.5,593.6,371.5z M469,323.3l23-10.4v13.6l-23,9V323.3z M467.2,342.1c4-2.1,8.5-3.2,13.7-3.2
		c5.1,0,9.6,1,13.5,3.1c3.9,2.1,7,5.1,9.2,9c2.2,3.9,3.3,8.5,3.3,13.7c0,1.4-0.1,2.8-0.3,4.2h-34.1c0.2,2.8,1,4.9,2.3,6.3
		c1.4,1.4,3.1,2.1,5.3,2.1c3,0,5.1-1.3,6.4-4h19.2c-0.8,3.6-2.3,6.7-4.6,9.5c-2.3,2.8-5.2,5-8.7,6.6c-3.5,1.6-7.4,2.4-11.6,2.4
		c-5.1,0-9.6-1.1-13.6-3.2c-4-2.1-7.1-5.2-9.3-9.2c-2.2-4-3.4-8.7-3.4-14.1c0-5.4,1.1-10.1,3.3-14
		C460.2,347.3,463.2,344.2,467.2,342.1z M423,339.5h5.6V339c0-6.6,1.9-11.7,5.8-15.2c3.9-3.5,9.5-5.3,16.8-5.3c1.5,0,2.6,0,3.4,0.1
		V334c-0.5-0.1-1.2-0.1-2-0.1c-2,0-3.4,0.4-4.3,1.3c-0.9,0.9-1.4,2.3-1.6,4.3h8.1v15h-8.1v36.6h-18.1v-36.6H423V339.5z M369.9,351.3
		c1.9-4,4.6-7,7.9-9.2c3.3-2.1,7.1-3.2,11.2-3.2c3.6,0,6.6,0.7,9.2,2.1c2.6,1.4,4.6,3.3,6,5.7v-7.2h18v51.6h-18v-7.2
		c-1.4,2.4-3.4,4.3-6,5.7c-2.6,1.4-5.7,2.1-9.1,2.1c-4.1,0-7.8-1.1-11.2-3.2c-3.3-2.1-6-5.2-7.9-9.2c-1.9-4-2.9-8.7-2.9-14
		C367,359.9,368,355.2,369.9,351.3z M296,335c3-5.6,7.3-10,12.8-13.2c5.5-3.2,11.9-4.7,19.1-4.7c9.1,0,16.8,2.4,23.1,7.3
		c6.2,4.9,10.2,11.5,12.1,19.9h-21.9c-1.3-2.8-3.1-4.9-5.5-6.3c-2.3-1.5-5-2.2-8.1-2.2c-4.7,0-8.5,1.7-11.3,5
		c-2.8,3.4-4.2,7.8-4.2,13.5c0,5.7,1.4,10.2,4.2,13.6c2.8,3.4,6.6,5,11.3,5c3,0,5.7-0.7,8.1-2.2c2.3-1.5,4.1-3.6,5.5-6.3h21.9
		c-1.8,8.4-5.8,15-12.1,19.9c-6.2,4.9-13.9,7.3-23.1,7.3c-7.2,0-13.6-1.6-19.1-4.7c-5.5-3.2-9.8-7.5-12.8-13.2
		c-3-5.6-4.5-12.1-4.5-19.4C291.5,347.1,293,340.7,296,335z M236.2,478.9c-4.3,3.5-10.3,5.3-18.1,5.3h-36.3v-73.2H217
		c7.5,0,13.3,1.7,17.6,5c4.3,3.3,6.4,8,6.4,14c0,4.3-1.1,7.9-3.4,10.8c-2.3,2.9-5.2,4.8-9,5.9c4.3,1,7.7,3.1,10.2,6.4
		c2.5,3.3,3.8,7,3.8,11.3C242.6,470.5,240.5,475.4,236.2,478.9z M342.5,484.2h-20.4v-8.1c-1.6,2.7-3.9,4.8-6.8,6.4
		c-2.9,1.6-6.4,2.4-10.3,2.4c-4.6,0-8.8-1.2-12.6-3.6c-3.8-2.4-6.8-5.9-8.9-10.4c-2.2-4.5-3.3-9.8-3.3-15.8c0-2.8,0.3-5.4,0.7-7.9
		h-2.1c-4.4,0-7.7,0.9-9.9,2.6c-2.1,1.7-3.2,4.7-3.2,9v25.5h-20.4v-58.3h20.4v10.3c2.3-3.3,5.1-6,8.3-7.9c3.3-1.9,6.8-2.9,10.5-2.9
		v11.9c2.1-3.5,4.6-6.4,7.8-8.4c3.8-2.4,8-3.6,12.6-3.6c4,0,7.5,0.8,10.4,2.4c2.9,1.6,5.2,3.7,6.8,6.4v-8.1h20.4V484.2z
		 M416.9,484.2h-20.4v-13.7c-0.5,2-1.3,3.9-2.5,5.7c-2,2.7-4.8,4.8-8.4,6.4c-3.6,1.6-7.9,2.3-12.8,2.3c-5.3,0-10-0.9-14.1-2.6
		c-4.1-1.8-7.4-4.2-9.8-7.3c-2.4-3.1-3.7-6.6-4-10.4h19.7c0.3,1.9,1.1,3.3,2.6,4.4c1.5,1,3.3,1.6,5.4,1.6c1.7,0,3-0.3,3.9-1
		c1-0.7,1.5-1.6,1.5-2.7c0-1.5-0.8-2.5-2.4-3.2c-1.6-0.7-4.2-1.5-7.9-2.3c-4.2-0.8-7.6-1.8-10.4-2.8c-2.8-1-5.2-2.7-7.2-5.1
		c-2-2.4-3.1-5.5-3.1-9.6c0-3.5,0.9-6.6,2.8-9.4c1.9-2.8,4.6-5,8.3-6.7c3.6-1.7,8-2.5,13.1-2.5c7.6,0,13.6,1.9,18,5.6
		c4,3.4,6.3,7.8,7.3,13.2v-18.1h20.4V484.2z M415.3,417.5c-2.2,2-5,3-8.6,3c-3.6,0-6.5-1-8.7-3c-2.2-2-3.3-4.4-3.3-7.4
		c0-3,1.1-5.6,3.3-7.6s5.1-3,8.7-3c3.5,0,6.4,1,8.6,3c2.2,2,3.3,4.5,3.3,7.6C418.6,413.1,417.5,415.6,415.3,417.5z M440.5,484.2
		h-20.4v-76.9h20.4V484.2z M501.3,459.1h-38.5c0.2,3.2,1.1,5.6,2.6,7.1c1.6,1.6,3.5,2.3,6,2.3c3.4,0,5.8-1.5,7.3-4.6h21.7
		c-0.9,4-2.7,7.6-5.2,10.8c-2.6,3.2-5.9,5.6-9.8,7.4c-3.9,1.8-8.3,2.7-13.1,2.7c-5.7,0-10.9-1.2-15.3-3.6c-4.5-2.4-8-5.9-10.5-10.4
		c-2.5-4.5-3.8-9.8-3.8-15.9c0-6.1,1.2-11.4,3.7-15.8c2.5-4.5,6-7.9,10.4-10.3c4.5-2.4,9.6-3.6,15.4-3.6c5.7,0,10.8,1.2,15.3,3.5
		c4.4,2.4,7.9,5.7,10.4,10.1c2.5,4.4,3.7,9.6,3.7,15.5C501.6,456,501.5,457.6,501.3,459.1z M526.1,484.2h-20.4v-58.3h20.4V484.2z
		 M524.6,417.5c-2.2,2-5,3-8.6,3c-3.6,0-6.5-1-8.7-3c-2.2-2-3.3-4.4-3.3-7.4c0-3,1.1-5.6,3.3-7.6s5.1-3,8.7-3c3.5,0,6.4,1,8.6,3
		c2.2,2,3.3,4.5,3.3,7.6C527.9,413.1,526.8,415.6,524.6,417.5z M623.4,470.8c-2.7,4.5-6.3,8-11,10.4c-4.6,2.4-9.9,3.6-15.7,3.6
		s-11-1.2-15.6-3.6c-4.6-2.4-8.2-5.9-10.9-10.4c-2.6-4.5-3.9-9.8-3.9-15.9c0-2.8,0.3-5.4,0.9-7.9h-4.3c-4.4,0-7.7,0.9-9.9,2.6
		c-2.1,1.7-3.2,4.7-3.2,9v25.5h-20.4v-58.3h20.4v10.3c2.3-3.3,5.1-6,8.3-7.9c3.3-1.9,6.8-2.9,10.5-2.9v17.3c0.5-1.2,1.1-2.3,1.7-3.4
		c2.7-4.5,6.3-8,10.9-10.4c4.6-2.4,9.8-3.6,15.6-3.6c5.8,0,11,1.2,15.6,3.6c4.6,2.4,8.2,5.9,10.9,10.4c2.7,4.5,4,9.8,4,15.8
		C627.4,461,626.1,466.3,623.4,470.8z" class="st0"></path>
	<path d="M596.9,442.8c-2.8,0-5.1,1-7,3.1c-1.9,2.1-2.8,5.1-2.8,9c0,4,0.9,7.1,2.7,9.1c1.8,2.1,4.1,3.1,7,3.1
		s5.2-1.1,7.1-3.2c1.9-2.1,2.9-5.1,2.9-9.1c0-3.9-1-7-2.9-9C602,443.9,599.7,442.8,596.9,442.8z" class="st0"></path>
</g>
</svg>
