<svg xml:space="preserve" style="enable-background:new 0 0 800 800;" viewBox="0 0 800 800" y="0px" x="0px" xmlns:xlink="http://www.w3.org/1999/xlink" xmlns="http://www.w3.org/2000/svg" id="Layer_1" version="1.1">
<style type="text/css">
	.st0{fill:#FFFFFF;}
	.st1{fill-rule:evenodd;clip-rule:evenodd;fill:#FFFFFF;}
</style>
<g>
	<path d="M179.8,332.4c11.2,0,22.5-0.1,33.7,0c11.5,0.1,21.5,4.1,30.1,11.7c5.9,5.2,10.1,11.7,12.7,19.1
		c1.3,3.7,2,7.6,2.3,11.5c0.5,6.5-0.4,12.7-2.7,18.8c-2,5.5-5,10.4-8.9,14.8c-5.6,6.3-12.5,10.6-20.5,13.1
		c-4.4,1.4-8.9,2.1-13.5,2.1c-4,0-8,0-12,0c-1.9,0-3.7-0.4-5.2-1.6c-2.1-1.7-2.9-4.6-2-7.1c0.9-2.6,3.1-4.4,5.8-4.5
		c4.7-0.3,9.3-0.1,14-0.1c6.5,0,12.5-1.9,17.8-5.6c8-5.6,12.8-13.3,13.9-23c1.1-9.3-1.6-17.6-7.7-24.7c-3.3-3.9-7.3-6.9-12.1-8.7
		c-3.9-1.5-8-2.4-12.2-2.4c-22.5,0-45,0-67.4,0c-2.4,0-3.6,1.1-3.9,3.5c-0.1,0.8-0.1,1.5-0.1,2.3c0,2.8-1.9,5.2-4.6,6.1
		c-2.6,0.9-5.6,0-7.2-2.3c-0.9-1.2-1.4-2.5-1.4-4c-0.1-3,0-6,1.2-8.8c2.5-6.1,8.5-10.1,15.1-10.1
		C156.5,332.4,168.2,332.4,179.8,332.4z" class="st0"></path>
	<path d="M178.8,371.3c11.5,0,23.1,0,34.6,0c3.2,0,5.8,2.2,6.4,5.2c0.8,4.1-2.1,7.7-6.2,7.9c-1.9,0.1-3.9,0.1-5.8,0.1
		c-20.6,0-41.2,0-61.8,0c-2.8,0-4,1.2-4,4c0,18.9,0,37.8,0,56.7c0,2.4,1.4,3.9,3.8,3.9c5.9,0,11.7,0,17.6,0c0.4,0,0.9-0.1,1.3-0.2
		c2-0.5,2.9-1.6,2.9-3.6c0-7.3,0-14.6,0-21.9c0-3.7,2.2-6.2,5.8-6.8c3.5-0.6,7.2,2.4,7.3,5.9c0,0,0,0.1,0,0.1
		c0,7.8,0.4,15.5,0.1,23.3c-0.2,6.8-3.4,11.7-9.4,14.8c-2.1,1.1-4.4,1.5-6.8,1.5c-6.5,0-13.1,0.1-19.6,0c-6.1-0.1-10.8-2.8-14.1-8
		c-1.6-2.5-2.3-5.3-2.3-8.3c0-19.5,0-39.1,0-58.6c0-8.8,7.3-16,16.1-16.1C156.1,371.3,167.5,371.3,178.8,371.3z" class="st0"></path>
	<path d="M291.7,384.1c0-10.4,0-20.9,0-31.3c0-1.2,0-1.2,1.2-1.2c7.6-0.2,15.3-0.2,22.9-0.1c3.8,0,7.6,0.2,11.2,1.3
		c5.6,1.8,10.2,4.9,13,10.2c1.3,2.5,2.1,5.2,2.3,7.9c0.3,4.2-0.1,8.3-1.9,12.2c-2.2,4.7-5.9,7.9-10.6,10c-4.3,1.9-8.8,2.7-13.4,2.7
		c-4,0-8,0-12,0c-0.8,0-1,0.2-1,1c0,6.2,0,12.4,0,18.6c0,1.3,0,1.3-1.3,1.3c-3,0-6.1,0-9.1,0c-1.2,0-1.2,0-1.2-1.2
		C291.7,405.1,291.7,394.6,291.7,384.1C291.7,384.1,291.7,384.1,291.7,384.1z M303.3,373.7C303.3,373.7,303.3,373.7,303.3,373.7
		c0,3.5,0,7,0,10.4c0,1.1,0,1.1,1.2,1.1c3.6,0,7.1,0,10.7,0c1.5,0,3,0,4.4-0.2c2.8-0.4,5.4-1.3,7.5-3.3c2.9-2.6,3.8-6,3.4-9.8
		c-0.4-3.4-2-6.1-5-7.9c-2.2-1.3-4.7-1.9-7.2-2c-4.6-0.1-9.2,0-13.8,0c-0.9,0-1.1,0.3-1.1,1.1C303.4,366.8,303.3,370.2,303.3,373.7z" class="st0"></path>
	<path d="M376.2,417.8c-7.8,0-14.1-2.4-19.2-7.4c-4.2-4.1-6.7-9.2-7.3-15.1c-0.5-4.9,0.1-9.6,2.3-14.1
		c3.3-6.8,8.5-11.4,15.8-13.6c7.3-2.2,14.5-1.7,21.2,2c7.6,4.2,12,10.8,13,19.4c0.9,8.1-1.5,15.2-7.2,21
		C389.5,415.4,383,417.8,376.2,417.8z M375.8,407.7c5.8-0.1,10.2-2.5,13-7.7c1.7-3.2,2.1-6.6,1.6-10.1c-1-8.2-7.9-14.2-16.5-13.3
		c-5,0.6-8.8,3-11.2,7.5c-1.8,3.3-2.2,6.9-1.7,10.6C362.2,402.3,368.5,407.9,375.8,407.7z" class="st0"></path>
	<path d="M556.5,409.6c-0.4,0.5-0.9,1.1-1.3,1.6c-5,5.9-11.3,7.6-18.7,5.9c-6.3-1.4-10.1-5.6-11.9-11.6
		c-0.6-2-0.8-4.1-0.8-6.2c0-10.3,0-20.6,0-30.8c0-0.8,0.3-1.1,1.1-1.1c3.1,0,6.1,0,9.2,0c1.1,0,1.2,0.1,1.2,1.2c0,9.1,0,18.1,0,27.2
		c0,1.7,0.2,3.4,0.8,5c1.2,3.3,3.4,5.5,7,6.1c2.4,0.4,4.8,0.4,7.1-0.6c4-1.7,5.9-5,6.3-9.2c0.2-1.6,0.1-3.2,0.2-4.7
		c0-7.9,0-15.9,0-23.8c0-1.2,0-1.2,1.2-1.2c3,0,6.1,0,9.1,0c1,0,1.1,0.1,1.1,1.1c0,15.7,0,31.5,0,47.2c0,0.7-0.2,1-1,1
		c-3.2,0-6.4,0-9.6,0c-0.7,0-0.9-0.2-0.9-0.9c0-2.1,0-4.1,0-6.2C556.6,409.6,556.6,409.6,556.5,409.6z" class="st0"></path>
	<path d="M478.3,374.2c0.4-0.1,0.5-0.4,0.7-0.6c3.5-4.3,7.9-6.9,13.6-7.1c5.4-0.2,10.1,1.2,13.9,5.2
		c2.6,2.8,3.8,6.3,4.3,10c0.2,1.2,0.2,2.4,0.2,3.6c0,10.1,0,20.2,0,30.2c0,1.2,0,1.2-1.2,1.2c-3,0-6.1,0-9.1,0c-1.2,0-1.2,0-1.2-1.2
		c0-9.3,0-18.7,0-28c0-3.1-0.9-5.9-3.2-8.1c-1.4-1.3-3-2.1-4.9-2.4c-4.4-0.6-8.4,0.3-11.1,4.2c-1.4,2-2.1,4.3-2.1,6.8
		c0,9.1,0,18.2,0,27.4c0,1.3,0,1.3-1.3,1.3c-3.1,0-6.1,0-9.2,0c-0.7,0-1-0.2-1-1c0-15.8,0-31.6,0-47.4c0-0.7,0.2-1,1-1
		c3.2,0,6.3,0,9.5,0c0.8,0,1.1,0.3,1.1,1.1c0,1.6,0,3.2,0,4.8C478.2,373.6,478,374,478.3,374.2z" class="st0"></path>
	<path d="M584.3,391c0-4.2,0-8.4,0-12.7c0-0.8-0.2-1.1-1.1-1.1c-1.4,0.1-2.8,0-4.2,0c-0.6,0-0.9-0.2-0.9-0.9
		c0-2.7,0-5.4,0-8.2c0-0.7,0.2-0.9,0.9-0.9c1.4,0,2.8,0,4.2,0c0.8,0,1.1-0.2,1.1-1.1c0-3.8,0-7.5,0-11.3c0-0.8,0.2-1.1,1.1-1.1
		c3.1,0,6.3,0,9.4,0c1,0,1.1,0,1.1,1.1c0,3.6,0,7.2,0,10.9c0,1.4,0,1.4,1.4,1.4c3.6,0,7.2,0,10.7,0c1.1,0,1.2,0.1,1.2,1.2
		c0,2.6,0,5.2,0,7.7c0,0.8-0.2,1-1,1c-3.7,0-7.4,0-11.2,0c-0.8,0-1.1,0.2-1.1,1.1c0,7.4,0,14.8,0,22.2c0,0.9,0.1,1.8,0.3,2.6
		c0.6,2.7,2.4,4.1,5.5,4.1c2.2,0,4.3-0.4,6.3-1.3c1-0.4,1.1-0.4,1.1,0.7c0,2.5,0,4.9,0,7.4c0,0.6-0.2,1.1-0.8,1.3
		c-5.2,2.4-10.5,2.8-15.9,1.1c-3.9-1.3-6.2-4.1-7.2-8.1c-0.5-2.1-0.7-4.2-0.7-6.3C584.4,398.4,584.3,394.7,584.3,391
		C584.3,391,584.3,391,584.3,391z" class="st0"></path>
	<path d="M632,377.6c0.4-0.7,0.8-1.4,1.2-2.1c2.7-4.6,6.5-7.6,11.8-8.6c1.1-0.2,2.2-0.3,3.4-0.3c0.6,0,0.8,0.2,0.8,0.8
		c0,3.5,0,7.1,0,10.6c0,0.6-0.3,0.7-0.8,0.7c-1.2,0.1-2.4,0.1-3.6,0.3c-5.5,0.9-9.3,4.1-11.4,9.3c-1.2,2.9-1.7,6-1.7,9.1
		c0,6.1,0,12.1,0,18.2c0,1.1,0,1.1-1.1,1.1c-3,0-6.1,0-9.1,0c-1.2,0-1.2,0-1.2-1.2c0-15.2,0-30.5,0-45.7c0-0.5,0-1.1,0-1.6
		c0-0.6,0.2-0.8,0.8-0.8c3.3,0,6.6,0,9.9,0c0.7,0,0.8,0.4,0.8,1c0,2.7,0,5.5,0,8.2c0,0.3,0,0.6,0,0.9
		C631.9,377.5,632,377.6,632,377.6z" class="st0"></path>
	<path d="M414,382.6c0-10.9,0-21.9,0-32.8c0-1.1,0-1.1,1.1-1.1c3.1,0,6.1,0,9.2,0c0.8,0,1.1,0.2,1.1,1.1
		c0,22,0,43.9,0,65.9c0,0.8-0.2,1.1-1.1,1.1c-3.1,0-6.2,0-9.3,0c-1.1,0-1.1,0-1.1-1.2C414,404.6,414,393.6,414,382.6
		C414,382.6,414,382.6,414,382.6z" class="st0"></path>
	<path d="M670.9,392.1c0,7.8,0,15.6,0,23.4c0,1.2,0,1.2-1.2,1.2c-3.1,0-6.2,0-9.3,0c-0.8,0-1-0.3-1-1
		c0-15.8,0-31.5,0-47.3c0-0.8,0.2-1,1-1c3.1,0,6.2,0,9.4,0c1.1,0,1.1,0.1,1.1,1.1C670.9,376.4,670.9,384.2,670.9,392.1
		C670.9,392.1,670.9,392.1,670.9,392.1z" class="st0"></path>
	<path d="M452,392.2c0,7.8,0,15.6,0,23.4c0,1.2,0,1.2-1.2,1.2c-3,0-6,0-9,0c-1.3,0-1.3,0-1.3-1.3c0-14.2,0-28.4,0-42.6
		c0-1.5,0-3.1,0-4.6c0-0.7,0.2-1,0.9-1c3.2,0,6.3,0,9.5,0c1,0,1.1,0.1,1.1,1.1C452.1,376.4,452.1,384.3,452,392.2z" class="st0"></path>
	<path d="M508.8,451.8c0-2.9,0-5.8,0-8.7c0-0.8,0.2-1.1,1.1-1.1c1.9,0,1.9,0,1.9,1.7c0,0.2-0.1,0.6,0.2,0.7
		c0.2,0.1,0.4-0.2,0.5-0.4c1.6-2.2,3.8-2.7,6.4-2.2c1.5,0.3,2.6,1.2,3.4,2.4c0.4,0.7,0.6,0.6,1.1,0c2.4-3.4,7.3-3.2,9.6-1.3
		c1.6,1.4,2.2,3.3,2.3,5.3c0.1,4.3,0.1,8.6,0.1,12.9c0,0.1,0,0.3-0.1,0.4c-0.8,0.7-1.6,0.1-2.4,0.1c-0.5,0-0.5-0.4-0.5-0.8
		c0-2.7,0-5.4,0-8.1c0-1.7,0.1-3.3-0.2-5c-0.4-2-1.4-3.1-3.2-3.5c-1.6-0.3-3.4,0.4-4.4,1.9c-0.6,0.9-0.9,1.8-0.9,2.9
		c0,3.9,0,7.9,0.1,11.8c0,0.7-0.2,1-0.9,0.9c-2.4-0.3-2.1,0.2-2.1-2.1c0-3.2,0-6.5,0-9.7c0-1-0.1-1.9-0.3-2.9
		c-0.5-1.6-1.5-2.7-3.1-2.9c-1.6-0.3-3,0.3-4,1.7c-0.9,1.3-1.3,2.8-1.3,4.3c0,3.5,0,6.9,0,10.4c0,1.2-0.2,1.3-1.4,1.2
		c-1.6-0.2-1.6-0.2-1.6-1.8C508.8,457.3,508.8,454.6,508.8,451.8C508.8,451.8,508.8,451.8,508.8,451.8z" class="st0"></path>
	<path d="M439.1,444.5c0.4-0.4,0.8-0.8,1.2-1.3c2-2.4,6.8-2.2,8.8,0.5c0.1,0.2,0.3,0.3,0.4,0.5c0.3,0.6,0.6,0.4,0.9,0
		c1.7-2.3,4.1-3,6.8-2.6c2.9,0.4,5,3,5.1,6.3c0.1,4.3,0,8.7,0,13c0,0.6-0.2,0.9-0.9,0.9c-2.4-0.1-2.1,0.1-2.1-2.1c0-3.5,0-7,0-10.5
		c0-0.5,0-1-0.1-1.4c-0.5-2.2-1.8-3.4-3.7-3.5c-2-0.1-3.8,1.2-4.5,3.2c-0.3,0.8-0.3,1.6-0.3,2.4c0,3.6,0,7.2,0,10.8
		c0,1.2,0,1.2-1.2,1.2c-2.2,0-1.8-0.1-1.8-1.8c0-3.5,0-7,0-10.5c0-1.1-0.2-2.1-0.6-3c-1-2-3.4-2.8-5.3-1.7c-1.6,0.8-2.4,2.2-2.6,3.9
		c-0.2,1.3-0.2,2.6-0.2,3.9c0,2.9,0,5.7,0.1,8.6c0,0.5-0.2,0.8-0.7,0.8c0,0-0.1,0-0.1,0c-2.6-0.3-2.2,0.2-2.2-2.2
		c0-5.6,0-11.2,0-16.7c0-1,0.1-1.1,1.1-1.1c1.9,0.1,1.9,0.1,1.9,1.9C438.9,444.1,438.8,444.3,439.1,444.5z" class="st0"></path>
	<path d="M648.1,456.9c-0.6,0.6-1,1.1-1.5,1.6c-2.5,2.9-7.6,2.5-10.2-0.2c-3.6-3.7-3.5-10.9,0.1-14.5
		c3.2-3.3,8.4-2.8,11.2,0.9c0.1,0.1,0.2,0.2,0.4,0.3c0-0.7,0-1.5,0-2.2c0-0.5,0.2-0.8,0.7-0.8c2.7,0,2.2-0.2,2.2,2
		c0,4.9,0,9.8,0,14.8c0,1.7-0.2,3.4-1.1,4.9c-1.5,2.7-4,3.8-6.9,3.9c-2.6,0.1-5.1-0.3-7.4-1.6c-1-0.6-1.1-0.6-0.6-1.7
		c0.1-0.2,0.2-0.3,0.3-0.5c0.3-0.7,0.6-0.7,1.3-0.3c2.4,1.4,5,1.8,7.7,1.2c1.9-0.4,3.1-1.7,3.5-3.6
		C648.2,459.8,648.1,458.4,648.1,456.9z M648.1,450.9c0-1.5-0.4-3-1.4-4.3c-2.2-3-6.4-3.1-8.6-0.2c-1.9,2.5-1.7,7.5,0.4,9.8
		c2,2.1,5.3,2.2,7.4,0.3C647.5,454.9,648.1,453.1,648.1,450.9z" class="st0"></path>
	<path d="M550.3,459.7c-0.9,0.8-1.7,1.5-2.7,2c-3.3,1.6-7.5,0.3-8.9-2.8c-1.8-4.2-0.1-9,5.7-9.4c1.7-0.1,3.5,0,5.1,0.5
		c0.6,0.2,0.8,0,0.8-0.6c0.1-2.8-1.6-4.7-4.4-4.9c-1.7-0.1-3.3,0.2-4.8,0.9c-0.7,0.3-1,0.2-1.2-0.5c-0.1-0.2-0.2-0.5-0.3-0.7
		c-0.2-0.5-0.1-0.9,0.4-1.1c2.5-1.1,5-1.7,7.7-1.1c3.3,0.7,5.4,3,5.5,6.6c0.1,4.2,0,8.4,0.1,12.6c0,0.6-0.2,0.9-0.8,0.8
		c-0.5,0-1-0.1-1.5-0.1c-0.4,0-0.6-0.3-0.6-0.7C550.4,460.7,550.5,460.2,550.3,459.7z M550.4,454.3c0-0.4,0-0.7,0-1.1
		c0-0.5-0.2-0.8-0.7-0.9c-1.8-0.4-3.6-0.7-5.4-0.4c-2,0.4-3.2,1.9-3.3,4c0,1.8,1.1,3.4,2.9,3.7C547.8,460.3,550.7,457.8,550.4,454.3
		z" class="st0"></path>
	<path d="M431.9,454.7c0,2.1,0,4.1,0,6.2c0,0.9-0.2,1.1-1.1,1c-0.1,0-0.2,0-0.3,0c-1.4-0.2-1.4-0.2-1.5-1.5
		c0-0.2,0-0.4-0.2-0.4c-0.2,0-0.3,0.2-0.5,0.3c-1.8,1.8-4,2.4-6.6,1.9c-3-0.6-5-2.9-5-6c0-3.5,1.8-5.9,5-6.5
		c2.1-0.4,4.2-0.3,6.2,0.2c0.9,0.2,1,0.2,1-0.8c0.1-2.9-1.6-4.6-4.5-4.7c-1.6-0.1-3.2,0.2-4.6,0.9c-0.6,0.3-1,0.2-1.2-0.5
		c-0.6-1.6-0.7-1.6,0.9-2.2c2.5-1,5.1-1.4,7.7-0.5c2.8,0.9,4.5,3.2,4.6,6.3c0,0.1,0,0.2,0,0.3C431.9,450.7,431.9,452.7,431.9,454.7
		C431.9,454.7,431.9,454.7,431.9,454.7z M429,454.4c0-0.1,0-0.4,0-0.6c0-1.3,0-1.4-1.3-1.6c-1.6-0.3-3.1-0.5-4.7-0.2
		c-2.1,0.4-3.3,1.8-3.3,4.1c0,2,1.2,3.3,3.3,3.6C425.8,460.1,429.4,458.1,429,454.4z" class="st0"></path>
	<path d="M664,453.1c-1.7,0-3.5,0-5.2,0c-1.5,0-1.6,0.1-1.2,1.6c0.6,2.4,2,4.3,4.6,4.7c2.1,0.4,4-0.1,5.6-1.6
		c0.5-0.5,0.8-0.4,1.2,0.1c1.1,1.4,1.1,1.5-0.3,2.6c-5.3,4-12.6,1.2-13.9-5.2c-0.7-3.2-0.5-6.4,1-9.3c2.3-4.3,6.8-5.3,10.3-3.5
		c2.4,1.2,3.5,3.4,4.1,5.8c0.3,1.2,0.4,2.5,0.5,3.8c0,0.8-0.2,1.1-1.1,1.1C667.8,453.1,665.9,453.1,664,453.1z M662.6,450.8
		c1.5,0,2.9,0,4.4,0c0.4,0,0.8,0,0.7-0.6c-0.2-1.6-0.6-3.1-1.6-4.4c-1.9-2.3-5.4-2.2-7.1,0.3c-0.7,1.1-1.2,2.2-1.4,3.5
		c-0.2,1-0.1,1.1,0.9,1.1C659.8,450.8,661.2,450.8,662.6,450.8z" class="st0"></path>
	<path d="M465.5,451.7c0.1-3.1,1-6,3.6-8.2c4.1-3.4,9.9-2.2,12.6,2.3c2.4,4,2.1,9.4-0.7,13.1
		c-3.5,4.6-10.6,4.3-13.7-0.6C466,456.4,465.5,454.2,465.5,451.7z M468.6,452.9c0,1.3,0.3,2.6,1.3,4.2c1.9,2.9,5.9,3.2,8.2,1
		c2.8-2.8,3.3-9.6-0.7-12.7c-1.7-1.3-4.2-1.5-5.9-0.1C469.3,446.8,468.5,449.1,468.6,452.9z" class="st0"></path>
	<path d="M602.9,441.6c3.2,0,5.5,1.3,7.1,3.6c2.9,4.1,2.6,10.2-0.5,14c-3.5,4.3-10.1,4-13.3-0.5
		c-2.9-4.1-2.6-10.3,0.6-14.1C598.5,442.6,600.6,441.6,602.9,441.6z M609.1,452.1c0-1.8-0.4-3.4-1.3-4.9c-2.1-3.6-6.7-3.9-9-0.7
		c-2.1,2.9-2.1,7.9,0.1,10.8c2,2.7,6,2.8,8,0.6C608.5,456.2,609,454.2,609.1,452.1z" class="st0"></path>
	<path d="M357.7,452.1c-0.1-2.9,0.6-5.4,2.5-7.6c3.6-4.1,9.8-3.8,13.1,0.6c3,4.1,2.8,10.5-0.6,14.4
		c-3.7,4.3-10.7,3.5-13.5-1.5C358.1,456.1,357.5,454.1,357.7,452.1z M372.4,452.3c0-2.4-0.5-4.3-1.8-5.9c-2.1-2.6-5.7-2.8-7.9-0.3
		c-2.4,2.7-2.7,8-0.7,11c2.5,3.6,7.2,3.3,9.2-0.4C372,455.2,372.4,453.6,372.4,452.3z" class="st0"></path>
	<path d="M615.4,451.8c0-3,0-5.9,0-8.9c0-0.8,0.3-1,1-1c0.1,0,0.1,0,0.2,0c1.8,0.1,1.8,0.1,1.8,1.9
		c0,0.2-0.1,0.5,0.1,0.5c0.3,0.1,0.4-0.2,0.5-0.3c2.5-3.3,7.3-2.8,9.3-1c1.6,1.4,2.2,3.2,2.3,5.2c0.1,4.3,0.1,8.7,0.1,13
		c0,0.5-0.2,0.7-0.6,0.7c-0.1,0-0.2,0-0.3,0c-2.3-0.3-2,0.2-2-2.1c0-3.2,0-6.4,0-9.6c0-0.9-0.1-1.8-0.3-2.7
		c-0.4-1.7-1.4-2.9-3.3-3.2c-1.8-0.3-3.4,0.3-4.5,1.8c-0.8,1-1.2,2.3-1.2,3.6c0,3.8,0,7.5,0,11.3c0,0.7-0.2,1-0.9,0.9
		c-2.4-0.3-2.1,0.2-2.1-2.1C615.4,457.1,615.4,454.5,615.4,451.8z" class="st0"></path>
	<path d="M320.2,459.2c-0.4,0.4-0.8,0.9-1.3,1.3c-3.3,3.2-9.1,1.7-10.5-2.6c-0.2-0.7-0.4-1.5-0.4-2.3
		c0-4.2,0-8.5,0-12.7c0-0.7,0.2-1,1-1c2.2,0.1,2-0.3,2,2.1c0,3.6,0,7.2,0,10.9c0,2.4,1.3,4.1,3.4,4.5c2.7,0.5,5-1,5.7-3.6
		c0.2-0.9,0.3-1.9,0.3-2.9c0-3.3,0-6.6,0-9.9c0-1.1,0-1.1,1.1-1.1c2,0,1.9-0.3,1.9,1.9c0,5.5,0,11.1,0,16.6c0,1.2,0,1.2-1.2,1.2
		c-1.8,0-1.8,0-1.8-1.8C320.3,459.8,320.4,459.5,320.2,459.2z" class="st0"></path>
	<path d="M330.9,444.6c0.2-0.3,0.5-0.7,0.7-1c2-2.2,4.5-2.3,7.1-1.5c2.5,0.8,3.5,2.8,4,5.2c0.2,0.9,0.2,1.8,0.2,2.7
		c0,3.6,0,7.2,0,10.8c0,1.1,0,1.1-1.1,1.1c-2.2,0-1.8,0-1.8-1.9c0-3.5,0-6.9,0-10.4c0-0.7-0.1-1.5-0.3-2.2c-0.6-1.9-1.9-3-3.8-3.1
		c-2-0.1-4,1-4.7,2.8c-0.4,0.9-0.6,1.8-0.6,2.8c0,3.6,0,7.2,0,10.8c0,1.2,0,1.2-1.2,1.2c-2.2,0-1.8-0.1-1.8-1.8c0-5.6,0-11.3,0-16.9
		c0-1.2,0-1.2,1.2-1.1c1.8,0.1,1.8,0.1,1.8,1.8c0,0.2,0,0.4,0.1,0.6C330.8,444.4,330.8,444.5,330.9,444.6z" class="st0"></path>
	<path d="M665.1,360.2c-1.8,0-3.6,0-5.4,0c-0.6,0-0.7-0.2-0.7-0.7c0-3.2,0-6.3,0-9.5c0-0.6,0.3-0.8,0.8-0.8
		c3.5,0,7.1,0,10.6,0c0.6,0,0.9,0.2,0.9,0.9c0,3.1,0,6.1,0,9.2c0,0.7-0.3,0.9-1,0.9C668.7,360.1,666.9,360.2,665.1,360.2
		C665.1,360.2,665.1,360.2,665.1,360.2z" class="st0"></path>
	<path d="M446.4,349.2c1.8,0,3.5,0,5.3,0c0.7,0,0.9,0.2,0.9,0.9c0,3,0,6.1,0,9.1c0,0.7-0.3,1-1,1c-3.5,0-6.9,0-10.4,0
		c-0.7,0-1-0.2-1-1c0-3.1,0-6.2,0-9.2c0-0.7,0.4-0.7,0.9-0.7C442.8,349.2,444.6,349.2,446.4,349.2z" class="st0"></path>
	<path d="M492.1,462.1c-2.6,0.1-4.7-0.8-6.7-2.3c-0.5-0.4-0.5-0.7-0.2-1.2c0,0,0.1-0.1,0.1-0.1c1.2-1.6,0.9-1.4,2.3-0.4
		c1.6,1.2,3.5,1.5,5.4,1.4c1.2-0.1,2.3-1,2.5-2.1c0.3-1.4-0.2-2.4-1.4-3.1c-1.2-0.7-2.4-1.2-3.7-1.8c-1.3-0.6-2.6-1.2-3.6-2.3
		c-1.9-2.2-1.4-5.7,1.2-7.4c2.4-1.6,4.9-1.3,7.4-0.5c0.8,0.3,1.6,0.6,2.3,1.1c0.5,0.3,0.5,0.7,0.2,1.1c-0.9,1.5-0.9,1.5-2.5,0.7
		c-1.3-0.7-2.6-1.1-4.1-1c-1.8,0.2-2.8,1.2-2.8,2.8c0,0.7,0.4,1.3,1,1.7c0.9,0.6,1.9,1.1,2.9,1.5c1.3,0.6,2.6,1.2,3.8,2
		c3.1,2.1,2.5,6.6,0,8.5C495.1,461.8,493.6,462.2,492.1,462.1z" class="st0"></path>
	<path d="M570.6,462.1c-2.4,0.1-4.5-0.8-6.4-2.2c-0.6-0.4-0.7-0.9-0.2-1.5c1-1.3,1-1.3,2.3-0.4c1.6,1.1,3.4,1.5,5.3,1.4
		c1.4-0.1,2.4-0.9,2.7-2c0.3-1.4-0.1-2.3-1.4-3.2c-1-0.6-2.1-1.1-3.2-1.5c-1.1-0.5-2.1-1-3.1-1.7c-3.1-2.3-2.8-6.8,0.7-8.6
		c2.6-1.3,5.1-0.9,7.6,0.1c0.6,0.2,1.1,0.6,1.6,0.9c0.4,0.2,0.4,0.5,0.2,0.8c0,0-0.1,0.1-0.1,0.1c-0.9,1.6-0.9,1.6-2.5,0.7
		c-1.2-0.7-2.6-1-4-0.9c-1,0.1-1.8,0.4-2.4,1.3c-0.8,1.2-0.5,2.5,0.6,3.3c0.9,0.6,1.9,1.1,2.9,1.5c1.3,0.6,2.6,1.2,3.8,2
		c3.1,2.2,2.3,6.1,0.5,7.9C574.4,461.6,572.9,462.1,570.6,462.1z" class="st0"></path>
	<path d="M384.1,462.1c-2.6,0.1-4.7-0.9-6.7-2.4c-0.2-0.1-0.4-0.3-0.3-0.5c0.3-0.7,0.8-1.3,1.3-1.7
		c0.3-0.3,0.6,0.1,0.8,0.3c1.7,1.3,3.6,1.9,5.7,1.8c1.5-0.1,2.6-1,2.9-2.4c0.2-1-0.1-1.7-0.9-2.3c-0.9-0.7-1.9-1.2-3-1.6
		c-1.2-0.5-2.4-1-3.5-1.7c-1.9-1.2-2.7-2.9-2.4-5.1c0.2-2,1.4-3.3,3.2-4c3.1-1.3,6.1-0.4,8.8,1.2c0.4,0.2,0.5,0.5,0.2,0.9
		c0,0-0.1,0.1-0.1,0.1c-1,1.5-1,1.5-2.5,0.7c-1.2-0.7-2.5-1-3.9-0.9c-0.9,0-1.7,0.3-2.3,1.1c-0.9,1.2-0.7,2.5,0.6,3.5
		c0.9,0.6,1.9,1.1,2.9,1.5c1.3,0.5,2.5,1.1,3.6,1.9c1.8,1.3,2.6,3,2.2,5.2c-0.4,2.2-1.7,3.6-3.8,4.3
		C385.9,462.1,385,462.2,384.1,462.1z" class="st0"></path>
	<path d="M407.5,457.6c0.6-1.8,1.3-3.6,1.9-5.4c1.1-3.1,2.2-6.3,3.2-9.4c0.2-0.6,0.6-0.8,1.2-0.8c2.7,0,2.3-0.1,1.5,2
		c-2,5.5-4,11-6,16.5c-0.5,1.4-1.3,1.8-2.8,1.4c-0.5-0.1-0.6-0.5-0.7-0.9c-1.3-3.5-2.6-7.1-3.9-10.6c-0.9-2.5-1.8-5-2.8-7.5
		c-0.4-0.9-0.3-1,0.7-1c2.3,0.1,2.2,0.1,3,2.2c1.5,4.3,2.9,8.6,4.4,12.9C407.2,457.2,407.2,457.5,407.5,457.6z" class="st0"></path>
	<path d="M300.7,445.4c0-3.1,0-6.1,0-9.2c0-0.8,0.1-1.1,1-1.1c2.5,0.1,2.1-0.2,2.1,2.2c0,5.6,0,11.2,0,16.7
		c0,1.9-0.4,3.7-1.4,5.3c-0.7,1.1-1.7,1.9-3,2.3c-3.4,1.1-6.9,0.4-9.2-2.6c-0.4-0.5-0.4-0.9,0.1-1.3c0.6-0.4,1-1.3,1.6-1.2
		c0.5,0.1,0.9,0.9,1.4,1.4c2,2.1,5.4,1.8,6.7-0.6c0.5-0.9,0.7-1.9,0.7-2.9c0-1.5,0-3,0-4.5C300.7,448.4,300.7,446.9,300.7,445.4
		C300.7,445.4,300.7,445.4,300.7,445.4z" class="st0"></path>
	<path d="M350.7,451.2c0,1.8,0.1,3.6,0,5.3c-0.1,2.7,2,3.3,3.8,2.8c1.2-0.3,1.3-0.3,1.3,1c0,1.3,0,1.3-1.3,1.6
		c-1,0.2-1.9,0.2-2.9,0.1c-2.4-0.3-3.8-2.1-3.9-4.8c0-3.8,0-7.6,0-11.4c0-1.2,0-1.2-1.3-1.3c-0.4,0-0.9,0.2-1-0.3
		c-0.2-0.7-0.3-1.5,0.1-2.1c0.2-0.4,0.7-0.2,1.1-0.2c1.1,0,1.1,0,1.1-1.1c0-1.2,0-2.5,0-3.7c0-0.7,0.2-1,0.9-1c2.4,0,2-0.1,2,1.9
		c0,0.9,0.1,1.9,0,2.8c-0.1,0.9,0.3,1.1,1.1,1.1c1.1-0.1,2.2,0,3.2,0c0.6,0,0.7,0.2,0.8,0.7c0.1,1.9,0.1,1.9-1.8,1.9
		c-0.8,0-1.6,0-2.4,0c-0.7,0-1,0.2-1,1C350.8,447.4,350.7,449.3,350.7,451.2z" class="st0"></path>
	<path d="M587.7,448.1c0-4.3,0-8.6,0-12.9c0-0.6,0.2-0.8,0.8-0.8c2.6,0,2.2-0.3,2.3,2.2c0,8,0,16,0,24
		c0,1.3,0,1.3-1.3,1.3c-0.2,0-0.5,0-0.7,0c-0.7,0.1-1-0.3-1-1c0-4,0-7.9,0-11.9C587.7,448.6,587.7,448.3,587.7,448.1
		C587.7,448.1,587.7,448.1,587.7,448.1z" class="st0"></path>
	<path d="M557.7,451.9c0-3,0-5.9,0-8.9c0-0.7,0.2-1,1-1c2.2,0.1,2-0.3,2,2.1c0,5.5,0,11,0,16.5c0,1.2,0,1.2-1.2,1.3
		c-1.8,0-1.8,0-1.8-1.7C557.7,457.3,557.7,454.6,557.7,451.9C557.7,451.9,557.7,451.9,557.7,451.9z" class="st0"></path>
	<path d="M557.6,436.5c0-2-0.1-1.8,1.9-1.8c1.2,0,1.3,0,1.3,1.3c0,2,0,2-2,2.2C557.6,438.3,557.6,438.3,557.6,436.5z" class="st0"></path>
</g>
</svg>
