<svg xml:space="preserve" style="enable-background:new 0 0 800 800;" viewBox="0 0 800 800" y="0px" x="0px" xmlns:xlink="http://www.w3.org/1999/xlink" xmlns="http://www.w3.org/2000/svg" id="Layer_1" version="1.1">
<style type="text/css">
	.st0{fill:#FFFFFF;}
	.st1{fill-rule:evenodd;clip-rule:evenodd;fill:#FFFFFF;}
</style>
<g>
	<path d="M497.9,400.1c0-18.5,0-37,0-55.5c0-1.8,0-1.8,1.8-2c0.5-0.1,1-0.1,1.5-0.1c11.3,0,22.6-0.1,33.8,0
		c4.9,0,9.7,0,14.6,0.9c5.8,1,11.1,3,15.6,6.8c3.2,2.6,5.3,5.9,6.8,9.7c1.6,4.2,2.3,8.5,2.4,12.9c0.1,5.1-0.7,10-3.4,14.5
		c-2.4,3.9-5.6,7.1-9.7,9.2c-0.4,0.2-1.1,0.4-1.1,0.9c0,0.6,0.7,0.7,1.2,1c4.1,1.9,7.7,4.6,10.5,8.2c2.8,3.6,4.2,7.9,4.9,12.5
		c0.9,6.2,0.6,12.4-1.1,18.5c-2.2,7.8-6.9,13.5-14.5,16.6c-4.1,1.7-8.3,2.6-12.7,2.9c-4.5,0.3-9,0.4-13.5,0.4c-11.6,0-23.3,0-34.9,0
		c-0.2,0-0.5,0-0.7,0c-1.2,0-1.5-0.3-1.5-1.5c0-4.4-0.1-8.7-0.1-13.1C497.8,428.6,497.9,414.4,497.9,400.1
		C497.9,400.1,497.9,400.1,497.9,400.1z M523.2,424.1C523.2,424.1,523.2,424.1,523.2,424.1c0,1.6,0,3.2,0,4.8c0,3.6,0,7.1,0,10.7
		c0,1.2,0.3,1.5,1.3,1.5c5.1,0,10.3,0.3,15.4-0.4c5.4-0.7,8.9-3.7,10.4-8.9c1.5-5.1,1.2-10.3,0-15.5c-1.1-4.6-4.1-7.5-8.7-8.6
		c-2.1-0.5-4.2-0.7-6.3-0.8c-3.4-0.1-6.8,0-10.1,0c-1.8,0-2,0.2-2,1.9C523.2,413.9,523.2,419,523.2,424.1z M523.2,375
		c0,1.7,0,3.4,0,5.1c0,3,0,6,0,8.9c0,1.3,0.3,1.5,1.6,1.5c0.9,0,1.8,0,2.7,0c3.5,0,7,0.1,10.4-0.4c5.6-0.9,8.9-3.9,9.9-9.2
		c0.5-2.8,0.5-5.6,0.4-8.4c-0.1-2.2-0.3-4.4-1.1-6.5c-1-2.6-2.4-4.8-5.2-5.9c-1.6-0.6-3.4-0.9-5.1-1c-3.6-0.3-7.3-0.2-10.9-0.2
		c-2.5,0-2.7,0.1-2.7,2.7C523.2,366.1,523.2,370.5,523.2,375z" class="st0"></path>
	<path d="M203.4,400.5c-0.1-9.1,0.6-17.5,2.5-25.9c1.9-8,5.3-15.2,10.5-21.5c3.5-4.3,8.1-7.3,13.3-9.3
		c7-2.7,14.3-3.9,21.9-3.5c9.2,0.5,17.7,3.1,25.2,8.6c4,3,6.8,7.1,9.3,11.4c4,6.9,5.9,14.5,7,22.3c1.2,8.1,1.2,16.3,0.9,24.5
		c-0.3,7.8-1.2,15.6-3.7,23c-2.3,7-5.8,13.3-11,18.6c-4.5,4.6-10.2,7.2-16.3,9c-4,1.2-8.1,1.6-12.2,1.8c-6,0.2-11.9-0.3-17.7-2.2
		c-7.1-2.3-13.4-5.9-17.9-12.1c-5.1-7-8.6-14.8-10-23.4c-0.7-4.4-1.3-8.8-1.6-13.2C203.4,405.8,203.5,402.9,203.4,400.5z M232.5,400
		c0,4.5,0.1,8.6,0.4,12.7c0.3,4.4,0.7,8.8,1.6,13.2c0.9,4.3,2.2,8.5,5,12.1c2.2,2.9,5.1,4.6,8.9,4.8c4.3,0.1,7.5-1.8,9.9-5.2
		c3.4-4.8,4.5-10.5,5.4-16.2c0.5-3.5,0.8-6.9,1-10.4c0.1-3.7,0.5-7.3,0.4-11c-0.1-4-0.2-8-0.5-11.9c-0.4-5.4-0.8-10.7-2-16
		c-0.9-3.9-2.3-7.5-4.8-10.7c-4-5.1-12.4-5.4-16.6-1.5c-2.5,2.3-4,5.2-5,8.3c-2.2,6.8-2.8,13.8-3.3,20.9
		C232.5,392.9,232.4,396.7,232.5,400z" class="st0"></path>
	<path d="M478.9,399.4c-0.1,8.1-0.4,16-2,23.8c-1.9,9.3-5.6,17.8-12.1,24.9c-4.5,4.9-10.2,7.8-16.5,9.7
		c-4.2,1.2-8.5,1.8-13,2c-6.6,0.2-13-0.5-19.2-2.8c-7.9-2.9-14.1-7.7-18.7-15c-4.7-7.4-7-15.5-8.2-24.1c-0.7-4.7-0.9-9.5-1-14.2
		c-0.2-5.7,0-11.4,0.5-17.1c0.7-7.9,2.3-15.7,5.8-23c3.2-6.5,7.3-12.2,13.3-16.3c4-2.7,8.5-4.3,13.2-5.4c10.4-2.5,20.6-2,30.6,1.7
		c8.7,3.2,15,9.1,19.4,17.2c2.9,5.4,4.8,11.1,6,17c0.8,4,1.2,8.1,1.5,12.1C478.7,393.1,478.8,396.3,478.9,399.4z M449.8,400.6
		c0-3.5-0.2-6.9-0.4-10.4c-0.2-5.2-0.7-10.4-1.7-15.5c-0.7-4.2-1.9-8.2-4.3-11.8c-3.2-4.8-7.6-6.6-13.8-5c-2.8,0.7-4.7,2.8-6.3,5.1
		c-2.6,3.9-3.6,8.4-4.4,13c-0.8,4.6-1.2,9.2-1.5,13.8c-0.4,6-0.4,11.9-0.2,17.9c0.2,5.2,0.6,10.5,1.4,15.7
		c0.8,5.1,2.2,10.1,5.2,14.4c2.9,4.2,7.8,6.1,12.6,4.7c3.6-1,6-3.6,7.7-6.7c2.5-4.6,3.6-9.6,4.3-14.7
		C449.5,414.2,449.6,407.4,449.8,400.6z" class="st0"></path>
	<path d="M682.9,401.3c0.2,6.6-0.5,13.9-1.8,21c-1.2,6.8-3.6,13.2-7.2,19.1c-5,8.2-12.1,13.6-21.3,16.2
		c-4.2,1.2-8.5,1.9-13,2c-6,0.2-11.8-0.4-17.5-2.1c-8.6-2.6-15.4-7.5-20.2-15.2c-2.5-4.1-4.9-8.2-6.1-12.8c-1.6-6-2.8-12.2-3.2-18.4
		c-0.2-3.7-0.5-7.4-0.4-11.2c0-4.1,0-8.2,0.5-12.2c0.6-4.9,1.2-9.7,2.5-14.4c2-7.5,5.3-14.4,10.3-20.3c3.9-4.5,8.8-7.7,14.4-9.6
		c7.1-2.5,14.3-3.5,21.8-2.9c5.3,0.4,10.4,1.6,15.3,3.6c8,3.3,13.8,9,17.9,16.5c3.5,6.2,5.4,12.9,6.6,19.9
		C682.7,387.2,683,393.9,682.9,401.3z M621.4,399.9c0.1,3.2,0,6.2,0.2,9.3c0.2,5.3,0.7,10.7,1.7,15.9c0.8,4.6,2.3,9,5.1,12.9
		c4.5,6.3,13.5,6.4,18.3,0.3c2.7-3.4,4-7.4,5-11.5c0.9-3.9,1.3-7.8,1.7-11.8c0.4-4.4,0.6-8.9,0.6-13.3c0-4.7-0.2-9.4-0.4-14.2
		c-0.3-4.6-0.8-9.2-1.7-13.8c-0.8-3.8-1.8-7.6-4.1-10.9c-3.4-5-7.8-6.5-13.1-5.4c-3.7,0.8-6,3.4-7.8,6.6c-2.3,4.2-3.2,8.9-3.9,13.6
		C621.7,385.1,621.4,392.6,621.4,399.9z" class="st0"></path>
	<path d="M328,438.9c0-5.2,0-10.4,0-15.6c0-2.6-0.5-4.9-1.5-7.3c-4.5-10.5-8.9-21-13.3-31.5
		c-5.4-13.1-10.9-26.2-16.4-39.3c-0.9-2.2-0.7-2.5,1.7-2.6c7.6-0.3,15.2-0.1,22.8-0.1c0.3,0,0.5,0,0.8,0c1.6-0.1,2.5,0.7,3.1,2.3
		c3.9,10.3,7.8,20.5,11.8,30.8c1.9,5.1,3.9,10.1,5.8,15.2c0.2,0.4,0.2,1.1,0.8,1c0.5,0,0.7-0.6,0.9-1.1c3.5-9,7-17.9,10.5-26.9
		c2.5-6.5,5.1-13,7.6-19.6c0.4-1.1,1-1.7,2.2-1.7c0.4,0,0.8-0.1,1.2-0.1c5.7,0,11.4,0,17.1,0c0.6,0,1.2,0.1,1.8,0.1
		c1.1,0.2,1.4,0.6,1,1.7c-1,2.3-2,4.7-3,7c-3.7,8.9-7.5,17.6-11.1,26.6c-2.5,6.3-5.3,12.5-8,18.8c-2.8,6.6-5.6,13.3-8.4,19.9
		c-0.6,1.4-0.6,2.9-0.6,4.3c0,11.4,0,22.8,0,34.2c0,2.4,0,2.4-2.4,2.4c-7.3,0-14.6,0-21.9,0c-0.4,0-0.7,0-1.1,0
		c-1.3,0-1.6-0.3-1.6-1.6C328,450.2,328,444.6,328,438.9C328,438.9,328,438.9,328,438.9z" class="st0"></path>
	<path d="M144.5,409.9c0-14.9,0-29.8,0-44.6c0-0.5,0-1,0-1.6c0-0.8-0.4-1.2-1.3-1.3c-1.4-0.1-2.8-0.2-4.2-0.2
		c-6.8,0-13.5,0-20.3,0c-1.4,0-1.5-0.2-1.6-1.5c-0.2-5.3-0.1-10.7-0.1-16c0-0.4,0.1-0.9,0.2-1.3c0.1-0.4,0.4-0.7,0.8-0.7
		c0.8,0,1.7-0.1,2.5-0.1c25.2,0,50.3,0,75.5,0c0.9,0,1.7,0.1,2.6,0.1c0.7,0,1,0.4,1.1,1c0,0.2,0,0.4,0,0.6c0,5.5,0,11,0,16.5
		c0,1.3-0.2,1.5-1.5,1.5c-6.6,0-13.1,0-19.7,0c-1.6,0-3.2,0.1-4.9,0.2c-0.8,0-1.3,0.4-1.3,1.2c0,0.4,0,0.8,0,1.3
		c0,29.9,0,59.9,0,89.8c0,2.7,0,2.8-2.8,2.8c-7.7,0-15.3,0-23,0c-1.9,0-2.1-0.2-2.1-2.1C144.5,440.2,144.5,425,144.5,409.9
		C144.5,409.9,144.5,409.9,144.5,409.9z" class="st0"></path>
</g>
</svg>
