<svg xml:space="preserve" style="enable-background:new 0 0 800 800;" viewBox="0 0 800 800" y="0px" x="0px" xmlns:xlink="http://www.w3.org/1999/xlink" xmlns="http://www.w3.org/2000/svg" id="Layer_1" version="1.1">
<style type="text/css">
	.st0{fill:#FFFFFF;}
	.st1{fill-rule:evenodd;clip-rule:evenodd;fill:#FFFFFF;}
</style>
<g>
	<path d="M299.4,347.9c18.6-10.9,24.9-34.9,13.9-53.5c-7-12-19.9-19.3-33.7-19.3c-1.2,0-2.3,0-3.4,0.2
		c-1.1,0.2-2.6-0.2-4.2-0.2h-72.4v151.7H287c22.3,0,40.4-18.1,40.3-40.4C327.4,368.9,316.1,353.4,299.4,347.9L299.4,347.9z
		 M245.7,305.4H257c4.6-0.2,9.2,1.1,12.9,3.7c3.4,2.7,5.3,6.9,5.2,11.2c0.2,4.4-1.8,8.5-5.2,11.2c-3.8,2.7-8.3,3.9-12.9,3.7h-11.3
		L245.7,305.4z M274.6,390.8c-4.6,2.9-10,4.4-15.5,4.1h-13.4V362H259c5.5-0.3,10.9,1.1,15.5,4.1c3.9,2.9,6.2,7.6,6,12.4
		c0.2,4.9-2,9.5-5.9,12.4V390.8z" class="st0"></path>
	<path d="M510.2,385.7h-60V275.1h-49.8v151.7h56.7l42.1,0h10.9V385.7z M384.5,275.1h-49.8v151.8l49.8,0V275.1z" class="st0"></path>
	<path d="M526.1,275h-60v94.7h44v-49.3c17.7-4.6,35.9,6,40.5,23.8c4.6,17.7-6,35.9-23.8,40.5c-0.3,0.1-0.5,0.1-0.8,0.2
		v42c41.9-0.8,75.3-35.4,74.5-77.3c-0.8-40.8-33.7-73.7-74.5-74.5H526.1z" class="st0"></path>
	<path d="M249.4,463.7h9.7c2.3,0,4.6,0.5,6.7,1.5c1.9,1,3.4,2.4,4.5,4.2c2.1,3.9,2.1,8.5,0,12.4
		c-1.1,1.8-2.7,3.3-4.5,4.2c-2.1,1-4.4,1.6-6.7,1.5h-9.7V463.7z M259,485.4c1.9,0.1,3.8-0.4,5.5-1.2c1.5-0.8,2.8-2,3.6-3.5
		c1.7-3.2,1.7-7,0-10.1c-0.9-1.5-2.1-2.7-3.6-3.5c-1.7-0.9-3.6-1.3-5.5-1.2h-7.1v19.6L259,485.4z M293.5,479.4h-15
		c0.1,1.7,0.8,3.4,2.1,4.5c1.4,1.2,3.1,1.8,4.9,1.7c1.1,0,2.1-0.2,3.1-0.6c0.9-0.4,1.8-1,2.4-1.8l1.4,1.6c-0.8,1-1.8,1.7-3,2.2
		c-1.3,0.5-2.6,0.8-4,0.8c-1.7,0-3.4-0.4-4.9-1.2c-1.4-0.8-2.6-1.9-3.3-3.3c-0.8-1.4-1.2-3.1-1.2-4.7c0-1.7,0.4-3.3,1.1-4.8
		c0.7-1.4,1.8-2.5,3.2-3.2c2.8-1.6,6.2-1.6,8.9,0c1.3,0.8,2.4,1.9,3.1,3.2c0.8,1.5,1.1,3.1,1.1,4.7L293.5,479.4z M280.6,473.2
		c-1.2,1.1-1.9,2.7-2,4.3h12.7c-0.1-1.6-0.8-3.2-2-4.3c-1.2-1.1-2.8-1.7-4.4-1.7c-1.6-0.1-3.3,0.5-4.4,1.7H280.6z M299.8,487.1
		c-1.1-0.3-2.2-0.8-3.1-1.6l1.1-1.9c0.9,0.7,1.8,1.1,2.8,1.4c1.1,0.4,2.3,0.6,3.5,0.6c1.3,0.1,2.5-0.2,3.6-0.8
		c0.7-0.5,1.2-1.3,1.2-2.2c0-0.6-0.2-1.2-0.6-1.6c-0.5-0.4-1.1-0.7-1.7-0.9c-0.9-0.2-1.7-0.4-2.6-0.6c-1.2-0.2-2.4-0.4-3.6-0.7
		c-0.9-0.3-1.7-0.8-2.3-1.4c-0.7-0.8-1-1.8-0.9-2.8c0-1.5,0.7-2.9,1.9-3.7c1.5-1,3.3-1.5,5.2-1.4c1.2,0,2.4,0.2,3.5,0.5
		c1,0.2,2,0.7,2.9,1.2l-1.1,1.9c-1.6-1-3.4-1.6-5.3-1.5c-1.2-0.1-2.4,0.2-3.5,0.8c-0.7,0.5-1.2,1.3-1.2,2.1c0,0.6,0.2,1.2,0.7,1.7
		c0.5,0.4,1,0.7,1.7,0.9c0.6,0.2,1.6,0.4,2.6,0.6c1.2,0.2,2.3,0.5,3.5,0.8c0.9,0.3,1.6,0.7,2.2,1.4c0.7,0.8,1,1.7,0.9,2.7
		c0,1.5-0.7,2.9-2,3.7c-1.6,1-3.5,1.5-5.5,1.4C302.4,487.9,301.1,487.6,299.8,487.1z M332.2,479.4h-15c0.1,1.7,0.8,3.4,2.1,4.5
		c1.4,1.2,3.1,1.8,4.9,1.7c1.1,0,2.1-0.2,3.1-0.6c0.9-0.4,1.8-1,2.4-1.8l1.4,1.6c-0.8,1-1.8,1.7-3,2.2c-1.2,0.5-2.6,0.8-3.9,0.8
		c-1.7,0-3.4-0.4-4.9-1.2c-1.4-0.8-2.6-1.9-3.3-3.3c-0.8-1.4-1.2-3.1-1.2-4.7c0-1.7,0.4-3.3,1.1-4.8c0.7-1.3,1.8-2.5,3.2-3.2
		c2.8-1.6,6.2-1.6,9,0c1.3,0.8,2.4,1.9,3.2,3.2c0.8,1.5,1.2,3.1,1.1,4.7L332.2,479.4z M319.3,473.2c-1.2,1.1-1.9,2.7-2,4.3H330
		c-0.1-1.6-0.8-3.2-2-4.3C325.5,471,321.8,471,319.3,473.2z M352.4,471.5c1.4,1.5,2.2,3.6,2,5.7v10.3h-2.6v-10.1
		c0.1-1.6-0.4-3.1-1.4-4.3c-1-1-2.4-1.5-3.8-1.4c-1.7-0.1-3.4,0.5-4.6,1.7c-1.2,1.3-1.8,3-1.7,4.8v9.4H338v-18.1h2.3v3.3
		c0.6-1.1,1.6-2,2.7-2.6c1.3-0.6,2.7-0.9,4.1-0.9C349.1,469.3,351,470.1,352.4,471.5z M376.5,469.6l-8,18.1h-2.6l-8-18.1h2.6
		l6.9,15.3l6.8-15.3H376.5z M382.7,486.6c-1.4-0.8-2.5-1.9-3.3-3.3c-0.8-1.4-1.2-3.1-1.2-4.7c0-1.7,0.4-3.3,1.2-4.8
		c0.8-1.4,1.9-2.5,3.3-3.2c2.9-1.5,6.4-1.5,9.4,0c1.4,0.8,2.5,1.9,3.3,3.2c0.8,1.5,1.2,3.1,1.2,4.7c0,1.6-0.4,3.3-1.2,4.7
		c-0.8,1.4-1.9,2.5-3.3,3.3C389.2,488.1,385.7,488.1,382.7,486.6L382.7,486.6z M390.8,484.7c1-0.6,1.9-1.5,2.4-2.6
		c0.6-1.1,0.9-2.4,0.9-3.6c0-1.2-0.3-2.5-0.8-3.6c-0.5-1.1-1.3-2-2.4-2.6c-2.1-1.2-4.7-1.2-6.9,0c-1,0.6-1.9,1.5-2.4,2.6
		c-0.6,1.1-0.9,2.4-0.9,3.7c0,1.3,0.3,2.5,0.9,3.6c0.5,1.1,1.4,2,2.4,2.6c2.1,1.2,4.7,1.2,6.9,0L390.8,484.7z M402.2,462.2h2.4v25.3
		h-2.4V462.2z M427.2,469.6l-8,18.1h-2.6l-8-18.1h2.6l6.7,15.3l6.8-15.3H427.2z M431.2,465.2c-0.3-0.3-0.5-0.8-0.5-1.2
		c0-1,0.8-1.7,1.8-1.7c0.5,0,0.9,0.2,1.3,0.5c0.3,0.3,0.5,0.7,0.5,1.2c0,0.5-0.2,0.9-0.5,1.2c-0.3,0.3-0.8,0.5-1.3,0.5
		C432,465.7,431.6,465.5,431.2,465.2z M431.2,469.6h2.4v18.1h-2.4V469.6z M468.9,471.4c1.4,1.6,2.1,3.6,1.9,5.7v10.3h-2.5v-10.1
		c0.1-1.6-0.4-3.1-1.3-4.3c-1-1-2.4-1.5-3.8-1.4c-1.6-0.1-3.3,0.5-4.4,1.7c-1.1,1.3-1.7,3-1.6,4.8v9.4h-2.4v-10.2
		c0.1-1.6-0.4-3.1-1.3-4.3c-1-1-2.4-1.5-3.8-1.4c-1.6-0.1-3.2,0.5-4.4,1.7c-1.1,1.3-1.7,3-1.6,4.8v9.4h-2.4v-18.1h2.3v3.3
		c0.6-1.1,1.5-2,2.6-2.6c1.3-0.6,2.8-0.8,4.2-0.7c1.4,0,2.7,0.3,3.9,1c1.2,0.6,2.1,1.6,2.6,2.8c0.7-1.2,1.7-2.2,2.9-2.8
		c1.3-0.7,2.8-1,4.2-1C465.7,469.4,467.5,470.1,468.9,471.4z M493.8,479.4h-15.1c0.1,1.7,0.8,3.4,2.1,4.5c1.4,1.2,3.1,1.8,4.9,1.7
		c1.1,0,2.1-0.2,3.1-0.6c0.9-0.4,1.7-1,2.4-1.8l1.4,1.6c-0.8,1-1.8,1.7-3,2.2c-1.3,0.5-2.6,0.8-4,0.8c-1.7,0-3.4-0.4-4.9-1.2
		c-1.4-0.8-2.6-1.9-3.3-3.3c-1.6-3-1.6-6.5,0-9.4c0.7-1.3,1.8-2.5,3.1-3.2c1.4-0.8,2.9-1.2,4.5-1.2c1.6,0,3.1,0.4,4.5,1.2
		c1.3,0.8,2.4,1.9,3.1,3.2c0.8,1.5,1.2,3.1,1.1,4.7L493.8,479.4z M480.9,473.2c-1.2,1.1-1.9,2.7-2,4.3h12.6c-0.1-1.6-0.8-3.2-2-4.3
		c-2.5-2.2-6.3-2.2-8.8,0H480.9z M514,471.5c1.4,1.6,2.1,3.6,2,5.7v10.3h-2.4v-10.1c0.1-1.6-0.4-3.1-1.4-4.3c-1.1-1-2.5-1.6-4-1.4
		c-1.7-0.1-3.4,0.5-4.6,1.7c-1.2,1.3-1.8,3-1.7,4.8v9.4h-2.4v-18.1h2.3v3.3c0.6-1.1,1.6-2,2.7-2.6c1.3-0.6,2.7-0.9,4.1-0.9
		C510.7,469.2,512.6,470,514,471.5z M532.8,486.5c-0.5,0.4-1.1,0.7-1.7,0.9c-0.7,0.2-1.4,0.3-2.1,0.3c-2.6,0.2-4.9-1.7-5.2-4.3
		c0-0.3,0-0.6,0-0.9v-10.9h-3.3v-2.1h3.2v-4h2.4v3.9h5.5v2.1h-5.5v10.7c-0.1,0.9,0.2,1.9,0.8,2.6c0.6,0.6,1.5,0.9,2.3,0.8
		c0.5,0,1-0.1,1.4-0.2c0.4-0.1,0.9-0.4,1.2-0.7L532.8,486.5z M539.9,486.6c-1.4-0.8-2.5-1.9-3.3-3.3c-0.8-1.4-1.2-3.1-1.2-4.7
		c0-1.7,0.4-3.3,1.2-4.7c0.8-1.4,1.9-2.5,3.3-3.2c2.9-1.5,6.4-1.5,9.4,0c1.4,0.7,2.5,1.9,3.3,3.2c0.8,1.4,1.2,3.1,1.2,4.7
		c0,1.6-0.4,3.3-1.2,4.7c-0.8,1.4-1.9,2.5-3.3,3.3C546.4,488.1,542.8,488.1,539.9,486.6L539.9,486.6z M548,484.7
		c1-0.6,1.9-1.5,2.4-2.6c0.6-1.1,0.9-2.4,0.9-3.6c0-1.3-0.3-2.5-0.9-3.7c-0.5-1.1-1.3-2-2.4-2.6c-2.1-1.2-4.7-1.2-6.9,0
		c-1,0.6-1.9,1.5-2.4,2.6c-0.6,1.1-0.9,2.4-0.9,3.7c0,1.3,0.3,2.5,0.9,3.6c0.5,1.1,1.3,2,2.4,2.6C543.3,485.9,545.9,485.9,548,484.7
		z M309.3,500.8h2.6v23.9h-2.6V500.8z M347.6,508.6c1.4,1.6,2.1,3.6,1.9,5.7v10.3h-2.4v-10.1c0.1-1.5-0.4-3.1-1.3-4.3
		c-1-1-2.4-1.6-3.8-1.5c-1.7-0.1-3.3,0.5-4.4,1.7c-1.1,1.3-1.7,3-1.6,4.7v9.4h-2.4v-10.1c0.1-1.5-0.4-3.1-1.3-4.3
		c-1-1-2.4-1.6-3.9-1.5c-1.6-0.1-3.2,0.5-4.4,1.7c-1.1,1.3-1.7,3-1.6,4.7v9.4h-2.4v-18.1h2.3v3.5c0.6-1.1,1.5-2,2.6-2.6
		c1.2-0.6,2.6-0.9,3.9-0.9c1.4,0,2.7,0.3,3.9,1c1.2,0.6,2.1,1.6,2.6,2.8c0.7-1.2,1.6-2.2,2.8-2.8c1.3-0.7,2.8-1,4.3-1
		C344.3,506.5,346.2,507.2,347.6,508.6z M359.7,523.8c-1.4-0.8-2.6-1.9-3.4-3.3c-0.8-1.4-1.2-3.1-1.2-4.7c0-1.6,0.4-3.3,1.2-4.7
		c0.8-1.4,2-2.5,3.4-3.2c2.9-1.5,6.4-1.5,9.4,0c1.4,0.8,2.5,1.9,3.3,3.3c0.8,1.4,1.2,3.1,1.2,4.7c0,1.6-0.5,3.2-1.3,4.7
		c-0.8,1.4-1.9,2.5-3.3,3.3c-2.9,1.6-6.4,1.6-9.4,0L359.7,523.8z M367.8,521.9c1-0.6,1.8-1.5,2.4-2.6c0.6-1.1,0.9-2.4,0.9-3.7
		c0-1.2-0.4-2.5-1-3.5c-0.5-1.1-1.4-2-2.4-2.6c-1.1-0.6-2.2-0.9-3.4-0.9c-1.2,0-2.4,0.3-3.4,0.9c-1,0.6-1.8,1.5-2.4,2.6
		c-0.6,1.1-0.9,2.4-0.9,3.6c0,1.3,0.3,2.5,0.9,3.7c0.5,1.1,1.4,2,2.4,2.6c1.1,0.6,2.2,0.9,3.4,0.9c1.2,0,2.4-0.3,3.5-1H367.8z
		 M392.8,507.8c1.4,0.7,2.5,1.9,3.2,3.2c0.8,1.5,1.2,3.1,1.2,4.7c0,1.6-0.4,3.2-1.2,4.7c-0.8,1.4-1.9,2.5-3.2,3.3
		c-1.4,0.8-3,1.2-4.6,1.2c-1.4,0-2.8-0.3-4-1c-1.2-0.6-2.2-1.6-2.9-2.8v3.6H379v-25.3h2.4v10.8c0.7-1.1,1.7-2,2.9-2.6
		c1.2-0.6,2.6-0.9,3.9-0.9C389.8,506.7,391.4,507,392.8,507.8z M391.5,521.9c1-0.6,1.9-1.5,2.4-2.6c0.6-1.1,0.9-2.4,0.9-3.7
		c0-1.3-0.3-2.5-0.9-3.6c-0.5-1.1-1.4-2-2.4-2.6c-1.1-0.5-2.2-0.7-3.4-0.7c-1.2,0-2.4,0.3-3.4,0.9c-1,0.6-1.9,1.5-2.4,2.6
		c-0.6,1.1-0.9,2.4-0.9,3.6c0,1.3,0.3,2.5,0.9,3.7c0.5,1.1,1.4,2,2.4,2.6c1.1,0.6,2.2,0.9,3.4,0.9
		C389.3,522.9,390.5,522.6,391.5,521.9z M402.8,502.3c-0.3-0.3-0.5-0.8-0.5-1.2c0-0.4,0.2-0.9,0.5-1.2c0.3-0.3,0.8-0.5,1.3-0.5
		c0.5,0,0.9,0.2,1.3,0.5c0.3,0.3,0.5,0.7,0.5,1.2c0,0.5-0.2,0.9-0.5,1.3c-0.3,0.3-0.8,0.5-1.3,0.5
		C403.6,502.8,403.1,502.6,402.8,502.3z M402.8,506.8h2.4v18.1h-2.4L402.8,506.8z M412.7,499.4h2.4v25.4h-2.4V499.4z M422.6,502.3
		c-0.3-0.3-0.5-0.8-0.5-1.2c0-0.4,0.2-0.9,0.5-1.2c0.3-0.3,0.8-0.5,1.3-0.5c0.5,0,0.9,0.2,1.3,0.5c0.3,0.3,0.5,0.7,0.5,1.2
		c0,1-0.8,1.8-1.8,1.8C423.4,502.8,422.9,502.6,422.6,502.3z M422.6,506.8h2.4v18.1h-2.4V506.8z M444.2,508.4c1.3,1.4,2,3.3,1.9,5.2
		v11.1h-2.3v-2.8c-0.6,1-1.4,1.7-2.4,2.2c-1.2,0.6-2.5,0.8-3.8,0.8c-1.7,0.1-3.4-0.4-4.8-1.4c-2.1-1.7-2.4-4.8-0.7-6.9
		c0.2-0.2,0.3-0.4,0.5-0.6c1.5-1.1,3.4-1.6,5.3-1.4h5.7v-1.1c0.1-1.3-0.3-2.5-1.2-3.4c-1.1-0.9-2.4-1.3-3.8-1.2
		c-1.1,0-2.2,0.2-3.3,0.6c-0.9,0.4-1.8,0.9-2.6,1.6l-1.1-1.8c0.9-0.8,1.9-1.5,3-1.9c1.3-0.4,2.7-0.6,4-0.6
		C440.7,506.5,442.6,507.1,444.2,508.4z M441.6,522.1c1-0.6,1.7-1.5,2.2-2.6v-3.1H438c-3.1,0-4.6,1.1-4.6,3.2c-0.1,1,0.4,2,1.2,2.6
		c1,0.7,2.2,1,3.4,0.9c1.3,0,2.5-0.4,3.5-1.1H441.6z M441.3,499.7h3.3L439,504h-2.4L441.3,499.7z M458.2,507.5
		c1.3-0.7,2.7-1,4.2-0.9v2.4h-0.6c-1.7-0.1-3.3,0.6-4.4,1.8c-1.1,1.4-1.7,3.1-1.6,4.9v9.2h-2.4v-18.1h2.3v3.5
		C456.2,509,457.1,508.1,458.2,507.5z M467.4,502.3c-0.3-0.3-0.5-0.8-0.5-1.2c0-0.4,0.2-0.9,0.5-1.2c0.3-0.3,0.8-0.5,1.3-0.5
		c0.5,0,0.9,0.2,1.3,0.5c0.3,0.3,0.5,0.7,0.5,1.2c0,1-0.8,1.8-1.8,1.8C468.2,502.8,467.7,502.6,467.4,502.3z M467.4,506.8h2.4v18.1
		h-2.4V506.8z M480,523.8c-1.4-0.8-2.5-1.9-3.3-3.3c-0.8-1.4-1.2-3.1-1.2-4.7c0-1.6,0.4-3.3,1.2-4.7c0.8-1.4,1.9-2.5,3.3-3.3
		c2.9-1.5,6.4-1.5,9.4,0c1.4,0.8,2.5,1.9,3.3,3.3c0.8,1.4,1.2,3.1,1.2,4.7c0,1.7-0.4,3.3-1.2,4.7c-0.8,1.4-1.9,2.5-3.3,3.3
		C486.4,525.3,482.9,525.3,480,523.8L480,523.8z M488.1,521.9c1-0.6,1.8-1.5,2.4-2.6c0.6-1.1,0.9-2.4,0.9-3.7c0-1.3-0.3-2.5-0.9-3.6
		c-0.5-1.1-1.4-2-2.4-2.6c-2.1-1.2-4.7-1.2-6.9,0c-1,0.6-1.9,1.5-2.4,2.6c-0.6,1.1-0.9,2.4-0.9,3.6c0,1.3,0.3,2.5,0.9,3.7
		c0.5,1.1,1.4,2,2.4,2.6C483.4,523.1,486,523.1,488.1,521.9z" class="st0"></path>
</g>
</svg>
